<svg width="1584" height="422" viewBox="0 0 1584 422" fill="none" xmlns="http://www.w3.org/2000/svg">
<rect y="196" width="749" height="226" fill="#BDE9F3"/>
<path d="M10.6 189L5.896 174.96H5.8C5.816 175.28 5.84 175.736 5.872 176.328C5.904 176.904 5.928 177.536 5.944 178.224C5.976 178.896 5.992 179.528 5.992 180.12V189H3.232V171.864H7.504L12.016 185.328H12.112L16.816 171.864H21.088V189H18.16V179.976C18.16 179.432 18.168 178.84 18.184 178.2C18.216 177.544 18.24 176.928 18.256 176.352C18.288 175.76 18.312 175.304 18.328 174.984H18.232L13.336 189H10.6ZM36.8491 182.472C36.8491 183.56 36.7051 184.52 36.4171 185.352C36.1291 186.184 35.7131 186.896 35.1691 187.488C34.6411 188.064 33.9851 188.504 33.2011 188.808C32.4331 189.096 31.5771 189.24 30.6331 189.24C29.7371 189.24 28.9131 189.096 28.1611 188.808C27.4091 188.504 26.7531 188.064 26.1931 187.488C25.6491 186.896 25.2251 186.184 24.9211 185.352C24.6171 184.52 24.4651 183.56 24.4651 182.472C24.4651 181.032 24.7131 179.816 25.2091 178.824C25.7051 177.816 26.4171 177.056 27.3451 176.544C28.2891 176.016 29.4011 175.752 30.6811 175.752C31.8971 175.752 32.9611 176.016 33.8731 176.544C34.8011 177.056 35.5291 177.816 36.0571 178.824C36.5851 179.816 36.8491 181.032 36.8491 182.472ZM27.5611 182.472C27.5611 183.384 27.6651 184.168 27.8731 184.824C28.0971 185.464 28.4331 185.952 28.8811 186.288C29.3451 186.624 29.9371 186.792 30.6571 186.792C31.3931 186.792 31.9851 186.624 32.4331 186.288C32.8971 185.952 33.2331 185.464 33.4411 184.824C33.6491 184.168 33.7531 183.384 33.7531 182.472C33.7531 181.544 33.6411 180.768 33.4171 180.144C33.2091 179.504 32.8731 179.024 32.4091 178.704C31.9611 178.368 31.3771 178.2 30.6571 178.2C29.5691 178.2 28.7771 178.568 28.2811 179.304C27.8011 180.04 27.5611 181.096 27.5611 182.472ZM44.2713 189.24C42.7673 189.24 41.5433 188.68 40.5993 187.56C39.6713 186.424 39.2073 184.744 39.2073 182.52C39.2073 180.296 39.6793 178.616 40.6233 177.48C41.5673 176.328 42.8073 175.752 44.3433 175.752C44.9833 175.752 45.5433 175.84 46.0233 176.016C46.5193 176.176 46.9433 176.4 47.2953 176.688C47.6473 176.976 47.9433 177.296 48.1833 177.648H48.3273C48.2793 177.424 48.2313 177.08 48.1833 176.616C48.1353 176.152 48.1113 175.72 48.1113 175.32V170.76H51.1353V189H48.7833L48.2313 187.296H48.1113C47.8713 187.648 47.5753 187.976 47.2233 188.28C46.8713 188.568 46.4553 188.8 45.9753 188.976C45.4953 189.152 44.9273 189.24 44.2713 189.24ZM45.1833 186.792C46.3033 186.792 47.0953 186.472 47.5593 185.832C48.0233 185.192 48.2553 184.224 48.2553 182.928V182.544C48.2553 181.136 48.0313 180.064 47.5833 179.328C47.1513 178.592 46.3353 178.224 45.1353 178.224C44.2233 178.224 43.5193 178.608 43.0233 179.376C42.5273 180.128 42.2793 181.192 42.2793 182.568C42.2793 183.944 42.5273 184.992 43.0233 185.712C43.5193 186.432 44.2393 186.792 45.1833 186.792ZM66.5427 175.992V189H64.1667L63.7587 187.32H63.6147C63.3427 187.768 62.9907 188.136 62.5587 188.424C62.1267 188.696 61.6547 188.896 61.1427 189.024C60.6307 189.168 60.1027 189.24 59.5587 189.24C58.5987 189.24 57.7667 189.072 57.0627 188.736C56.3587 188.4 55.8227 187.888 55.4547 187.2C55.0867 186.496 54.9027 185.592 54.9027 184.488V175.992H57.9267V183.888C57.9267 184.848 58.1187 185.576 58.5027 186.072C58.8867 186.552 59.4947 186.792 60.3267 186.792C61.1427 186.792 61.7827 186.624 62.2467 186.288C62.7107 185.936 63.0387 185.432 63.2307 184.776C63.4227 184.12 63.5187 183.312 63.5187 182.352V175.992H66.5427ZM73.4211 189H70.3971V170.76H73.4211V189ZM82.5198 175.752C83.6878 175.752 84.6878 175.992 85.5198 176.472C86.3678 176.936 87.0238 177.608 87.4878 178.488C87.9518 179.352 88.1838 180.408 88.1838 181.656V183.192H79.5918C79.6238 184.376 79.9518 185.296 80.5758 185.952C81.1998 186.592 82.0638 186.912 83.1678 186.912C84.0158 186.912 84.7678 186.832 85.4238 186.672C86.0958 186.496 86.7838 186.248 87.4878 185.928V188.352C86.8478 188.656 86.1838 188.88 85.4958 189.024C84.8078 189.168 83.9838 189.24 83.0238 189.24C81.7598 189.24 80.6318 189 79.6398 188.52C78.6638 188.024 77.8958 187.28 77.3358 186.288C76.7918 185.296 76.5198 184.064 76.5198 182.592C76.5198 181.104 76.7678 179.856 77.2638 178.848C77.7758 177.824 78.4798 177.056 79.3758 176.544C80.2718 176.016 81.3198 175.752 82.5198 175.752ZM82.5198 177.984C81.7198 177.984 81.0638 178.248 80.5518 178.776C80.0558 179.288 79.7598 180.056 79.6638 181.08H85.2558C85.2558 180.472 85.1518 179.936 84.9438 179.472C84.7518 179.008 84.4558 178.648 84.0558 178.392C83.6558 178.12 83.1438 177.984 82.5198 177.984ZM108.339 189L106.779 184.464H100.323L98.7874 189H95.5234L101.811 171.792H105.315L111.603 189H108.339ZM104.499 177.408C104.435 177.184 104.339 176.88 104.211 176.496C104.083 176.112 103.955 175.72 103.827 175.32C103.715 174.904 103.627 174.56 103.563 174.288C103.483 174.608 103.379 174.976 103.251 175.392C103.139 175.808 103.027 176.2 102.915 176.568C102.819 176.936 102.739 177.216 102.675 177.408L101.163 181.824H105.987L104.499 177.408Z" fill="black"/>
<rect y="196" width="749" height="226" fill="#BDE9F3"/>
<rect x="37" y="230" width="676" height="70" fill="#6ABFEE"/>
<path d="M310.451 266.264C310.451 268.184 310.083 269.792 309.347 271.088C308.627 272.384 307.579 273.36 306.203 274.016C304.843 274.672 303.195 275 301.259 275H296.435V257.864H301.763C303.539 257.864 305.075 258.184 306.371 258.824C307.667 259.464 308.667 260.408 309.371 261.656C310.091 262.888 310.451 264.424 310.451 266.264ZM307.235 266.36C307.235 265 307.027 263.88 306.611 263C306.195 262.12 305.579 261.472 304.763 261.056C303.947 260.624 302.947 260.408 301.763 260.408H299.507V272.432H301.355C303.339 272.432 304.811 271.928 305.771 270.92C306.747 269.896 307.235 268.376 307.235 266.36ZM319.003 261.752C320.683 261.752 321.955 262.12 322.819 262.856C323.699 263.576 324.139 264.712 324.139 266.264V275H322.003L321.403 273.2H321.307C320.939 273.664 320.555 274.056 320.155 274.376C319.771 274.68 319.323 274.896 318.811 275.024C318.315 275.168 317.707 275.24 316.987 275.24C316.219 275.24 315.523 275.096 314.899 274.808C314.291 274.52 313.811 274.08 313.459 273.488C313.107 272.88 312.931 272.12 312.931 271.208C312.931 269.864 313.419 268.856 314.395 268.184C315.387 267.496 316.883 267.12 318.883 267.056L321.139 266.984V266.336C321.139 265.504 320.939 264.912 320.539 264.56C320.139 264.208 319.579 264.032 318.859 264.032C318.203 264.032 317.571 264.128 316.963 264.32C316.355 264.512 315.763 264.736 315.187 264.992L314.227 262.88C314.867 262.544 315.595 262.272 316.411 262.064C317.243 261.856 318.107 261.752 319.003 261.752ZM319.555 268.904C318.227 268.952 317.307 269.184 316.795 269.6C316.283 270 316.027 270.544 316.027 271.232C316.027 271.84 316.211 272.28 316.579 272.552C316.947 272.824 317.419 272.96 317.995 272.96C318.875 272.96 319.619 272.712 320.227 272.216C320.835 271.704 321.139 270.952 321.139 269.96V268.856L319.555 268.904ZM332.968 272.816C333.352 272.816 333.72 272.784 334.072 272.72C334.424 272.64 334.752 272.552 335.056 272.456V274.712C334.736 274.856 334.32 274.976 333.808 275.072C333.296 275.184 332.76 275.24 332.2 275.24C331.464 275.24 330.792 275.12 330.184 274.88C329.592 274.624 329.112 274.192 328.744 273.584C328.392 272.976 328.216 272.128 328.216 271.04V264.272H326.464V262.952L328.384 261.896L329.344 259.136H331.24V261.992H334.936V264.272H331.24V271.016C331.24 271.624 331.4 272.08 331.72 272.384C332.04 272.672 332.456 272.816 332.968 272.816ZM342.862 261.752C344.542 261.752 345.814 262.12 346.678 262.856C347.558 263.576 347.998 264.712 347.998 266.264V275H345.862L345.262 273.2H345.166C344.798 273.664 344.414 274.056 344.014 274.376C343.63 274.68 343.182 274.896 342.67 275.024C342.174 275.168 341.566 275.24 340.846 275.24C340.078 275.24 339.382 275.096 338.758 274.808C338.15 274.52 337.67 274.08 337.318 273.488C336.966 272.88 336.79 272.12 336.79 271.208C336.79 269.864 337.278 268.856 338.254 268.184C339.246 267.496 340.742 267.12 342.742 267.056L344.998 266.984V266.336C344.998 265.504 344.798 264.912 344.398 264.56C343.998 264.208 343.438 264.032 342.718 264.032C342.062 264.032 341.43 264.128 340.822 264.32C340.214 264.512 339.622 264.736 339.046 264.992L338.086 262.88C338.726 262.544 339.454 262.272 340.27 262.064C341.102 261.856 341.966 261.752 342.862 261.752ZM343.414 268.904C342.086 268.952 341.166 269.184 340.654 269.6C340.142 270 339.886 270.544 339.886 271.232C339.886 271.84 340.07 272.28 340.438 272.552C340.806 272.824 341.278 272.96 341.854 272.96C342.734 272.96 343.478 272.712 344.086 272.216C344.694 271.704 344.998 270.952 344.998 269.96V268.856L343.414 268.904ZM363.422 257.864C365.646 257.864 367.262 258.328 368.27 259.256C369.294 260.184 369.806 261.464 369.806 263.096C369.806 263.832 369.694 264.536 369.47 265.208C369.246 265.864 368.87 266.456 368.342 266.984C367.814 267.512 367.118 267.928 366.254 268.232C365.406 268.536 364.35 268.688 363.086 268.688H361.382V275H358.31V257.864H363.422ZM363.23 260.408H361.382V266.144H362.774C363.606 266.144 364.31 266.048 364.886 265.856C365.478 265.648 365.926 265.328 366.23 264.896C366.534 264.464 366.686 263.904 366.686 263.216C366.686 262.272 366.406 261.568 365.846 261.104C365.286 260.64 364.414 260.408 363.23 260.408ZM379.698 261.752C379.89 261.752 380.114 261.76 380.37 261.776C380.626 261.792 380.842 261.824 381.018 261.872L380.754 264.68C380.61 264.648 380.418 264.624 380.178 264.608C379.954 264.576 379.754 264.56 379.578 264.56C379.098 264.56 378.634 264.64 378.186 264.8C377.754 264.944 377.362 265.168 377.01 265.472C376.674 265.76 376.402 266.136 376.194 266.6C376.002 267.064 375.906 267.616 375.906 268.256V275H372.882V261.992H375.21L375.642 264.248H375.786C376.042 263.784 376.362 263.368 376.746 263C377.13 262.616 377.57 262.312 378.066 262.088C378.578 261.864 379.122 261.752 379.698 261.752ZM394.576 268.472C394.576 269.56 394.432 270.52 394.144 271.352C393.856 272.184 393.44 272.896 392.896 273.488C392.368 274.064 391.712 274.504 390.928 274.808C390.16 275.096 389.304 275.24 388.36 275.24C387.464 275.24 386.64 275.096 385.888 274.808C385.136 274.504 384.48 274.064 383.92 273.488C383.376 272.896 382.952 272.184 382.648 271.352C382.344 270.52 382.192 269.56 382.192 268.472C382.192 267.032 382.44 265.816 382.936 264.824C383.432 263.816 384.144 263.056 385.072 262.544C386.016 262.016 387.128 261.752 388.408 261.752C389.624 261.752 390.688 262.016 391.6 262.544C392.528 263.056 393.256 263.816 393.784 264.824C394.312 265.816 394.576 267.032 394.576 268.472ZM385.288 268.472C385.288 269.384 385.392 270.168 385.6 270.824C385.824 271.464 386.16 271.952 386.608 272.288C387.072 272.624 387.664 272.792 388.384 272.792C389.12 272.792 389.712 272.624 390.16 272.288C390.624 271.952 390.96 271.464 391.168 270.824C391.376 270.168 391.48 269.384 391.48 268.472C391.48 267.544 391.368 266.768 391.144 266.144C390.936 265.504 390.6 265.024 390.136 264.704C389.688 264.368 389.104 264.2 388.384 264.2C387.296 264.2 386.504 264.568 386.008 265.304C385.528 266.04 385.288 267.096 385.288 268.472ZM400.233 275L395.289 261.992H398.481L401.073 269.504C401.185 269.808 401.289 270.144 401.385 270.512C401.481 270.864 401.561 271.216 401.625 271.568C401.705 271.904 401.753 272.2 401.769 272.456H401.865C401.897 272.184 401.953 271.88 402.033 271.544C402.113 271.192 402.201 270.84 402.297 270.488C402.409 270.136 402.513 269.808 402.609 269.504L405.201 261.992H408.393L403.449 275H400.233ZM413.359 261.992V275H410.335V261.992H413.359ZM411.847 256.976C412.295 256.976 412.687 257.096 413.023 257.336C413.359 257.56 413.527 257.968 413.527 258.56C413.527 259.136 413.359 259.552 413.023 259.808C412.687 260.048 412.295 260.168 411.847 260.168C411.383 260.168 410.983 260.048 410.647 259.808C410.327 259.552 410.167 259.136 410.167 258.56C410.167 257.968 410.327 257.56 410.647 257.336C410.983 257.096 411.383 256.976 411.847 256.976ZM421.521 275.24C420.017 275.24 418.793 274.68 417.849 273.56C416.921 272.424 416.457 270.744 416.457 268.52C416.457 266.296 416.929 264.616 417.873 263.48C418.817 262.328 420.057 261.752 421.593 261.752C422.233 261.752 422.793 261.84 423.273 262.016C423.769 262.176 424.193 262.4 424.545 262.688C424.897 262.976 425.193 263.296 425.433 263.648H425.577C425.529 263.424 425.481 263.08 425.433 262.616C425.385 262.152 425.361 261.72 425.361 261.32V256.76H428.385V275H426.033L425.481 273.296H425.361C425.121 273.648 424.825 273.976 424.473 274.28C424.121 274.568 423.705 274.8 423.225 274.976C422.745 275.152 422.177 275.24 421.521 275.24ZM422.433 272.792C423.553 272.792 424.345 272.472 424.809 271.832C425.273 271.192 425.505 270.224 425.505 268.928V268.544C425.505 267.136 425.281 266.064 424.833 265.328C424.401 264.592 423.585 264.224 422.385 264.224C421.473 264.224 420.769 264.608 420.273 265.376C419.777 266.128 419.529 267.192 419.529 268.568C419.529 269.944 419.777 270.992 420.273 271.712C420.769 272.432 421.489 272.792 422.433 272.792ZM437.481 261.752C438.649 261.752 439.649 261.992 440.481 262.472C441.329 262.936 441.985 263.608 442.449 264.488C442.913 265.352 443.145 266.408 443.145 267.656V269.192H434.553C434.585 270.376 434.913 271.296 435.537 271.952C436.161 272.592 437.025 272.912 438.129 272.912C438.977 272.912 439.729 272.832 440.385 272.672C441.057 272.496 441.745 272.248 442.449 271.928V274.352C441.809 274.656 441.145 274.88 440.457 275.024C439.769 275.168 438.945 275.24 437.985 275.24C436.721 275.24 435.593 275 434.601 274.52C433.625 274.024 432.857 273.28 432.297 272.288C431.753 271.296 431.481 270.064 431.481 268.592C431.481 267.104 431.729 265.856 432.225 264.848C432.737 263.824 433.441 263.056 434.337 262.544C435.233 262.016 436.281 261.752 437.481 261.752ZM437.481 263.984C436.681 263.984 436.025 264.248 435.513 264.776C435.017 265.288 434.721 266.056 434.625 267.08H440.217C440.217 266.472 440.113 265.936 439.905 265.472C439.713 265.008 439.417 264.648 439.017 264.392C438.617 264.12 438.105 263.984 437.481 263.984ZM453.01 261.752C453.202 261.752 453.426 261.76 453.682 261.776C453.938 261.792 454.154 261.824 454.33 261.872L454.066 264.68C453.922 264.648 453.73 264.624 453.49 264.608C453.266 264.576 453.066 264.56 452.89 264.56C452.41 264.56 451.946 264.64 451.498 264.8C451.066 264.944 450.674 265.168 450.322 265.472C449.986 265.76 449.714 266.136 449.506 266.6C449.314 267.064 449.218 267.616 449.218 268.256V275H446.194V261.992H448.522L448.954 264.248H449.098C449.354 263.784 449.674 263.368 450.058 263C450.442 262.616 450.882 262.312 451.378 262.088C451.89 261.864 452.434 261.752 453.01 261.752Z" fill="black"/>
<rect x="37" y="318" width="676" height="70" fill="#6ABFEE"/>
<path d="M309.453 345.864L303.525 363H300.237L294.309 345.864H297.453L300.909 356.352C301.021 356.64 301.133 357.016 301.245 357.48C301.373 357.928 301.493 358.392 301.605 358.872C301.733 359.336 301.829 359.752 301.893 360.12C301.941 359.752 302.021 359.336 302.133 358.872C302.261 358.392 302.389 357.928 302.517 357.48C302.645 357.016 302.757 356.64 302.853 356.352L306.309 345.864H309.453ZM314.417 349.992V363H311.393V349.992H314.417ZM312.905 344.976C313.353 344.976 313.745 345.096 314.081 345.336C314.417 345.56 314.585 345.968 314.585 346.56C314.585 347.136 314.417 347.552 314.081 347.808C313.745 348.048 313.353 348.168 312.905 348.168C312.441 348.168 312.041 348.048 311.705 347.808C311.385 347.552 311.225 347.136 311.225 346.56C311.225 345.968 311.385 345.56 311.705 345.336C312.041 345.096 312.441 344.976 312.905 344.976ZM323.516 349.752C324.684 349.752 325.684 349.992 326.516 350.472C327.364 350.936 328.02 351.608 328.484 352.488C328.948 353.352 329.18 354.408 329.18 355.656V357.192H320.588C320.62 358.376 320.948 359.296 321.572 359.952C322.196 360.592 323.06 360.912 324.164 360.912C325.012 360.912 325.764 360.832 326.42 360.672C327.092 360.496 327.78 360.248 328.484 359.928V362.352C327.844 362.656 327.18 362.88 326.492 363.024C325.804 363.168 324.98 363.24 324.02 363.24C322.756 363.24 321.628 363 320.636 362.52C319.66 362.024 318.892 361.28 318.332 360.288C317.788 359.296 317.516 358.064 317.516 356.592C317.516 355.104 317.764 353.856 318.26 352.848C318.772 351.824 319.476 351.056 320.372 350.544C321.268 350.016 322.316 349.752 323.516 349.752ZM323.516 351.984C322.716 351.984 322.06 352.248 321.548 352.776C321.052 353.288 320.756 354.056 320.66 355.08H326.252C326.252 354.472 326.148 353.936 325.94 353.472C325.748 353.008 325.452 352.648 325.052 352.392C324.652 352.12 324.14 351.984 323.516 351.984ZM340.976 357.408C340.896 357.104 340.8 356.728 340.688 356.28C340.576 355.816 340.456 355.336 340.328 354.84C340.216 354.344 340.104 353.888 339.992 353.472C339.896 353.056 339.832 352.736 339.8 352.512H339.704C339.656 352.736 339.584 353.056 339.488 353.472C339.392 353.888 339.288 354.344 339.176 354.84C339.064 355.336 338.944 355.816 338.816 356.28C338.704 356.744 338.608 357.128 338.528 357.432L337.016 363H333.704L330.056 349.968H333.104L334.712 356.184C334.824 356.6 334.928 357.072 335.024 357.6C335.136 358.128 335.232 358.64 335.312 359.136C335.392 359.616 335.448 360.008 335.48 360.312H335.576C335.608 360.104 335.648 359.832 335.696 359.496C335.744 359.144 335.8 358.784 335.864 358.416C335.944 358.032 336.016 357.68 336.08 357.36C336.16 357.04 336.224 356.792 336.272 356.616L338.144 349.968H341.456L343.256 356.616C343.336 356.904 343.424 357.28 343.52 357.744C343.616 358.208 343.704 358.672 343.784 359.136C343.864 359.6 343.912 359.984 343.928 360.288H344.024C344.056 360.016 344.112 359.648 344.192 359.184C344.272 358.704 344.368 358.192 344.48 357.648C344.592 357.104 344.712 356.616 344.84 356.184L346.472 349.968H349.472L345.776 363H342.416L340.976 357.408ZM363.317 345.864C365.541 345.864 367.157 346.328 368.165 347.256C369.189 348.184 369.701 349.464 369.701 351.096C369.701 351.832 369.589 352.536 369.365 353.208C369.141 353.864 368.765 354.456 368.237 354.984C367.709 355.512 367.013 355.928 366.149 356.232C365.301 356.536 364.245 356.688 362.981 356.688H361.277V363H358.205V345.864H363.317ZM363.125 348.408H361.277V354.144H362.669C363.501 354.144 364.205 354.048 364.781 353.856C365.373 353.648 365.821 353.328 366.125 352.896C366.429 352.464 366.581 351.904 366.581 351.216C366.581 350.272 366.301 349.568 365.741 349.104C365.181 348.64 364.309 348.408 363.125 348.408ZM379.592 349.752C379.784 349.752 380.008 349.76 380.264 349.776C380.52 349.792 380.736 349.824 380.912 349.872L380.648 352.68C380.504 352.648 380.312 352.624 380.072 352.608C379.848 352.576 379.648 352.56 379.472 352.56C378.992 352.56 378.528 352.64 378.08 352.8C377.648 352.944 377.256 353.168 376.904 353.472C376.568 353.76 376.296 354.136 376.088 354.6C375.896 355.064 375.8 355.616 375.8 356.256V363H372.776V349.992H375.104L375.536 352.248H375.68C375.936 351.784 376.256 351.368 376.64 351C377.024 350.616 377.464 350.312 377.96 350.088C378.472 349.864 379.016 349.752 379.592 349.752ZM394.47 356.472C394.47 357.56 394.326 358.52 394.038 359.352C393.75 360.184 393.334 360.896 392.79 361.488C392.262 362.064 391.606 362.504 390.822 362.808C390.054 363.096 389.198 363.24 388.254 363.24C387.358 363.24 386.534 363.096 385.782 362.808C385.03 362.504 384.374 362.064 383.814 361.488C383.27 360.896 382.846 360.184 382.542 359.352C382.238 358.52 382.086 357.56 382.086 356.472C382.086 355.032 382.334 353.816 382.83 352.824C383.326 351.816 384.038 351.056 384.966 350.544C385.91 350.016 387.022 349.752 388.302 349.752C389.518 349.752 390.582 350.016 391.494 350.544C392.422 351.056 393.15 351.816 393.678 352.824C394.206 353.816 394.47 355.032 394.47 356.472ZM385.182 356.472C385.182 357.384 385.286 358.168 385.494 358.824C385.718 359.464 386.054 359.952 386.502 360.288C386.966 360.624 387.558 360.792 388.278 360.792C389.014 360.792 389.606 360.624 390.054 360.288C390.518 359.952 390.854 359.464 391.062 358.824C391.27 358.168 391.374 357.384 391.374 356.472C391.374 355.544 391.262 354.768 391.038 354.144C390.83 353.504 390.494 353.024 390.03 352.704C389.582 352.368 388.998 352.2 388.278 352.2C387.19 352.2 386.398 352.568 385.902 353.304C385.422 354.04 385.182 355.096 385.182 356.472ZM400.128 363L395.184 349.992H398.376L400.968 357.504C401.08 357.808 401.184 358.144 401.28 358.512C401.376 358.864 401.456 359.216 401.52 359.568C401.6 359.904 401.648 360.2 401.664 360.456H401.76C401.792 360.184 401.848 359.88 401.928 359.544C402.008 359.192 402.096 358.84 402.192 358.488C402.304 358.136 402.408 357.808 402.504 357.504L405.096 349.992H408.288L403.344 363H400.128ZM413.253 349.992V363H410.229V349.992H413.253ZM411.741 344.976C412.189 344.976 412.581 345.096 412.917 345.336C413.253 345.56 413.421 345.968 413.421 346.56C413.421 347.136 413.253 347.552 412.917 347.808C412.581 348.048 412.189 348.168 411.741 348.168C411.277 348.168 410.877 348.048 410.541 347.808C410.221 347.552 410.061 347.136 410.061 346.56C410.061 345.968 410.221 345.56 410.541 345.336C410.877 345.096 411.277 344.976 411.741 344.976ZM421.416 363.24C419.912 363.24 418.688 362.68 417.744 361.56C416.816 360.424 416.352 358.744 416.352 356.52C416.352 354.296 416.824 352.616 417.768 351.48C418.712 350.328 419.952 349.752 421.488 349.752C422.128 349.752 422.688 349.84 423.168 350.016C423.664 350.176 424.088 350.4 424.44 350.688C424.792 350.976 425.088 351.296 425.328 351.648H425.472C425.424 351.424 425.376 351.08 425.328 350.616C425.28 350.152 425.256 349.72 425.256 349.32V344.76H428.28V363H425.928L425.376 361.296H425.256C425.016 361.648 424.72 361.976 424.368 362.28C424.016 362.568 423.6 362.8 423.12 362.976C422.64 363.152 422.072 363.24 421.416 363.24ZM422.328 360.792C423.448 360.792 424.24 360.472 424.704 359.832C425.168 359.192 425.4 358.224 425.4 356.928V356.544C425.4 355.136 425.176 354.064 424.728 353.328C424.296 352.592 423.48 352.224 422.28 352.224C421.368 352.224 420.664 352.608 420.168 353.376C419.672 354.128 419.424 355.192 419.424 356.568C419.424 357.944 419.672 358.992 420.168 359.712C420.664 360.432 421.384 360.792 422.328 360.792ZM437.375 349.752C438.543 349.752 439.543 349.992 440.375 350.472C441.223 350.936 441.879 351.608 442.343 352.488C442.807 353.352 443.039 354.408 443.039 355.656V357.192H434.447C434.479 358.376 434.807 359.296 435.431 359.952C436.055 360.592 436.919 360.912 438.023 360.912C438.871 360.912 439.623 360.832 440.279 360.672C440.951 360.496 441.639 360.248 442.343 359.928V362.352C441.703 362.656 441.039 362.88 440.351 363.024C439.663 363.168 438.839 363.24 437.879 363.24C436.615 363.24 435.487 363 434.495 362.52C433.519 362.024 432.751 361.28 432.191 360.288C431.647 359.296 431.375 358.064 431.375 356.592C431.375 355.104 431.623 353.856 432.119 352.848C432.631 351.824 433.335 351.056 434.231 350.544C435.127 350.016 436.175 349.752 437.375 349.752ZM437.375 351.984C436.575 351.984 435.919 352.248 435.407 352.776C434.911 353.288 434.615 354.056 434.519 355.08H440.111C440.111 354.472 440.007 353.936 439.799 353.472C439.607 353.008 439.311 352.648 438.911 352.392C438.511 352.12 437.999 351.984 437.375 351.984ZM452.905 349.752C453.097 349.752 453.321 349.76 453.577 349.776C453.833 349.792 454.049 349.824 454.225 349.872L453.961 352.68C453.817 352.648 453.625 352.624 453.385 352.608C453.161 352.576 452.961 352.56 452.785 352.56C452.305 352.56 451.841 352.64 451.393 352.8C450.961 352.944 450.569 353.168 450.217 353.472C449.881 353.76 449.609 354.136 449.401 354.6C449.209 355.064 449.113 355.616 449.113 356.256V363H446.089V349.992H448.417L448.849 352.248H448.993C449.249 351.784 449.569 351.368 449.953 351C450.337 350.616 450.777 350.312 451.273 350.088C451.785 349.864 452.329 349.752 452.905 349.752Z" fill="black"/>
<rect x="835" y="196" width="749" height="226" fill="#BDE9F3"/>
<path d="M845.6 189L840.896 174.96H840.8C840.816 175.28 840.84 175.736 840.872 176.328C840.904 176.904 840.928 177.536 840.944 178.224C840.976 178.896 840.992 179.528 840.992 180.12V189H838.232V171.864H842.504L847.016 185.328H847.112L851.816 171.864H856.088V189H853.16V179.976C853.16 179.432 853.168 178.84 853.184 178.2C853.216 177.544 853.24 176.928 853.256 176.352C853.288 175.76 853.312 175.304 853.328 174.984H853.232L848.336 189H845.6ZM871.849 182.472C871.849 183.56 871.705 184.52 871.417 185.352C871.129 186.184 870.713 186.896 870.169 187.488C869.641 188.064 868.985 188.504 868.201 188.808C867.433 189.096 866.577 189.24 865.633 189.24C864.737 189.24 863.913 189.096 863.161 188.808C862.409 188.504 861.753 188.064 861.193 187.488C860.649 186.896 860.225 186.184 859.921 185.352C859.617 184.52 859.465 183.56 859.465 182.472C859.465 181.032 859.713 179.816 860.209 178.824C860.705 177.816 861.417 177.056 862.345 176.544C863.289 176.016 864.401 175.752 865.681 175.752C866.897 175.752 867.961 176.016 868.873 176.544C869.801 177.056 870.529 177.816 871.057 178.824C871.585 179.816 871.849 181.032 871.849 182.472ZM862.561 182.472C862.561 183.384 862.665 184.168 862.873 184.824C863.097 185.464 863.433 185.952 863.881 186.288C864.345 186.624 864.937 186.792 865.657 186.792C866.393 186.792 866.985 186.624 867.433 186.288C867.897 185.952 868.233 185.464 868.441 184.824C868.649 184.168 868.753 183.384 868.753 182.472C868.753 181.544 868.641 180.768 868.417 180.144C868.209 179.504 867.873 179.024 867.409 178.704C866.961 178.368 866.377 178.2 865.657 178.2C864.569 178.2 863.777 178.568 863.281 179.304C862.801 180.04 862.561 181.096 862.561 182.472ZM879.271 189.24C877.767 189.24 876.543 188.68 875.599 187.56C874.671 186.424 874.207 184.744 874.207 182.52C874.207 180.296 874.679 178.616 875.623 177.48C876.567 176.328 877.807 175.752 879.343 175.752C879.983 175.752 880.543 175.84 881.023 176.016C881.519 176.176 881.943 176.4 882.295 176.688C882.647 176.976 882.943 177.296 883.183 177.648H883.327C883.279 177.424 883.231 177.08 883.183 176.616C883.135 176.152 883.111 175.72 883.111 175.32V170.76H886.135V189H883.783L883.231 187.296H883.111C882.871 187.648 882.575 187.976 882.223 188.28C881.871 188.568 881.455 188.8 880.975 188.976C880.495 189.152 879.927 189.24 879.271 189.24ZM880.183 186.792C881.303 186.792 882.095 186.472 882.559 185.832C883.023 185.192 883.255 184.224 883.255 182.928V182.544C883.255 181.136 883.031 180.064 882.583 179.328C882.151 178.592 881.335 178.224 880.135 178.224C879.223 178.224 878.519 178.608 878.023 179.376C877.527 180.128 877.279 181.192 877.279 182.568C877.279 183.944 877.527 184.992 878.023 185.712C878.519 186.432 879.239 186.792 880.183 186.792ZM901.543 175.992V189H899.167L898.759 187.32H898.615C898.343 187.768 897.991 188.136 897.559 188.424C897.127 188.696 896.655 188.896 896.143 189.024C895.631 189.168 895.103 189.24 894.559 189.24C893.599 189.24 892.767 189.072 892.063 188.736C891.359 188.4 890.823 187.888 890.455 187.2C890.087 186.496 889.903 185.592 889.903 184.488V175.992H892.927V183.888C892.927 184.848 893.119 185.576 893.503 186.072C893.887 186.552 894.495 186.792 895.327 186.792C896.143 186.792 896.783 186.624 897.247 186.288C897.711 185.936 898.039 185.432 898.231 184.776C898.423 184.12 898.519 183.312 898.519 182.352V175.992H901.543ZM908.421 189H905.397V170.76H908.421V189ZM917.52 175.752C918.688 175.752 919.688 175.992 920.52 176.472C921.368 176.936 922.024 177.608 922.488 178.488C922.952 179.352 923.184 180.408 923.184 181.656V183.192H914.592C914.624 184.376 914.952 185.296 915.576 185.952C916.2 186.592 917.064 186.912 918.168 186.912C919.016 186.912 919.768 186.832 920.424 186.672C921.096 186.496 921.784 186.248 922.488 185.928V188.352C921.848 188.656 921.184 188.88 920.496 189.024C919.808 189.168 918.984 189.24 918.024 189.24C916.76 189.24 915.632 189 914.64 188.52C913.664 188.024 912.896 187.28 912.336 186.288C911.792 185.296 911.52 184.064 911.52 182.592C911.52 181.104 911.768 179.856 912.264 178.848C912.776 177.824 913.48 177.056 914.376 176.544C915.272 176.016 916.32 175.752 917.52 175.752ZM917.52 177.984C916.72 177.984 916.064 178.248 915.552 178.776C915.056 179.288 914.76 180.056 914.664 181.08H920.256C920.256 180.472 920.152 179.936 919.944 179.472C919.752 179.008 919.456 178.648 919.056 178.392C918.656 178.12 918.144 177.984 917.52 177.984ZM937.915 171.864C939.403 171.864 940.651 172.008 941.659 172.296C942.667 172.568 943.419 173.016 943.915 173.64C944.427 174.264 944.683 175.104 944.683 176.16C944.683 176.816 944.571 177.408 944.347 177.936C944.123 178.464 943.795 178.896 943.363 179.232C942.947 179.568 942.427 179.792 941.803 179.904V180.024C942.443 180.136 943.011 180.344 943.507 180.648C944.019 180.936 944.419 181.36 944.707 181.92C945.011 182.464 945.163 183.184 945.163 184.08C945.163 185.12 944.915 186.008 944.419 186.744C943.923 187.48 943.211 188.04 942.283 188.424C941.371 188.808 940.283 189 939.019 189H932.755V171.864H937.915ZM938.323 178.848C939.539 178.848 940.371 178.656 940.819 178.272C941.283 177.888 941.515 177.32 941.515 176.568C941.515 175.8 941.243 175.248 940.699 174.912C940.155 174.576 939.283 174.408 938.083 174.408H935.827V178.848H938.323ZM935.827 181.32V186.432H938.611C939.859 186.432 940.723 186.192 941.203 185.712C941.699 185.232 941.947 184.592 941.947 183.792C941.947 183.28 941.843 182.84 941.635 182.472C941.427 182.104 941.067 181.824 940.555 181.632C940.043 181.424 939.347 181.32 938.467 181.32H935.827Z" fill="black"/>
<rect x="872" y="230" width="676" height="70" fill="#6ABFEE"/>
<path d="M1145.45 266.264C1145.45 268.184 1145.08 269.792 1144.35 271.088C1143.63 272.384 1142.58 273.36 1141.2 274.016C1139.84 274.672 1138.2 275 1136.26 275H1131.44V257.864H1136.76C1138.54 257.864 1140.08 258.184 1141.37 258.824C1142.67 259.464 1143.67 260.408 1144.37 261.656C1145.09 262.888 1145.45 264.424 1145.45 266.264ZM1142.24 266.36C1142.24 265 1142.03 263.88 1141.61 263C1141.2 262.12 1140.58 261.472 1139.76 261.056C1138.95 260.624 1137.95 260.408 1136.76 260.408H1134.51V272.432H1136.36C1138.34 272.432 1139.81 271.928 1140.77 270.92C1141.75 269.896 1142.24 268.376 1142.24 266.36ZM1154 261.752C1155.68 261.752 1156.96 262.12 1157.82 262.856C1158.7 263.576 1159.14 264.712 1159.14 266.264V275H1157L1156.4 273.2H1156.31C1155.94 273.664 1155.56 274.056 1155.16 274.376C1154.77 274.68 1154.32 274.896 1153.81 275.024C1153.32 275.168 1152.71 275.24 1151.99 275.24C1151.22 275.24 1150.52 275.096 1149.9 274.808C1149.29 274.52 1148.81 274.08 1148.46 273.488C1148.11 272.88 1147.93 272.12 1147.93 271.208C1147.93 269.864 1148.42 268.856 1149.4 268.184C1150.39 267.496 1151.88 267.12 1153.88 267.056L1156.14 266.984V266.336C1156.14 265.504 1155.94 264.912 1155.54 264.56C1155.14 264.208 1154.58 264.032 1153.86 264.032C1153.2 264.032 1152.57 264.128 1151.96 264.32C1151.36 264.512 1150.76 264.736 1150.19 264.992L1149.23 262.88C1149.87 262.544 1150.6 262.272 1151.41 262.064C1152.24 261.856 1153.11 261.752 1154 261.752ZM1154.56 268.904C1153.23 268.952 1152.31 269.184 1151.8 269.6C1151.28 270 1151.03 270.544 1151.03 271.232C1151.03 271.84 1151.21 272.28 1151.58 272.552C1151.95 272.824 1152.42 272.96 1153 272.96C1153.88 272.96 1154.62 272.712 1155.23 272.216C1155.84 271.704 1156.14 270.952 1156.14 269.96V268.856L1154.56 268.904ZM1167.97 272.816C1168.35 272.816 1168.72 272.784 1169.07 272.72C1169.42 272.64 1169.75 272.552 1170.06 272.456V274.712C1169.74 274.856 1169.32 274.976 1168.81 275.072C1168.3 275.184 1167.76 275.24 1167.2 275.24C1166.46 275.24 1165.79 275.12 1165.18 274.88C1164.59 274.624 1164.11 274.192 1163.74 273.584C1163.39 272.976 1163.22 272.128 1163.22 271.04V264.272H1161.46V262.952L1163.38 261.896L1164.34 259.136H1166.24V261.992H1169.94V264.272H1166.24V271.016C1166.24 271.624 1166.4 272.08 1166.72 272.384C1167.04 272.672 1167.46 272.816 1167.97 272.816ZM1177.86 261.752C1179.54 261.752 1180.81 262.12 1181.68 262.856C1182.56 263.576 1183 264.712 1183 266.264V275H1180.86L1180.26 273.2H1180.17C1179.8 273.664 1179.41 274.056 1179.01 274.376C1178.63 274.68 1178.18 274.896 1177.67 275.024C1177.17 275.168 1176.57 275.24 1175.85 275.24C1175.08 275.24 1174.38 275.096 1173.76 274.808C1173.15 274.52 1172.67 274.08 1172.32 273.488C1171.97 272.88 1171.79 272.12 1171.79 271.208C1171.79 269.864 1172.28 268.856 1173.25 268.184C1174.25 267.496 1175.74 267.12 1177.74 267.056L1180 266.984V266.336C1180 265.504 1179.8 264.912 1179.4 264.56C1179 264.208 1178.44 264.032 1177.72 264.032C1177.06 264.032 1176.43 264.128 1175.82 264.32C1175.21 264.512 1174.62 264.736 1174.05 264.992L1173.09 262.88C1173.73 262.544 1174.45 262.272 1175.27 262.064C1176.1 261.856 1176.97 261.752 1177.86 261.752ZM1178.41 268.904C1177.09 268.952 1176.17 269.184 1175.65 269.6C1175.14 270 1174.89 270.544 1174.89 271.232C1174.89 271.84 1175.07 272.28 1175.44 272.552C1175.81 272.824 1176.28 272.96 1176.85 272.96C1177.73 272.96 1178.48 272.712 1179.09 272.216C1179.69 271.704 1180 270.952 1180 269.96V268.856L1178.41 268.904ZM1198.42 257.864C1200.65 257.864 1202.26 258.328 1203.27 259.256C1204.29 260.184 1204.81 261.464 1204.81 263.096C1204.81 263.832 1204.69 264.536 1204.47 265.208C1204.25 265.864 1203.87 266.456 1203.34 266.984C1202.81 267.512 1202.12 267.928 1201.25 268.232C1200.41 268.536 1199.35 268.688 1198.09 268.688H1196.38V275H1193.31V257.864H1198.42ZM1198.23 260.408H1196.38V266.144H1197.77C1198.61 266.144 1199.31 266.048 1199.89 265.856C1200.48 265.648 1200.93 265.328 1201.23 264.896C1201.53 264.464 1201.69 263.904 1201.69 263.216C1201.69 262.272 1201.41 261.568 1200.85 261.104C1200.29 260.64 1199.41 260.408 1198.23 260.408ZM1214.7 261.752C1214.89 261.752 1215.11 261.76 1215.37 261.776C1215.63 261.792 1215.84 261.824 1216.02 261.872L1215.75 264.68C1215.61 264.648 1215.42 264.624 1215.18 264.608C1214.95 264.576 1214.75 264.56 1214.58 264.56C1214.1 264.56 1213.63 264.64 1213.19 264.8C1212.75 264.944 1212.36 265.168 1212.01 265.472C1211.67 265.76 1211.4 266.136 1211.19 266.6C1211 267.064 1210.91 267.616 1210.91 268.256V275H1207.88V261.992H1210.21L1210.64 264.248H1210.79C1211.04 263.784 1211.36 263.368 1211.75 263C1212.13 262.616 1212.57 262.312 1213.07 262.088C1213.58 261.864 1214.12 261.752 1214.7 261.752ZM1229.58 268.472C1229.58 269.56 1229.43 270.52 1229.14 271.352C1228.86 272.184 1228.44 272.896 1227.9 273.488C1227.37 274.064 1226.71 274.504 1225.93 274.808C1225.16 275.096 1224.3 275.24 1223.36 275.24C1222.46 275.24 1221.64 275.096 1220.89 274.808C1220.14 274.504 1219.48 274.064 1218.92 273.488C1218.38 272.896 1217.95 272.184 1217.65 271.352C1217.34 270.52 1217.19 269.56 1217.19 268.472C1217.19 267.032 1217.44 265.816 1217.94 264.824C1218.43 263.816 1219.14 263.056 1220.07 262.544C1221.02 262.016 1222.13 261.752 1223.41 261.752C1224.62 261.752 1225.69 262.016 1226.6 262.544C1227.53 263.056 1228.26 263.816 1228.78 264.824C1229.31 265.816 1229.58 267.032 1229.58 268.472ZM1220.29 268.472C1220.29 269.384 1220.39 270.168 1220.6 270.824C1220.82 271.464 1221.16 271.952 1221.61 272.288C1222.07 272.624 1222.66 272.792 1223.38 272.792C1224.12 272.792 1224.71 272.624 1225.16 272.288C1225.62 271.952 1225.96 271.464 1226.17 270.824C1226.38 270.168 1226.48 269.384 1226.48 268.472C1226.48 267.544 1226.37 266.768 1226.14 266.144C1225.94 265.504 1225.6 265.024 1225.14 264.704C1224.69 264.368 1224.1 264.2 1223.38 264.2C1222.3 264.2 1221.5 264.568 1221.01 265.304C1220.53 266.04 1220.29 267.096 1220.29 268.472ZM1235.23 275L1230.29 261.992H1233.48L1236.07 269.504C1236.19 269.808 1236.29 270.144 1236.39 270.512C1236.48 270.864 1236.56 271.216 1236.63 271.568C1236.71 271.904 1236.75 272.2 1236.77 272.456H1236.87C1236.9 272.184 1236.95 271.88 1237.03 271.544C1237.11 271.192 1237.2 270.84 1237.3 270.488C1237.41 270.136 1237.51 269.808 1237.61 269.504L1240.2 261.992H1243.39L1238.45 275H1235.23ZM1248.36 261.992V275H1245.33V261.992H1248.36ZM1246.85 256.976C1247.29 256.976 1247.69 257.096 1248.02 257.336C1248.36 257.56 1248.53 257.968 1248.53 258.56C1248.53 259.136 1248.36 259.552 1248.02 259.808C1247.69 260.048 1247.29 260.168 1246.85 260.168C1246.38 260.168 1245.98 260.048 1245.65 259.808C1245.33 259.552 1245.17 259.136 1245.17 258.56C1245.17 257.968 1245.33 257.56 1245.65 257.336C1245.98 257.096 1246.38 256.976 1246.85 256.976ZM1256.52 275.24C1255.02 275.24 1253.79 274.68 1252.85 273.56C1251.92 272.424 1251.46 270.744 1251.46 268.52C1251.46 266.296 1251.93 264.616 1252.87 263.48C1253.82 262.328 1255.06 261.752 1256.59 261.752C1257.23 261.752 1257.79 261.84 1258.27 262.016C1258.77 262.176 1259.19 262.4 1259.55 262.688C1259.9 262.976 1260.19 263.296 1260.43 263.648H1260.58C1260.53 263.424 1260.48 263.08 1260.43 262.616C1260.39 262.152 1260.36 261.72 1260.36 261.32V256.76H1263.39V275H1261.03L1260.48 273.296H1260.36C1260.12 273.648 1259.83 273.976 1259.47 274.28C1259.12 274.568 1258.71 274.8 1258.23 274.976C1257.75 275.152 1257.18 275.24 1256.52 275.24ZM1257.43 272.792C1258.55 272.792 1259.35 272.472 1259.81 271.832C1260.27 271.192 1260.51 270.224 1260.51 268.928V268.544C1260.51 267.136 1260.28 266.064 1259.83 265.328C1259.4 264.592 1258.59 264.224 1257.39 264.224C1256.47 264.224 1255.77 264.608 1255.27 265.376C1254.78 266.128 1254.53 267.192 1254.53 268.568C1254.53 269.944 1254.78 270.992 1255.27 271.712C1255.77 272.432 1256.49 272.792 1257.43 272.792ZM1272.48 261.752C1273.65 261.752 1274.65 261.992 1275.48 262.472C1276.33 262.936 1276.98 263.608 1277.45 264.488C1277.91 265.352 1278.14 266.408 1278.14 267.656V269.192H1269.55C1269.58 270.376 1269.91 271.296 1270.54 271.952C1271.16 272.592 1272.02 272.912 1273.13 272.912C1273.98 272.912 1274.73 272.832 1275.38 272.672C1276.06 272.496 1276.74 272.248 1277.45 271.928V274.352C1276.81 274.656 1276.14 274.88 1275.46 275.024C1274.77 275.168 1273.94 275.24 1272.98 275.24C1271.72 275.24 1270.59 275 1269.6 274.52C1268.62 274.024 1267.86 273.28 1267.3 272.288C1266.75 271.296 1266.48 270.064 1266.48 268.592C1266.48 267.104 1266.73 265.856 1267.22 264.848C1267.74 263.824 1268.44 263.056 1269.34 262.544C1270.23 262.016 1271.28 261.752 1272.48 261.752ZM1272.48 263.984C1271.68 263.984 1271.02 264.248 1270.51 264.776C1270.02 265.288 1269.72 266.056 1269.62 267.08H1275.22C1275.22 266.472 1275.11 265.936 1274.9 265.472C1274.71 265.008 1274.42 264.648 1274.02 264.392C1273.62 264.12 1273.1 263.984 1272.48 263.984ZM1288.01 261.752C1288.2 261.752 1288.43 261.76 1288.68 261.776C1288.94 261.792 1289.15 261.824 1289.33 261.872L1289.07 264.68C1288.92 264.648 1288.73 264.624 1288.49 264.608C1288.27 264.576 1288.07 264.56 1287.89 264.56C1287.41 264.56 1286.95 264.64 1286.5 264.8C1286.07 264.944 1285.67 265.168 1285.32 265.472C1284.99 265.76 1284.71 266.136 1284.51 266.6C1284.31 267.064 1284.22 267.616 1284.22 268.256V275H1281.19V261.992H1283.52L1283.95 264.248H1284.1C1284.35 263.784 1284.67 263.368 1285.06 263C1285.44 262.616 1285.88 262.312 1286.38 262.088C1286.89 261.864 1287.43 261.752 1288.01 261.752Z" fill="black"/>
<rect x="872" y="318" width="676" height="70" fill="#6ABFEE"/>
<path d="M1144.45 345.864L1138.52 363H1135.24L1129.31 345.864H1132.45L1135.91 356.352C1136.02 356.64 1136.13 357.016 1136.24 357.48C1136.37 357.928 1136.49 358.392 1136.6 358.872C1136.73 359.336 1136.83 359.752 1136.89 360.12C1136.94 359.752 1137.02 359.336 1137.13 358.872C1137.26 358.392 1137.39 357.928 1137.52 357.48C1137.64 357.016 1137.76 356.64 1137.85 356.352L1141.31 345.864H1144.45ZM1149.42 349.992V363H1146.39V349.992H1149.42ZM1147.91 344.976C1148.35 344.976 1148.75 345.096 1149.08 345.336C1149.42 345.56 1149.59 345.968 1149.59 346.56C1149.59 347.136 1149.42 347.552 1149.08 347.808C1148.75 348.048 1148.35 348.168 1147.91 348.168C1147.44 348.168 1147.04 348.048 1146.71 347.808C1146.39 347.552 1146.23 347.136 1146.23 346.56C1146.23 345.968 1146.39 345.56 1146.71 345.336C1147.04 345.096 1147.44 344.976 1147.91 344.976ZM1158.52 349.752C1159.68 349.752 1160.68 349.992 1161.52 350.472C1162.36 350.936 1163.02 351.608 1163.48 352.488C1163.95 353.352 1164.18 354.408 1164.18 355.656V357.192H1155.59C1155.62 358.376 1155.95 359.296 1156.57 359.952C1157.2 360.592 1158.06 360.912 1159.16 360.912C1160.01 360.912 1160.76 360.832 1161.42 360.672C1162.09 360.496 1162.78 360.248 1163.48 359.928V362.352C1162.84 362.656 1162.18 362.88 1161.49 363.024C1160.8 363.168 1159.98 363.24 1159.02 363.24C1157.76 363.24 1156.63 363 1155.64 362.52C1154.66 362.024 1153.89 361.28 1153.33 360.288C1152.79 359.296 1152.52 358.064 1152.52 356.592C1152.52 355.104 1152.76 353.856 1153.26 352.848C1153.77 351.824 1154.48 351.056 1155.37 350.544C1156.27 350.016 1157.32 349.752 1158.52 349.752ZM1158.52 351.984C1157.72 351.984 1157.06 352.248 1156.55 352.776C1156.05 353.288 1155.76 354.056 1155.66 355.08H1161.25C1161.25 354.472 1161.15 353.936 1160.94 353.472C1160.75 353.008 1160.45 352.648 1160.05 352.392C1159.65 352.12 1159.14 351.984 1158.52 351.984ZM1175.98 357.408C1175.9 357.104 1175.8 356.728 1175.69 356.28C1175.58 355.816 1175.46 355.336 1175.33 354.84C1175.22 354.344 1175.1 353.888 1174.99 353.472C1174.9 353.056 1174.83 352.736 1174.8 352.512H1174.7C1174.66 352.736 1174.58 353.056 1174.49 353.472C1174.39 353.888 1174.29 354.344 1174.18 354.84C1174.06 355.336 1173.94 355.816 1173.82 356.28C1173.7 356.744 1173.61 357.128 1173.53 357.432L1172.02 363H1168.7L1165.06 349.968H1168.1L1169.71 356.184C1169.82 356.6 1169.93 357.072 1170.02 357.6C1170.14 358.128 1170.23 358.64 1170.31 359.136C1170.39 359.616 1170.45 360.008 1170.48 360.312H1170.58C1170.61 360.104 1170.65 359.832 1170.7 359.496C1170.74 359.144 1170.8 358.784 1170.86 358.416C1170.94 358.032 1171.02 357.68 1171.08 357.36C1171.16 357.04 1171.22 356.792 1171.27 356.616L1173.14 349.968H1176.46L1178.26 356.616C1178.34 356.904 1178.42 357.28 1178.52 357.744C1178.62 358.208 1178.7 358.672 1178.78 359.136C1178.86 359.6 1178.91 359.984 1178.93 360.288H1179.02C1179.06 360.016 1179.11 359.648 1179.19 359.184C1179.27 358.704 1179.37 358.192 1179.48 357.648C1179.59 357.104 1179.71 356.616 1179.84 356.184L1181.47 349.968H1184.47L1180.78 363H1177.42L1175.98 357.408ZM1198.32 345.864C1200.54 345.864 1202.16 346.328 1203.16 347.256C1204.19 348.184 1204.7 349.464 1204.7 351.096C1204.7 351.832 1204.59 352.536 1204.36 353.208C1204.14 353.864 1203.76 354.456 1203.24 354.984C1202.71 355.512 1202.01 355.928 1201.15 356.232C1200.3 356.536 1199.24 356.688 1197.98 356.688H1196.28V363H1193.2V345.864H1198.32ZM1198.12 348.408H1196.28V354.144H1197.67C1198.5 354.144 1199.2 354.048 1199.78 353.856C1200.37 353.648 1200.82 353.328 1201.12 352.896C1201.43 352.464 1201.58 351.904 1201.58 351.216C1201.58 350.272 1201.3 349.568 1200.74 349.104C1200.18 348.64 1199.31 348.408 1198.12 348.408ZM1214.59 349.752C1214.78 349.752 1215.01 349.76 1215.26 349.776C1215.52 349.792 1215.74 349.824 1215.91 349.872L1215.65 352.68C1215.5 352.648 1215.31 352.624 1215.07 352.608C1214.85 352.576 1214.65 352.56 1214.47 352.56C1213.99 352.56 1213.53 352.64 1213.08 352.8C1212.65 352.944 1212.26 353.168 1211.9 353.472C1211.57 353.76 1211.3 354.136 1211.09 354.6C1210.9 355.064 1210.8 355.616 1210.8 356.256V363H1207.78V349.992H1210.1L1210.54 352.248H1210.68C1210.94 351.784 1211.26 351.368 1211.64 351C1212.02 350.616 1212.46 350.312 1212.96 350.088C1213.47 349.864 1214.02 349.752 1214.59 349.752ZM1229.47 356.472C1229.47 357.56 1229.33 358.52 1229.04 359.352C1228.75 360.184 1228.33 360.896 1227.79 361.488C1227.26 362.064 1226.61 362.504 1225.82 362.808C1225.05 363.096 1224.2 363.24 1223.25 363.24C1222.36 363.24 1221.53 363.096 1220.78 362.808C1220.03 362.504 1219.37 362.064 1218.81 361.488C1218.27 360.896 1217.85 360.184 1217.54 359.352C1217.24 358.52 1217.09 357.56 1217.09 356.472C1217.09 355.032 1217.33 353.816 1217.83 352.824C1218.33 351.816 1219.04 351.056 1219.97 350.544C1220.91 350.016 1222.02 349.752 1223.3 349.752C1224.52 349.752 1225.58 350.016 1226.49 350.544C1227.42 351.056 1228.15 351.816 1228.68 352.824C1229.21 353.816 1229.47 355.032 1229.47 356.472ZM1220.18 356.472C1220.18 357.384 1220.29 358.168 1220.49 358.824C1220.72 359.464 1221.05 359.952 1221.5 360.288C1221.97 360.624 1222.56 360.792 1223.28 360.792C1224.01 360.792 1224.61 360.624 1225.05 360.288C1225.52 359.952 1225.85 359.464 1226.06 358.824C1226.27 358.168 1226.37 357.384 1226.37 356.472C1226.37 355.544 1226.26 354.768 1226.04 354.144C1225.83 353.504 1225.49 353.024 1225.03 352.704C1224.58 352.368 1224 352.2 1223.28 352.2C1222.19 352.2 1221.4 352.568 1220.9 353.304C1220.42 354.04 1220.18 355.096 1220.18 356.472ZM1235.13 363L1230.18 349.992H1233.38L1235.97 357.504C1236.08 357.808 1236.18 358.144 1236.28 358.512C1236.38 358.864 1236.46 359.216 1236.52 359.568C1236.6 359.904 1236.65 360.2 1236.66 360.456H1236.76C1236.79 360.184 1236.85 359.88 1236.93 359.544C1237.01 359.192 1237.1 358.84 1237.19 358.488C1237.3 358.136 1237.41 357.808 1237.5 357.504L1240.1 349.992H1243.29L1238.34 363H1235.13ZM1248.25 349.992V363H1245.23V349.992H1248.25ZM1246.74 344.976C1247.19 344.976 1247.58 345.096 1247.92 345.336C1248.25 345.56 1248.42 345.968 1248.42 346.56C1248.42 347.136 1248.25 347.552 1247.92 347.808C1247.58 348.048 1247.19 348.168 1246.74 348.168C1246.28 348.168 1245.88 348.048 1245.54 347.808C1245.22 347.552 1245.06 347.136 1245.06 346.56C1245.06 345.968 1245.22 345.56 1245.54 345.336C1245.88 345.096 1246.28 344.976 1246.74 344.976ZM1256.42 363.24C1254.91 363.24 1253.69 362.68 1252.74 361.56C1251.82 360.424 1251.35 358.744 1251.35 356.52C1251.35 354.296 1251.82 352.616 1252.77 351.48C1253.71 350.328 1254.95 349.752 1256.49 349.752C1257.13 349.752 1257.69 349.84 1258.17 350.016C1258.66 350.176 1259.09 350.4 1259.44 350.688C1259.79 350.976 1260.09 351.296 1260.33 351.648H1260.47C1260.42 351.424 1260.38 351.08 1260.33 350.616C1260.28 350.152 1260.26 349.72 1260.26 349.32V344.76H1263.28V363H1260.93L1260.38 361.296H1260.26C1260.02 361.648 1259.72 361.976 1259.37 362.28C1259.02 362.568 1258.6 362.8 1258.12 362.976C1257.64 363.152 1257.07 363.24 1256.42 363.24ZM1257.33 360.792C1258.45 360.792 1259.24 360.472 1259.7 359.832C1260.17 359.192 1260.4 358.224 1260.4 356.928V356.544C1260.4 355.136 1260.18 354.064 1259.73 353.328C1259.3 352.592 1258.48 352.224 1257.28 352.224C1256.37 352.224 1255.66 352.608 1255.17 353.376C1254.67 354.128 1254.42 355.192 1254.42 356.568C1254.42 357.944 1254.67 358.992 1255.17 359.712C1255.66 360.432 1256.38 360.792 1257.33 360.792ZM1272.38 349.752C1273.54 349.752 1274.54 349.992 1275.38 350.472C1276.22 350.936 1276.88 351.608 1277.34 352.488C1277.81 353.352 1278.04 354.408 1278.04 355.656V357.192H1269.45C1269.48 358.376 1269.81 359.296 1270.43 359.952C1271.06 360.592 1271.92 360.912 1273.02 360.912C1273.87 360.912 1274.62 360.832 1275.28 360.672C1275.95 360.496 1276.64 360.248 1277.34 359.928V362.352C1276.7 362.656 1276.04 362.88 1275.35 363.024C1274.66 363.168 1273.84 363.24 1272.88 363.24C1271.62 363.24 1270.49 363 1269.5 362.52C1268.52 362.024 1267.75 361.28 1267.19 360.288C1266.65 359.296 1266.38 358.064 1266.38 356.592C1266.38 355.104 1266.62 353.856 1267.12 352.848C1267.63 351.824 1268.34 351.056 1269.23 350.544C1270.13 350.016 1271.18 349.752 1272.38 349.752ZM1272.38 351.984C1271.58 351.984 1270.92 352.248 1270.41 352.776C1269.91 353.288 1269.62 354.056 1269.52 355.08H1275.11C1275.11 354.472 1275.01 353.936 1274.8 353.472C1274.61 353.008 1274.31 352.648 1273.91 352.392C1273.51 352.12 1273 351.984 1272.38 351.984ZM1287.9 349.752C1288.1 349.752 1288.32 349.76 1288.58 349.776C1288.83 349.792 1289.05 349.824 1289.22 349.872L1288.96 352.68C1288.82 352.648 1288.62 352.624 1288.38 352.608C1288.16 352.576 1287.96 352.56 1287.78 352.56C1287.3 352.56 1286.84 352.64 1286.39 352.8C1285.96 352.944 1285.57 353.168 1285.22 353.472C1284.88 353.76 1284.61 354.136 1284.4 354.6C1284.21 355.064 1284.11 355.616 1284.11 356.256V363H1281.09V349.992H1283.42L1283.85 352.248H1283.99C1284.25 351.784 1284.57 351.368 1284.95 351C1285.34 350.616 1285.78 350.312 1286.27 350.088C1286.78 349.864 1287.33 349.752 1287.9 349.752Z" fill="black"/>
<rect x="1" width="1583" height="121" fill="url(#paint0_linear_203_131)"/>
<path d="M741.292 51.824C740.116 51.824 739.072 52.04 738.16 52.472C737.248 52.904 736.468 53.528 735.82 54.344C735.196 55.16 734.716 56.144 734.38 57.296C734.068 58.448 733.912 59.744 733.912 61.184C733.912 63.128 734.176 64.796 734.704 66.188C735.232 67.556 736.036 68.612 737.116 69.356C738.22 70.1 739.6 70.472 741.256 70.472C742.36 70.472 743.416 70.364 744.424 70.148C745.456 69.908 746.536 69.596 747.664 69.212V73.136C746.608 73.568 745.54 73.88 744.46 74.072C743.404 74.264 742.18 74.36 740.788 74.36C738.148 74.36 735.964 73.82 734.236 72.74C732.508 71.636 731.224 70.1 730.384 68.132C729.544 66.14 729.124 63.812 729.124 61.148C729.124 59.204 729.388 57.428 729.916 55.82C730.468 54.212 731.248 52.82 732.256 51.644C733.288 50.468 734.56 49.556 736.072 48.908C737.584 48.26 739.324 47.936 741.292 47.936C742.588 47.936 743.86 48.092 745.108 48.404C746.38 48.692 747.568 49.1 748.672 49.628L747.088 53.408C746.176 53 745.228 52.64 744.244 52.328C743.284 51.992 742.3 51.824 741.292 51.824ZM757.304 53.156C757.304 53.924 757.268 54.68 757.196 55.424C757.148 56.144 757.1 56.684 757.052 57.044H757.34C757.748 56.372 758.252 55.832 758.852 55.424C759.452 54.992 760.112 54.668 760.832 54.452C761.576 54.236 762.344 54.128 763.136 54.128C764.6 54.128 765.86 54.38 766.916 54.884C767.972 55.388 768.776 56.168 769.328 57.224C769.904 58.256 770.192 59.612 770.192 61.292V74H765.656V62.192C765.656 60.704 765.368 59.6 764.792 58.88C764.216 58.16 763.304 57.8 762.056 57.8C760.856 57.8 759.908 58.064 759.212 58.592C758.516 59.096 758.024 59.852 757.736 60.86C757.448 61.844 757.304 63.056 757.304 64.496V74H752.768V46.64H757.304V53.156ZM783.641 54.128C786.161 54.128 788.069 54.68 789.365 55.784C790.685 56.864 791.345 58.568 791.345 60.896V74H788.141L787.241 71.3H787.097C786.545 71.996 785.969 72.584 785.369 73.064C784.793 73.52 784.121 73.844 783.353 74.036C782.609 74.252 781.697 74.36 780.617 74.36C779.465 74.36 778.421 74.144 777.485 73.712C776.573 73.28 775.853 72.62 775.325 71.732C774.797 70.82 774.533 69.68 774.533 68.312C774.533 66.296 775.265 64.784 776.729 63.776C778.217 62.744 780.461 62.18 783.461 62.084L786.845 61.976V61.004C786.845 59.756 786.545 58.868 785.945 58.34C785.345 57.812 784.505 57.548 783.425 57.548C782.441 57.548 781.493 57.692 780.581 57.98C779.669 58.268 778.781 58.604 777.917 58.988L776.477 55.82C777.437 55.316 778.529 54.908 779.753 54.596C781.001 54.284 782.297 54.128 783.641 54.128ZM784.469 64.856C782.477 64.928 781.097 65.276 780.329 65.9C779.561 66.5 779.177 67.316 779.177 68.348C779.177 69.26 779.453 69.92 780.005 70.328C780.557 70.736 781.265 70.94 782.129 70.94C783.449 70.94 784.565 70.568 785.477 69.824C786.389 69.056 786.845 67.928 786.845 66.44V64.784L784.469 64.856ZM810.313 68.348C810.313 69.644 810.001 70.748 809.377 71.66C808.753 72.548 807.829 73.22 806.605 73.676C805.405 74.132 803.929 74.36 802.177 74.36C800.809 74.36 799.633 74.264 798.649 74.072C797.665 73.88 796.729 73.58 795.841 73.172V69.32C796.801 69.776 797.869 70.16 799.045 70.472C800.221 70.784 801.313 70.94 802.321 70.94C803.569 70.94 804.469 70.748 805.021 70.364C805.573 69.98 805.849 69.464 805.849 68.816C805.849 68.432 805.741 68.084 805.525 67.772C805.309 67.46 804.889 67.136 804.265 66.8C803.641 66.44 802.693 65.996 801.421 65.468C800.173 64.964 799.129 64.46 798.289 63.956C797.473 63.452 796.849 62.852 796.417 62.156C796.009 61.436 795.805 60.536 795.805 59.456C795.805 57.704 796.501 56.384 797.893 55.496C799.285 54.584 801.121 54.128 803.401 54.128C804.601 54.128 805.729 54.248 806.785 54.488C807.865 54.704 808.945 55.064 810.025 55.568L808.585 58.916C807.985 58.652 807.385 58.424 806.785 58.232C806.209 58.016 805.621 57.848 805.021 57.728C804.445 57.608 803.857 57.548 803.257 57.548C802.273 57.548 801.529 57.704 801.025 58.016C800.521 58.304 800.269 58.712 800.269 59.24C800.269 59.648 800.389 60.008 800.629 60.32C800.893 60.608 801.337 60.908 801.961 61.22C802.609 61.508 803.521 61.892 804.697 62.372C805.873 62.828 806.869 63.308 807.685 63.812C808.525 64.292 809.173 64.892 809.629 65.612C810.085 66.332 810.313 67.244 810.313 68.348ZM827.962 68.348C827.962 69.644 827.65 70.748 827.026 71.66C826.402 72.548 825.478 73.22 824.254 73.676C823.054 74.132 821.578 74.36 819.826 74.36C818.458 74.36 817.282 74.264 816.298 74.072C815.314 73.88 814.378 73.58 813.49 73.172V69.32C814.45 69.776 815.518 70.16 816.694 70.472C817.87 70.784 818.962 70.94 819.97 70.94C821.218 70.94 822.118 70.748 822.67 70.364C823.222 69.98 823.498 69.464 823.498 68.816C823.498 68.432 823.39 68.084 823.174 67.772C822.958 67.46 822.538 67.136 821.914 66.8C821.29 66.44 820.342 65.996 819.07 65.468C817.822 64.964 816.778 64.46 815.938 63.956C815.122 63.452 814.498 62.852 814.066 62.156C813.658 61.436 813.454 60.536 813.454 59.456C813.454 57.704 814.15 56.384 815.542 55.496C816.934 54.584 818.77 54.128 821.05 54.128C822.25 54.128 823.378 54.248 824.434 54.488C825.514 54.704 826.594 55.064 827.674 55.568L826.234 58.916C825.634 58.652 825.034 58.424 824.434 58.232C823.858 58.016 823.27 57.848 822.67 57.728C822.094 57.608 821.506 57.548 820.906 57.548C819.922 57.548 819.178 57.704 818.674 58.016C818.17 58.304 817.918 58.712 817.918 59.24C817.918 59.648 818.038 60.008 818.278 60.32C818.542 60.608 818.986 60.908 819.61 61.22C820.258 61.508 821.17 61.892 822.346 62.372C823.522 62.828 824.518 63.308 825.334 63.812C826.174 64.292 826.822 64.892 827.278 65.612C827.734 66.332 827.962 67.244 827.962 68.348ZM836.862 54.488V74H832.326V54.488H836.862ZM834.594 46.964C835.266 46.964 835.854 47.144 836.358 47.504C836.862 47.84 837.114 48.452 837.114 49.34C837.114 50.204 836.862 50.828 836.358 51.212C835.854 51.572 835.266 51.752 834.594 51.752C833.898 51.752 833.298 51.572 832.794 51.212C832.314 50.828 832.074 50.204 832.074 49.34C832.074 48.452 832.314 47.84 832.794 47.504C833.298 47.144 833.898 46.964 834.594 46.964ZM855.946 68.348C855.946 69.644 855.634 70.748 855.01 71.66C854.386 72.548 853.462 73.22 852.238 73.676C851.038 74.132 849.562 74.36 847.81 74.36C846.442 74.36 845.266 74.264 844.282 74.072C843.298 73.88 842.362 73.58 841.474 73.172V69.32C842.434 69.776 843.502 70.16 844.678 70.472C845.854 70.784 846.946 70.94 847.954 70.94C849.202 70.94 850.102 70.748 850.654 70.364C851.206 69.98 851.482 69.464 851.482 68.816C851.482 68.432 851.374 68.084 851.158 67.772C850.942 67.46 850.522 67.136 849.898 66.8C849.274 66.44 848.326 65.996 847.054 65.468C845.806 64.964 844.762 64.46 843.922 63.956C843.106 63.452 842.482 62.852 842.05 62.156C841.642 61.436 841.438 60.536 841.438 59.456C841.438 57.704 842.134 56.384 843.526 55.496C844.918 54.584 846.754 54.128 849.034 54.128C850.234 54.128 851.362 54.248 852.418 54.488C853.498 54.704 854.578 55.064 855.658 55.568L854.218 58.916C853.618 58.652 853.018 58.424 852.418 58.232C851.842 58.016 851.254 57.848 850.654 57.728C850.078 57.608 849.49 57.548 848.89 57.548C847.906 57.548 847.162 57.704 846.658 58.016C846.154 58.304 845.902 58.712 845.902 59.24C845.902 59.648 846.022 60.008 846.262 60.32C846.526 60.608 846.97 60.908 847.594 61.22C848.242 61.508 849.154 61.892 850.33 62.372C851.506 62.828 852.502 63.308 853.318 63.812C854.158 64.292 854.806 64.892 855.262 65.612C855.718 66.332 855.946 67.244 855.946 68.348Z" fill="white"/>
<path d="M376.061 119.939C375.475 119.354 374.525 119.354 373.939 119.939L364.393 129.485C363.808 130.071 363.808 131.021 364.393 131.607C364.979 132.192 365.929 132.192 366.515 131.607L375 123.121L383.485 131.607C384.071 132.192 385.021 132.192 385.607 131.607C386.192 131.021 386.192 130.071 385.607 129.485L376.061 119.939ZM373.5 121L373.5 196L376.5 196L376.5 121L373.5 121Z" fill="black"/>
<path d="M1211.06 119.939C1210.47 119.354 1209.53 119.354 1208.94 119.939L1199.39 129.485C1198.81 130.071 1198.81 131.021 1199.39 131.607C1199.98 132.192 1200.93 132.192 1201.51 131.607L1210 123.121L1218.49 131.607C1219.07 132.192 1220.02 132.192 1220.61 131.607C1221.19 131.021 1221.19 130.071 1220.61 129.485L1211.06 119.939ZM1208.5 121L1208.5 196L1211.5 196L1211.5 121L1208.5 121Z" fill="black"/>
<defs>
<linearGradient id="paint0_linear_203_131" x1="1" y1="121" x2="1584" y2="121" gradientUnits="userSpaceOnUse">
<stop stop-color="#3ACBDF"/>
<stop offset="1" stop-color="#B96CAD"/>
</linearGradient>
</defs>
</svg>
