<svg width="749" height="259" viewBox="0 0 749 259" fill="none" xmlns="http://www.w3.org/2000/svg">
<rect y="33" width="749" height="226" fill="#BDE9F3"/>
<path d="M10.6 26L5.896 11.96H5.8C5.816 12.28 5.84 12.736 5.872 13.328C5.904 13.904 5.928 14.536 5.944 15.224C5.976 15.896 5.992 16.528 5.992 17.12V26H3.232V8.864H7.504L12.016 22.328H12.112L16.816 8.864H21.088V26H18.16V16.976C18.16 16.432 18.168 15.84 18.184 15.2C18.216 14.544 18.24 13.928 18.256 13.352C18.288 12.76 18.312 12.304 18.328 11.984H18.232L13.336 26H10.6ZM36.8491 19.472C36.8491 20.56 36.7051 21.52 36.4171 22.352C36.1291 23.184 35.7131 23.896 35.1691 24.488C34.6411 25.064 33.9851 25.504 33.2011 25.808C32.4331 26.096 31.5771 26.24 30.6331 26.24C29.7371 26.24 28.9131 26.096 28.1611 25.808C27.4091 25.504 26.7531 25.064 26.1931 24.488C25.6491 23.896 25.2251 23.184 24.9211 22.352C24.6171 21.52 24.4651 20.56 24.4651 19.472C24.4651 18.032 24.7131 16.816 25.2091 15.824C25.7051 14.816 26.4171 14.056 27.3451 13.544C28.2891 13.016 29.4011 12.752 30.6811 12.752C31.8971 12.752 32.9611 13.016 33.8731 13.544C34.8011 14.056 35.5291 14.816 36.0571 15.824C36.5851 16.816 36.8491 18.032 36.8491 19.472ZM27.5611 19.472C27.5611 20.384 27.6651 21.168 27.8731 21.824C28.0971 22.464 28.4331 22.952 28.8811 23.288C29.3451 23.624 29.9371 23.792 30.6571 23.792C31.3931 23.792 31.9851 23.624 32.4331 23.288C32.8971 22.952 33.2331 22.464 33.4411 21.824C33.6491 21.168 33.7531 20.384 33.7531 19.472C33.7531 18.544 33.6411 17.768 33.4171 17.144C33.2091 16.504 32.8731 16.024 32.4091 15.704C31.9611 15.368 31.3771 15.2 30.6571 15.2C29.5691 15.2 28.7771 15.568 28.2811 16.304C27.8011 17.04 27.5611 18.096 27.5611 19.472ZM44.2713 26.24C42.7673 26.24 41.5433 25.68 40.5993 24.56C39.6713 23.424 39.2073 21.744 39.2073 19.52C39.2073 17.296 39.6793 15.616 40.6233 14.48C41.5673 13.328 42.8073 12.752 44.3433 12.752C44.9833 12.752 45.5433 12.84 46.0233 13.016C46.5193 13.176 46.9433 13.4 47.2953 13.688C47.6473 13.976 47.9433 14.296 48.1833 14.648H48.3273C48.2793 14.424 48.2313 14.08 48.1833 13.616C48.1353 13.152 48.1113 12.72 48.1113 12.32V7.76H51.1353V26H48.7833L48.2313 24.296H48.1113C47.8713 24.648 47.5753 24.976 47.2233 25.28C46.8713 25.568 46.4553 25.8 45.9753 25.976C45.4953 26.152 44.9273 26.24 44.2713 26.24ZM45.1833 23.792C46.3033 23.792 47.0953 23.472 47.5593 22.832C48.0233 22.192 48.2553 21.224 48.2553 19.928V19.544C48.2553 18.136 48.0313 17.064 47.5833 16.328C47.1513 15.592 46.3353 15.224 45.1353 15.224C44.2233 15.224 43.5193 15.608 43.0233 16.376C42.5273 17.128 42.2793 18.192 42.2793 19.568C42.2793 20.944 42.5273 21.992 43.0233 22.712C43.5193 23.432 44.2393 23.792 45.1833 23.792ZM66.5427 12.992V26H64.1667L63.7587 24.32H63.6147C63.3427 24.768 62.9907 25.136 62.5587 25.424C62.1267 25.696 61.6547 25.896 61.1427 26.024C60.6307 26.168 60.1027 26.24 59.5587 26.24C58.5987 26.24 57.7667 26.072 57.0627 25.736C56.3587 25.4 55.8227 24.888 55.4547 24.2C55.0867 23.496 54.9027 22.592 54.9027 21.488V12.992H57.9267V20.888C57.9267 21.848 58.1187 22.576 58.5027 23.072C58.8867 23.552 59.4947 23.792 60.3267 23.792C61.1427 23.792 61.7827 23.624 62.2467 23.288C62.7107 22.936 63.0387 22.432 63.2307 21.776C63.4227 21.12 63.5187 20.312 63.5187 19.352V12.992H66.5427ZM73.4211 26H70.3971V7.76H73.4211V26ZM82.5198 12.752C83.6878 12.752 84.6878 12.992 85.5198 13.472C86.3678 13.936 87.0238 14.608 87.4878 15.488C87.9518 16.352 88.1838 17.408 88.1838 18.656V20.192H79.5918C79.6238 21.376 79.9518 22.296 80.5758 22.952C81.1998 23.592 82.0638 23.912 83.1678 23.912C84.0158 23.912 84.7678 23.832 85.4238 23.672C86.0958 23.496 86.7838 23.248 87.4878 22.928V25.352C86.8478 25.656 86.1838 25.88 85.4958 26.024C84.8078 26.168 83.9838 26.24 83.0238 26.24C81.7598 26.24 80.6318 26 79.6398 25.52C78.6638 25.024 77.8958 24.28 77.3358 23.288C76.7918 22.296 76.5198 21.064 76.5198 19.592C76.5198 18.104 76.7678 16.856 77.2638 15.848C77.7758 14.824 78.4798 14.056 79.3758 13.544C80.2718 13.016 81.3198 12.752 82.5198 12.752ZM82.5198 14.984C81.7198 14.984 81.0638 15.248 80.5518 15.776C80.0558 16.288 79.7598 17.056 79.6638 18.08H85.2558C85.2558 17.472 85.1518 16.936 84.9438 16.472C84.7518 16.008 84.4558 15.648 84.0558 15.392C83.6558 15.12 83.1438 14.984 82.5198 14.984Z" fill="black"/>
<rect x="37" y="67" width="676" height="70" fill="#6ABFEE"/>
<path d="M310.451 103.264C310.451 105.184 310.083 106.792 309.347 108.088C308.627 109.384 307.579 110.36 306.203 111.016C304.843 111.672 303.195 112 301.259 112H296.435V94.864H301.763C303.539 94.864 305.075 95.184 306.371 95.824C307.667 96.464 308.667 97.408 309.371 98.656C310.091 99.888 310.451 101.424 310.451 103.264ZM307.235 103.36C307.235 102 307.027 100.88 306.611 100C306.195 99.12 305.579 98.472 304.763 98.056C303.947 97.624 302.947 97.408 301.763 97.408H299.507V109.432H301.355C303.339 109.432 304.811 108.928 305.771 107.92C306.747 106.896 307.235 105.376 307.235 103.36ZM319.003 98.752C320.683 98.752 321.955 99.12 322.819 99.856C323.699 100.576 324.139 101.712 324.139 103.264V112H322.003L321.403 110.2H321.307C320.939 110.664 320.555 111.056 320.155 111.376C319.771 111.68 319.323 111.896 318.811 112.024C318.315 112.168 317.707 112.24 316.987 112.24C316.219 112.24 315.523 112.096 314.899 111.808C314.291 111.52 313.811 111.08 313.459 110.488C313.107 109.88 312.931 109.12 312.931 108.208C312.931 106.864 313.419 105.856 314.395 105.184C315.387 104.496 316.883 104.12 318.883 104.056L321.139 103.984V103.336C321.139 102.504 320.939 101.912 320.539 101.56C320.139 101.208 319.579 101.032 318.859 101.032C318.203 101.032 317.571 101.128 316.963 101.32C316.355 101.512 315.763 101.736 315.187 101.992L314.227 99.88C314.867 99.544 315.595 99.272 316.411 99.064C317.243 98.856 318.107 98.752 319.003 98.752ZM319.555 105.904C318.227 105.952 317.307 106.184 316.795 106.6C316.283 107 316.027 107.544 316.027 108.232C316.027 108.84 316.211 109.28 316.579 109.552C316.947 109.824 317.419 109.96 317.995 109.96C318.875 109.96 319.619 109.712 320.227 109.216C320.835 108.704 321.139 107.952 321.139 106.96V105.856L319.555 105.904ZM332.968 109.816C333.352 109.816 333.72 109.784 334.072 109.72C334.424 109.64 334.752 109.552 335.056 109.456V111.712C334.736 111.856 334.32 111.976 333.808 112.072C333.296 112.184 332.76 112.24 332.2 112.24C331.464 112.24 330.792 112.12 330.184 111.88C329.592 111.624 329.112 111.192 328.744 110.584C328.392 109.976 328.216 109.128 328.216 108.04V101.272H326.464V99.952L328.384 98.896L329.344 96.136H331.24V98.992H334.936V101.272H331.24V108.016C331.24 108.624 331.4 109.08 331.72 109.384C332.04 109.672 332.456 109.816 332.968 109.816ZM342.862 98.752C344.542 98.752 345.814 99.12 346.678 99.856C347.558 100.576 347.998 101.712 347.998 103.264V112H345.862L345.262 110.2H345.166C344.798 110.664 344.414 111.056 344.014 111.376C343.63 111.68 343.182 111.896 342.67 112.024C342.174 112.168 341.566 112.24 340.846 112.24C340.078 112.24 339.382 112.096 338.758 111.808C338.15 111.52 337.67 111.08 337.318 110.488C336.966 109.88 336.79 109.12 336.79 108.208C336.79 106.864 337.278 105.856 338.254 105.184C339.246 104.496 340.742 104.12 342.742 104.056L344.998 103.984V103.336C344.998 102.504 344.798 101.912 344.398 101.56C343.998 101.208 343.438 101.032 342.718 101.032C342.062 101.032 341.43 101.128 340.822 101.32C340.214 101.512 339.622 101.736 339.046 101.992L338.086 99.88C338.726 99.544 339.454 99.272 340.27 99.064C341.102 98.856 341.966 98.752 342.862 98.752ZM343.414 105.904C342.086 105.952 341.166 106.184 340.654 106.6C340.142 107 339.886 107.544 339.886 108.232C339.886 108.84 340.07 109.28 340.438 109.552C340.806 109.824 341.278 109.96 341.854 109.96C342.734 109.96 343.478 109.712 344.086 109.216C344.694 108.704 344.998 107.952 344.998 106.96V105.856L343.414 105.904ZM363.422 94.864C365.646 94.864 367.262 95.328 368.27 96.256C369.294 97.184 369.806 98.464 369.806 100.096C369.806 100.832 369.694 101.536 369.47 102.208C369.246 102.864 368.87 103.456 368.342 103.984C367.814 104.512 367.118 104.928 366.254 105.232C365.406 105.536 364.35 105.688 363.086 105.688H361.382V112H358.31V94.864H363.422ZM363.23 97.408H361.382V103.144H362.774C363.606 103.144 364.31 103.048 364.886 102.856C365.478 102.648 365.926 102.328 366.23 101.896C366.534 101.464 366.686 100.904 366.686 100.216C366.686 99.272 366.406 98.568 365.846 98.104C365.286 97.64 364.414 97.408 363.23 97.408ZM379.698 98.752C379.89 98.752 380.114 98.76 380.37 98.776C380.626 98.792 380.842 98.824 381.018 98.872L380.754 101.68C380.61 101.648 380.418 101.624 380.178 101.608C379.954 101.576 379.754 101.56 379.578 101.56C379.098 101.56 378.634 101.64 378.186 101.8C377.754 101.944 377.362 102.168 377.01 102.472C376.674 102.76 376.402 103.136 376.194 103.6C376.002 104.064 375.906 104.616 375.906 105.256V112H372.882V98.992H375.21L375.642 101.248H375.786C376.042 100.784 376.362 100.368 376.746 100C377.13 99.616 377.57 99.312 378.066 99.088C378.578 98.864 379.122 98.752 379.698 98.752ZM394.576 105.472C394.576 106.56 394.432 107.52 394.144 108.352C393.856 109.184 393.44 109.896 392.896 110.488C392.368 111.064 391.712 111.504 390.928 111.808C390.16 112.096 389.304 112.24 388.36 112.24C387.464 112.24 386.64 112.096 385.888 111.808C385.136 111.504 384.48 111.064 383.92 110.488C383.376 109.896 382.952 109.184 382.648 108.352C382.344 107.52 382.192 106.56 382.192 105.472C382.192 104.032 382.44 102.816 382.936 101.824C383.432 100.816 384.144 100.056 385.072 99.544C386.016 99.016 387.128 98.752 388.408 98.752C389.624 98.752 390.688 99.016 391.6 99.544C392.528 100.056 393.256 100.816 393.784 101.824C394.312 102.816 394.576 104.032 394.576 105.472ZM385.288 105.472C385.288 106.384 385.392 107.168 385.6 107.824C385.824 108.464 386.16 108.952 386.608 109.288C387.072 109.624 387.664 109.792 388.384 109.792C389.12 109.792 389.712 109.624 390.16 109.288C390.624 108.952 390.96 108.464 391.168 107.824C391.376 107.168 391.48 106.384 391.48 105.472C391.48 104.544 391.368 103.768 391.144 103.144C390.936 102.504 390.6 102.024 390.136 101.704C389.688 101.368 389.104 101.2 388.384 101.2C387.296 101.2 386.504 101.568 386.008 102.304C385.528 103.04 385.288 104.096 385.288 105.472ZM400.233 112L395.289 98.992H398.481L401.073 106.504C401.185 106.808 401.289 107.144 401.385 107.512C401.481 107.864 401.561 108.216 401.625 108.568C401.705 108.904 401.753 109.2 401.769 109.456H401.865C401.897 109.184 401.953 108.88 402.033 108.544C402.113 108.192 402.201 107.84 402.297 107.488C402.409 107.136 402.513 106.808 402.609 106.504L405.201 98.992H408.393L403.449 112H400.233ZM413.359 98.992V112H410.335V98.992H413.359ZM411.847 93.976C412.295 93.976 412.687 94.096 413.023 94.336C413.359 94.56 413.527 94.968 413.527 95.56C413.527 96.136 413.359 96.552 413.023 96.808C412.687 97.048 412.295 97.168 411.847 97.168C411.383 97.168 410.983 97.048 410.647 96.808C410.327 96.552 410.167 96.136 410.167 95.56C410.167 94.968 410.327 94.56 410.647 94.336C410.983 94.096 411.383 93.976 411.847 93.976ZM421.521 112.24C420.017 112.24 418.793 111.68 417.849 110.56C416.921 109.424 416.457 107.744 416.457 105.52C416.457 103.296 416.929 101.616 417.873 100.48C418.817 99.328 420.057 98.752 421.593 98.752C422.233 98.752 422.793 98.84 423.273 99.016C423.769 99.176 424.193 99.4 424.545 99.688C424.897 99.976 425.193 100.296 425.433 100.648H425.577C425.529 100.424 425.481 100.08 425.433 99.616C425.385 99.152 425.361 98.72 425.361 98.32V93.76H428.385V112H426.033L425.481 110.296H425.361C425.121 110.648 424.825 110.976 424.473 111.28C424.121 111.568 423.705 111.8 423.225 111.976C422.745 112.152 422.177 112.24 421.521 112.24ZM422.433 109.792C423.553 109.792 424.345 109.472 424.809 108.832C425.273 108.192 425.505 107.224 425.505 105.928V105.544C425.505 104.136 425.281 103.064 424.833 102.328C424.401 101.592 423.585 101.224 422.385 101.224C421.473 101.224 420.769 101.608 420.273 102.376C419.777 103.128 419.529 104.192 419.529 105.568C419.529 106.944 419.777 107.992 420.273 108.712C420.769 109.432 421.489 109.792 422.433 109.792ZM437.481 98.752C438.649 98.752 439.649 98.992 440.481 99.472C441.329 99.936 441.985 100.608 442.449 101.488C442.913 102.352 443.145 103.408 443.145 104.656V106.192H434.553C434.585 107.376 434.913 108.296 435.537 108.952C436.161 109.592 437.025 109.912 438.129 109.912C438.977 109.912 439.729 109.832 440.385 109.672C441.057 109.496 441.745 109.248 442.449 108.928V111.352C441.809 111.656 441.145 111.88 440.457 112.024C439.769 112.168 438.945 112.24 437.985 112.24C436.721 112.24 435.593 112 434.601 111.52C433.625 111.024 432.857 110.28 432.297 109.288C431.753 108.296 431.481 107.064 431.481 105.592C431.481 104.104 431.729 102.856 432.225 101.848C432.737 100.824 433.441 100.056 434.337 99.544C435.233 99.016 436.281 98.752 437.481 98.752ZM437.481 100.984C436.681 100.984 436.025 101.248 435.513 101.776C435.017 102.288 434.721 103.056 434.625 104.08H440.217C440.217 103.472 440.113 102.936 439.905 102.472C439.713 102.008 439.417 101.648 439.017 101.392C438.617 101.12 438.105 100.984 437.481 100.984ZM453.01 98.752C453.202 98.752 453.426 98.76 453.682 98.776C453.938 98.792 454.154 98.824 454.33 98.872L454.066 101.68C453.922 101.648 453.73 101.624 453.49 101.608C453.266 101.576 453.066 101.56 452.89 101.56C452.41 101.56 451.946 101.64 451.498 101.8C451.066 101.944 450.674 102.168 450.322 102.472C449.986 102.76 449.714 103.136 449.506 103.6C449.314 104.064 449.218 104.616 449.218 105.256V112H446.194V98.992H448.522L448.954 101.248H449.098C449.354 100.784 449.674 100.368 450.058 100C450.442 99.616 450.882 99.312 451.378 99.088C451.89 98.864 452.434 98.752 453.01 98.752Z" fill="black"/>
<rect x="37" y="155" width="676" height="70" fill="#6ABFEE"/>
<path d="M309.453 182.864L303.525 200H300.237L294.309 182.864H297.453L300.909 193.352C301.021 193.64 301.133 194.016 301.245 194.48C301.373 194.928 301.493 195.392 301.605 195.872C301.733 196.336 301.829 196.752 301.893 197.12C301.941 196.752 302.021 196.336 302.133 195.872C302.261 195.392 302.389 194.928 302.517 194.48C302.645 194.016 302.757 193.64 302.853 193.352L306.309 182.864H309.453ZM314.417 186.992V200H311.393V186.992H314.417ZM312.905 181.976C313.353 181.976 313.745 182.096 314.081 182.336C314.417 182.56 314.585 182.968 314.585 183.56C314.585 184.136 314.417 184.552 314.081 184.808C313.745 185.048 313.353 185.168 312.905 185.168C312.441 185.168 312.041 185.048 311.705 184.808C311.385 184.552 311.225 184.136 311.225 183.56C311.225 182.968 311.385 182.56 311.705 182.336C312.041 182.096 312.441 181.976 312.905 181.976ZM323.516 186.752C324.684 186.752 325.684 186.992 326.516 187.472C327.364 187.936 328.02 188.608 328.484 189.488C328.948 190.352 329.18 191.408 329.18 192.656V194.192H320.588C320.62 195.376 320.948 196.296 321.572 196.952C322.196 197.592 323.06 197.912 324.164 197.912C325.012 197.912 325.764 197.832 326.42 197.672C327.092 197.496 327.78 197.248 328.484 196.928V199.352C327.844 199.656 327.18 199.88 326.492 200.024C325.804 200.168 324.98 200.24 324.02 200.24C322.756 200.24 321.628 200 320.636 199.52C319.66 199.024 318.892 198.28 318.332 197.288C317.788 196.296 317.516 195.064 317.516 193.592C317.516 192.104 317.764 190.856 318.26 189.848C318.772 188.824 319.476 188.056 320.372 187.544C321.268 187.016 322.316 186.752 323.516 186.752ZM323.516 188.984C322.716 188.984 322.06 189.248 321.548 189.776C321.052 190.288 320.756 191.056 320.66 192.08H326.252C326.252 191.472 326.148 190.936 325.94 190.472C325.748 190.008 325.452 189.648 325.052 189.392C324.652 189.12 324.14 188.984 323.516 188.984ZM340.976 194.408C340.896 194.104 340.8 193.728 340.688 193.28C340.576 192.816 340.456 192.336 340.328 191.84C340.216 191.344 340.104 190.888 339.992 190.472C339.896 190.056 339.832 189.736 339.8 189.512H339.704C339.656 189.736 339.584 190.056 339.488 190.472C339.392 190.888 339.288 191.344 339.176 191.84C339.064 192.336 338.944 192.816 338.816 193.28C338.704 193.744 338.608 194.128 338.528 194.432L337.016 200H333.704L330.056 186.968H333.104L334.712 193.184C334.824 193.6 334.928 194.072 335.024 194.6C335.136 195.128 335.232 195.64 335.312 196.136C335.392 196.616 335.448 197.008 335.48 197.312H335.576C335.608 197.104 335.648 196.832 335.696 196.496C335.744 196.144 335.8 195.784 335.864 195.416C335.944 195.032 336.016 194.68 336.08 194.36C336.16 194.04 336.224 193.792 336.272 193.616L338.144 186.968H341.456L343.256 193.616C343.336 193.904 343.424 194.28 343.52 194.744C343.616 195.208 343.704 195.672 343.784 196.136C343.864 196.6 343.912 196.984 343.928 197.288H344.024C344.056 197.016 344.112 196.648 344.192 196.184C344.272 195.704 344.368 195.192 344.48 194.648C344.592 194.104 344.712 193.616 344.84 193.184L346.472 186.968H349.472L345.776 200H342.416L340.976 194.408ZM363.317 182.864C365.541 182.864 367.157 183.328 368.165 184.256C369.189 185.184 369.701 186.464 369.701 188.096C369.701 188.832 369.589 189.536 369.365 190.208C369.141 190.864 368.765 191.456 368.237 191.984C367.709 192.512 367.013 192.928 366.149 193.232C365.301 193.536 364.245 193.688 362.981 193.688H361.277V200H358.205V182.864H363.317ZM363.125 185.408H361.277V191.144H362.669C363.501 191.144 364.205 191.048 364.781 190.856C365.373 190.648 365.821 190.328 366.125 189.896C366.429 189.464 366.581 188.904 366.581 188.216C366.581 187.272 366.301 186.568 365.741 186.104C365.181 185.64 364.309 185.408 363.125 185.408ZM379.592 186.752C379.784 186.752 380.008 186.76 380.264 186.776C380.52 186.792 380.736 186.824 380.912 186.872L380.648 189.68C380.504 189.648 380.312 189.624 380.072 189.608C379.848 189.576 379.648 189.56 379.472 189.56C378.992 189.56 378.528 189.64 378.08 189.8C377.648 189.944 377.256 190.168 376.904 190.472C376.568 190.76 376.296 191.136 376.088 191.6C375.896 192.064 375.8 192.616 375.8 193.256V200H372.776V186.992H375.104L375.536 189.248H375.68C375.936 188.784 376.256 188.368 376.64 188C377.024 187.616 377.464 187.312 377.96 187.088C378.472 186.864 379.016 186.752 379.592 186.752ZM394.47 193.472C394.47 194.56 394.326 195.52 394.038 196.352C393.75 197.184 393.334 197.896 392.79 198.488C392.262 199.064 391.606 199.504 390.822 199.808C390.054 200.096 389.198 200.24 388.254 200.24C387.358 200.24 386.534 200.096 385.782 199.808C385.03 199.504 384.374 199.064 383.814 198.488C383.27 197.896 382.846 197.184 382.542 196.352C382.238 195.52 382.086 194.56 382.086 193.472C382.086 192.032 382.334 190.816 382.83 189.824C383.326 188.816 384.038 188.056 384.966 187.544C385.91 187.016 387.022 186.752 388.302 186.752C389.518 186.752 390.582 187.016 391.494 187.544C392.422 188.056 393.15 188.816 393.678 189.824C394.206 190.816 394.47 192.032 394.47 193.472ZM385.182 193.472C385.182 194.384 385.286 195.168 385.494 195.824C385.718 196.464 386.054 196.952 386.502 197.288C386.966 197.624 387.558 197.792 388.278 197.792C389.014 197.792 389.606 197.624 390.054 197.288C390.518 196.952 390.854 196.464 391.062 195.824C391.27 195.168 391.374 194.384 391.374 193.472C391.374 192.544 391.262 191.768 391.038 191.144C390.83 190.504 390.494 190.024 390.03 189.704C389.582 189.368 388.998 189.2 388.278 189.2C387.19 189.2 386.398 189.568 385.902 190.304C385.422 191.04 385.182 192.096 385.182 193.472ZM400.128 200L395.184 186.992H398.376L400.968 194.504C401.08 194.808 401.184 195.144 401.28 195.512C401.376 195.864 401.456 196.216 401.52 196.568C401.6 196.904 401.648 197.2 401.664 197.456H401.76C401.792 197.184 401.848 196.88 401.928 196.544C402.008 196.192 402.096 195.84 402.192 195.488C402.304 195.136 402.408 194.808 402.504 194.504L405.096 186.992H408.288L403.344 200H400.128ZM413.253 186.992V200H410.229V186.992H413.253ZM411.741 181.976C412.189 181.976 412.581 182.096 412.917 182.336C413.253 182.56 413.421 182.968 413.421 183.56C413.421 184.136 413.253 184.552 412.917 184.808C412.581 185.048 412.189 185.168 411.741 185.168C411.277 185.168 410.877 185.048 410.541 184.808C410.221 184.552 410.061 184.136 410.061 183.56C410.061 182.968 410.221 182.56 410.541 182.336C410.877 182.096 411.277 181.976 411.741 181.976ZM421.416 200.24C419.912 200.24 418.688 199.68 417.744 198.56C416.816 197.424 416.352 195.744 416.352 193.52C416.352 191.296 416.824 189.616 417.768 188.48C418.712 187.328 419.952 186.752 421.488 186.752C422.128 186.752 422.688 186.84 423.168 187.016C423.664 187.176 424.088 187.4 424.44 187.688C424.792 187.976 425.088 188.296 425.328 188.648H425.472C425.424 188.424 425.376 188.08 425.328 187.616C425.28 187.152 425.256 186.72 425.256 186.32V181.76H428.28V200H425.928L425.376 198.296H425.256C425.016 198.648 424.72 198.976 424.368 199.28C424.016 199.568 423.6 199.8 423.12 199.976C422.64 200.152 422.072 200.24 421.416 200.24ZM422.328 197.792C423.448 197.792 424.24 197.472 424.704 196.832C425.168 196.192 425.4 195.224 425.4 193.928V193.544C425.4 192.136 425.176 191.064 424.728 190.328C424.296 189.592 423.48 189.224 422.28 189.224C421.368 189.224 420.664 189.608 420.168 190.376C419.672 191.128 419.424 192.192 419.424 193.568C419.424 194.944 419.672 195.992 420.168 196.712C420.664 197.432 421.384 197.792 422.328 197.792ZM437.375 186.752C438.543 186.752 439.543 186.992 440.375 187.472C441.223 187.936 441.879 188.608 442.343 189.488C442.807 190.352 443.039 191.408 443.039 192.656V194.192H434.447C434.479 195.376 434.807 196.296 435.431 196.952C436.055 197.592 436.919 197.912 438.023 197.912C438.871 197.912 439.623 197.832 440.279 197.672C440.951 197.496 441.639 197.248 442.343 196.928V199.352C441.703 199.656 441.039 199.88 440.351 200.024C439.663 200.168 438.839 200.24 437.879 200.24C436.615 200.24 435.487 200 434.495 199.52C433.519 199.024 432.751 198.28 432.191 197.288C431.647 196.296 431.375 195.064 431.375 193.592C431.375 192.104 431.623 190.856 432.119 189.848C432.631 188.824 433.335 188.056 434.231 187.544C435.127 187.016 436.175 186.752 437.375 186.752ZM437.375 188.984C436.575 188.984 435.919 189.248 435.407 189.776C434.911 190.288 434.615 191.056 434.519 192.08H440.111C440.111 191.472 440.007 190.936 439.799 190.472C439.607 190.008 439.311 189.648 438.911 189.392C438.511 189.12 437.999 188.984 437.375 188.984ZM452.905 186.752C453.097 186.752 453.321 186.76 453.577 186.776C453.833 186.792 454.049 186.824 454.225 186.872L453.961 189.68C453.817 189.648 453.625 189.624 453.385 189.608C453.161 189.576 452.961 189.56 452.785 189.56C452.305 189.56 451.841 189.64 451.393 189.8C450.961 189.944 450.569 190.168 450.217 190.472C449.881 190.76 449.609 191.136 449.401 191.6C449.209 192.064 449.113 192.616 449.113 193.256V200H446.089V186.992H448.417L448.849 189.248H448.993C449.249 188.784 449.569 188.368 449.953 188C450.337 187.616 450.777 187.312 451.273 187.088C451.785 186.864 452.329 186.752 452.905 186.752Z" fill="black"/>
</svg>
