<svg width="676" height="402" viewBox="0 0 676 402" fill="none" xmlns="http://www.w3.org/2000/svg">
<rect y="33" width="676" height="369" fill="#6ABFEE"/>
<path d="M7.344 8.864C9.568 8.864 11.184 9.328 12.192 10.256C13.216 11.184 13.728 12.464 13.728 14.096C13.728 14.832 13.616 15.536 13.392 16.208C13.168 16.864 12.792 17.456 12.264 17.984C11.736 18.512 11.04 18.928 10.176 19.232C9.328 19.536 8.272 19.688 7.008 19.688H5.304V26H2.232V8.864H7.344ZM7.152 11.408H5.304V17.144H6.696C7.528 17.144 8.232 17.048 8.808 16.856C9.4 16.648 9.848 16.328 10.152 15.896C10.456 15.464 10.608 14.904 10.608 14.216C10.608 13.272 10.328 12.568 9.768 12.104C9.208 11.64 8.336 11.408 7.152 11.408ZM23.6194 12.752C23.8114 12.752 24.0354 12.76 24.2914 12.776C24.5474 12.792 24.7634 12.824 24.9394 12.872L24.6754 15.68C24.5314 15.648 24.3394 15.624 24.0994 15.608C23.8754 15.576 23.6754 15.56 23.4994 15.56C23.0194 15.56 22.5554 15.64 22.1074 15.8C21.6754 15.944 21.2834 16.168 20.9314 16.472C20.5954 16.76 20.3234 17.136 20.1154 17.6C19.9234 18.064 19.8274 18.616 19.8274 19.256V26H16.8034V12.992H19.1314L19.5634 15.248H19.7074C19.9634 14.784 20.2834 14.368 20.6674 14C21.0514 13.616 21.4914 13.312 21.9874 13.088C22.4994 12.864 23.0434 12.752 23.6194 12.752ZM38.4975 19.472C38.4975 20.56 38.3535 21.52 38.0655 22.352C37.7775 23.184 37.3615 23.896 36.8175 24.488C36.2895 25.064 35.6335 25.504 34.8495 25.808C34.0815 26.096 33.2255 26.24 32.2815 26.24C31.3855 26.24 30.5615 26.096 29.8095 25.808C29.0575 25.504 28.4015 25.064 27.8415 24.488C27.2975 23.896 26.8735 23.184 26.5695 22.352C26.2655 21.52 26.1135 20.56 26.1135 19.472C26.1135 18.032 26.3615 16.816 26.8575 15.824C27.3535 14.816 28.0655 14.056 28.9935 13.544C29.9375 13.016 31.0495 12.752 32.3295 12.752C33.5455 12.752 34.6095 13.016 35.5215 13.544C36.4495 14.056 37.1775 14.816 37.7055 15.824C38.2335 16.816 38.4975 18.032 38.4975 19.472ZM29.2095 19.472C29.2095 20.384 29.3135 21.168 29.5215 21.824C29.7455 22.464 30.0815 22.952 30.5295 23.288C30.9935 23.624 31.5855 23.792 32.3055 23.792C33.0415 23.792 33.6335 23.624 34.0815 23.288C34.5455 22.952 34.8815 22.464 35.0895 21.824C35.2975 21.168 35.4015 20.384 35.4015 19.472C35.4015 18.544 35.2895 17.768 35.0655 17.144C34.8575 16.504 34.5215 16.024 34.0575 15.704C33.6095 15.368 33.0255 15.2 32.3055 15.2C31.2175 15.2 30.4255 15.568 29.9295 16.304C29.4495 17.04 29.2095 18.096 29.2095 19.472ZM44.1549 26L39.2109 12.992H42.4029L44.9949 20.504C45.1069 20.808 45.2109 21.144 45.3069 21.512C45.4029 21.864 45.4829 22.216 45.5469 22.568C45.6269 22.904 45.6749 23.2 45.6909 23.456H45.7869C45.8189 23.184 45.8749 22.88 45.9549 22.544C46.0349 22.192 46.1229 21.84 46.2189 21.488C46.3309 21.136 46.4349 20.808 46.5309 20.504L49.1229 12.992H52.3149L47.3709 26H44.1549ZM57.2805 12.992V26H54.2565V12.992H57.2805ZM55.7685 7.976C56.2165 7.976 56.6085 8.096 56.9445 8.336C57.2805 8.56 57.4485 8.968 57.4485 9.56C57.4485 10.136 57.2805 10.552 56.9445 10.808C56.6085 11.048 56.2165 11.168 55.7685 11.168C55.3045 11.168 54.9045 11.048 54.5685 10.808C54.2485 10.552 54.0885 10.136 54.0885 9.56C54.0885 8.968 54.2485 8.56 54.5685 8.336C54.9045 8.096 55.3045 7.976 55.7685 7.976ZM65.4431 26.24C63.9391 26.24 62.7151 25.68 61.7711 24.56C60.8431 23.424 60.3791 21.744 60.3791 19.52C60.3791 17.296 60.8511 15.616 61.7951 14.48C62.7391 13.328 63.9791 12.752 65.5151 12.752C66.1551 12.752 66.7151 12.84 67.1951 13.016C67.6911 13.176 68.1151 13.4 68.4671 13.688C68.8191 13.976 69.1151 14.296 69.3551 14.648H69.4991C69.4511 14.424 69.4031 14.08 69.3551 13.616C69.3071 13.152 69.2831 12.72 69.2831 12.32V7.76H72.3071V26H69.9551L69.4031 24.296H69.2831C69.0431 24.648 68.7471 24.976 68.3951 25.28C68.0431 25.568 67.6271 25.8 67.1471 25.976C66.6671 26.152 66.0991 26.24 65.4431 26.24ZM66.3551 23.792C67.4751 23.792 68.2671 23.472 68.7311 22.832C69.1951 22.192 69.4271 21.224 69.4271 19.928V19.544C69.4271 18.136 69.2031 17.064 68.7551 16.328C68.3231 15.592 67.5071 15.224 66.3071 15.224C65.3951 15.224 64.6911 15.608 64.1951 16.376C63.6991 17.128 63.4511 18.192 63.4511 19.568C63.4511 20.944 63.6991 21.992 64.1951 22.712C64.6911 23.432 65.4111 23.792 66.3551 23.792ZM81.4026 12.752C82.5706 12.752 83.5706 12.992 84.4026 13.472C85.2506 13.936 85.9066 14.608 86.3706 15.488C86.8346 16.352 87.0666 17.408 87.0666 18.656V20.192H78.4746C78.5066 21.376 78.8346 22.296 79.4586 22.952C80.0826 23.592 80.9466 23.912 82.0506 23.912C82.8986 23.912 83.6506 23.832 84.3066 23.672C84.9786 23.496 85.6666 23.248 86.3706 22.928V25.352C85.7306 25.656 85.0666 25.88 84.3786 26.024C83.6906 26.168 82.8666 26.24 81.9066 26.24C80.6426 26.24 79.5146 26 78.5226 25.52C77.5466 25.024 76.7786 24.28 76.2186 23.288C75.6746 22.296 75.4026 21.064 75.4026 19.592C75.4026 18.104 75.6506 16.856 76.1466 15.848C76.6586 14.824 77.3626 14.056 78.2586 13.544C79.1546 13.016 80.2026 12.752 81.4026 12.752ZM81.4026 14.984C80.6026 14.984 79.9466 15.248 79.4346 15.776C78.9386 16.288 78.6426 17.056 78.5466 18.08H84.1386C84.1386 17.472 84.0346 16.936 83.8266 16.472C83.6346 16.008 83.3386 15.648 82.9386 15.392C82.5386 15.12 82.0266 14.984 81.4026 14.984ZM96.9319 12.752C97.1239 12.752 97.3479 12.76 97.6039 12.776C97.8599 12.792 98.0759 12.824 98.2519 12.872L97.9879 15.68C97.8439 15.648 97.6519 15.624 97.4119 15.608C97.1879 15.576 96.9879 15.56 96.8119 15.56C96.3319 15.56 95.8679 15.64 95.4199 15.8C94.9879 15.944 94.5959 16.168 94.2439 16.472C93.9079 16.76 93.6359 17.136 93.4279 17.6C93.2359 18.064 93.1399 18.616 93.1399 19.256V26H90.1159V12.992H92.4439L92.8759 15.248H93.0199C93.2759 14.784 93.5959 14.368 93.9799 14C94.3639 13.616 94.8039 13.312 95.2999 13.088C95.8119 12.864 96.3559 12.752 96.9319 12.752Z" fill="black"/>
<path d="M32.52 71V59.576H34.248V69.512H39.128V71H32.52ZM42.6021 62.376V71H40.9061V62.376H42.6021ZM41.7701 59.096C42.0261 59.096 42.2501 59.1707 42.4421 59.32C42.6341 59.4693 42.7301 59.72 42.7301 60.072C42.7301 60.4133 42.6341 60.664 42.4421 60.824C42.2501 60.9733 42.0261 61.048 41.7701 61.048C41.4928 61.048 41.2581 60.9733 41.0661 60.824C40.8848 60.664 40.7941 60.4133 40.7941 60.072C40.7941 59.72 40.8848 59.4693 41.0661 59.32C41.2581 59.1707 41.4928 59.096 41.7701 59.096ZM50.9935 68.568C50.9935 69.1333 50.8548 69.608 50.5775 69.992C50.3002 70.376 49.9002 70.6693 49.3775 70.872C48.8548 71.064 48.2255 71.16 47.4895 71.16C46.8815 71.16 46.3588 71.112 45.9215 71.016C45.4948 70.9307 45.1002 70.8027 44.7375 70.632V69.144C45.1215 69.3253 45.5642 69.4907 46.0655 69.64C46.5668 69.7787 47.0575 69.848 47.5375 69.848C48.1775 69.848 48.6362 69.7467 48.9135 69.544C49.2015 69.3413 49.3455 69.0693 49.3455 68.728C49.3455 68.536 49.2922 68.3653 49.1855 68.216C49.0788 68.056 48.8762 67.896 48.5775 67.736C48.2895 67.5653 47.8628 67.3733 47.2975 67.16C46.7535 66.936 46.2895 66.7173 45.9055 66.504C45.5215 66.28 45.2282 66.0187 45.0255 65.72C44.8228 65.4107 44.7215 65.016 44.7215 64.536C44.7215 63.7893 45.0202 63.2187 45.6175 62.824C46.2255 62.4187 47.0255 62.216 48.0175 62.216C48.5402 62.216 49.0308 62.2693 49.4895 62.376C49.9588 62.472 50.4122 62.6213 50.8495 62.824L50.2895 64.12C50.0442 64.0027 49.7882 63.9067 49.5215 63.832C49.2655 63.7467 49.0042 63.6773 48.7375 63.624C48.4815 63.5707 48.2148 63.544 47.9375 63.544C47.4255 63.544 47.0362 63.624 46.7695 63.784C46.5028 63.944 46.3695 64.168 46.3695 64.456C46.3695 64.6587 46.4282 64.8347 46.5455 64.984C46.6735 65.1333 46.8922 65.2827 47.2015 65.432C47.5108 65.5813 47.9322 65.7627 48.4655 65.976C48.9988 66.1787 49.4522 66.3867 49.8255 66.6C50.2095 66.8133 50.4975 67.0747 50.6895 67.384C50.8922 67.6933 50.9935 68.088 50.9935 68.568ZM56.1195 69.784C56.3435 69.784 56.5728 69.7627 56.8075 69.72C57.0422 69.6773 57.2448 69.6293 57.4155 69.576V70.856C57.2342 70.9413 56.9888 71.0107 56.6795 71.064C56.3702 71.128 56.0608 71.16 55.7515 71.16C55.2822 71.16 54.8502 71.08 54.4555 70.92C54.0715 70.76 53.7622 70.4827 53.5275 70.088C53.2928 69.6933 53.1755 69.144 53.1755 68.44V63.672H51.9755V62.904L53.2395 62.264L53.8315 60.44H54.8715V62.376H57.3355V63.672H54.8715V68.408C54.8715 68.8773 54.9835 69.224 55.2075 69.448C55.4422 69.672 55.7462 69.784 56.1195 69.784Z" fill="black"/>
<rect x="31.5" y="78.5" width="614" height="302" stroke="black" stroke-dasharray="4 4"/>
<rect x="56" y="102" width="565" height="63" fill="#BAE8FC"/>
<path d="M295.377 125.864C296.881 125.864 298.121 126.048 299.097 126.416C300.073 126.784 300.801 127.344 301.281 128.096C301.761 128.832 302.001 129.768 302.001 130.904C302.001 131.736 301.841 132.448 301.521 133.04C301.217 133.632 300.817 134.128 300.321 134.528C299.825 134.912 299.289 135.224 298.713 135.464L303.633 143H300.177L296.073 136.232H293.577V143H290.505V125.864H295.377ZM295.185 128.432H293.577V133.712H295.281C296.129 133.712 296.817 133.608 297.345 133.4C297.873 133.192 298.257 132.888 298.497 132.488C298.753 132.088 298.881 131.592 298.881 131C298.881 130.376 298.745 129.88 298.473 129.512C298.201 129.128 297.793 128.856 297.249 128.696C296.721 128.52 296.033 128.432 295.185 128.432ZM310.965 129.752C312.133 129.752 313.133 129.992 313.965 130.472C314.813 130.936 315.469 131.608 315.933 132.488C316.397 133.352 316.629 134.408 316.629 135.656V137.192H308.037C308.069 138.376 308.397 139.296 309.021 139.952C309.645 140.592 310.509 140.912 311.613 140.912C312.461 140.912 313.213 140.832 313.869 140.672C314.541 140.496 315.229 140.248 315.933 139.928V142.352C315.293 142.656 314.629 142.88 313.941 143.024C313.253 143.168 312.429 143.24 311.469 143.24C310.205 143.24 309.077 143 308.085 142.52C307.109 142.024 306.341 141.28 305.781 140.288C305.237 139.296 304.965 138.064 304.965 136.592C304.965 135.104 305.213 133.856 305.709 132.848C306.221 131.824 306.925 131.056 307.821 130.544C308.717 130.016 309.765 129.752 310.965 129.752ZM310.965 131.984C310.165 131.984 309.509 132.248 308.997 132.776C308.501 133.288 308.205 134.056 308.109 135.08H313.701C313.701 134.472 313.597 133.936 313.389 133.472C313.197 133.008 312.901 132.648 312.501 132.392C312.101 132.12 311.589 131.984 310.965 131.984ZM328.534 139.232C328.534 140.096 328.326 140.832 327.91 141.44C327.494 142.032 326.878 142.48 326.062 142.784C325.262 143.088 324.278 143.24 323.11 143.24C322.198 143.24 321.414 143.176 320.758 143.048C320.102 142.92 319.478 142.72 318.886 142.448V139.88C319.526 140.184 320.238 140.44 321.022 140.648C321.806 140.856 322.534 140.96 323.206 140.96C324.038 140.96 324.638 140.832 325.006 140.576C325.374 140.32 325.558 139.976 325.558 139.544C325.558 139.288 325.486 139.056 325.342 138.848C325.198 138.64 324.918 138.424 324.502 138.2C324.086 137.96 323.454 137.664 322.606 137.312C321.774 136.976 321.078 136.64 320.518 136.304C319.974 135.968 319.558 135.568 319.27 135.104C318.998 134.624 318.862 134.024 318.862 133.304C318.862 132.136 319.326 131.256 320.254 130.664C321.182 130.056 322.406 129.752 323.926 129.752C324.726 129.752 325.478 129.832 326.182 129.992C326.902 130.136 327.622 130.376 328.342 130.712L327.382 132.944C326.982 132.768 326.582 132.616 326.182 132.488C325.798 132.344 325.406 132.232 325.006 132.152C324.622 132.072 324.23 132.032 323.83 132.032C323.174 132.032 322.678 132.136 322.342 132.344C322.006 132.536 321.838 132.808 321.838 133.16C321.838 133.432 321.918 133.672 322.078 133.88C322.254 134.072 322.55 134.272 322.966 134.48C323.398 134.672 324.006 134.928 324.79 135.248C325.574 135.552 326.238 135.872 326.782 136.208C327.342 136.528 327.774 136.928 328.078 137.408C328.382 137.888 328.534 138.496 328.534 139.232ZM343.06 136.472C343.06 137.56 342.916 138.52 342.628 139.352C342.34 140.184 341.924 140.896 341.38 141.488C340.852 142.064 340.196 142.504 339.412 142.808C338.644 143.096 337.788 143.24 336.844 143.24C335.948 143.24 335.124 143.096 334.372 142.808C333.62 142.504 332.964 142.064 332.404 141.488C331.86 140.896 331.436 140.184 331.132 139.352C330.828 138.52 330.676 137.56 330.676 136.472C330.676 135.032 330.924 133.816 331.42 132.824C331.916 131.816 332.628 131.056 333.556 130.544C334.5 130.016 335.612 129.752 336.892 129.752C338.108 129.752 339.172 130.016 340.084 130.544C341.012 131.056 341.74 131.816 342.268 132.824C342.796 133.816 343.06 135.032 343.06 136.472ZM333.772 136.472C333.772 137.384 333.876 138.168 334.084 138.824C334.308 139.464 334.644 139.952 335.092 140.288C335.556 140.624 336.148 140.792 336.868 140.792C337.604 140.792 338.196 140.624 338.644 140.288C339.108 139.952 339.444 139.464 339.652 138.824C339.86 138.168 339.964 137.384 339.964 136.472C339.964 135.544 339.852 134.768 339.628 134.144C339.42 133.504 339.084 133.024 338.62 132.704C338.172 132.368 337.588 132.2 336.868 132.2C335.78 132.2 334.988 132.568 334.492 133.304C334.012 134.04 333.772 135.096 333.772 136.472ZM349.21 143H346.186V124.76H349.21V143ZM356.077 143L351.133 129.992H354.325L356.917 137.504C357.029 137.808 357.133 138.144 357.229 138.512C357.325 138.864 357.405 139.216 357.469 139.568C357.549 139.904 357.597 140.2 357.613 140.456H357.709C357.741 140.184 357.797 139.88 357.877 139.544C357.957 139.192 358.045 138.84 358.141 138.488C358.253 138.136 358.357 137.808 358.453 137.504L361.045 129.992H364.237L359.293 143H356.077ZM371.41 129.752C372.578 129.752 373.578 129.992 374.41 130.472C375.258 130.936 375.914 131.608 376.378 132.488C376.842 133.352 377.074 134.408 377.074 135.656V137.192H368.482C368.514 138.376 368.842 139.296 369.466 139.952C370.09 140.592 370.954 140.912 372.058 140.912C372.906 140.912 373.658 140.832 374.314 140.672C374.986 140.496 375.674 140.248 376.378 139.928V142.352C375.738 142.656 375.074 142.88 374.386 143.024C373.698 143.168 372.874 143.24 371.914 143.24C370.65 143.24 369.522 143 368.53 142.52C367.554 142.024 366.786 141.28 366.226 140.288C365.682 139.296 365.41 138.064 365.41 136.592C365.41 135.104 365.658 133.856 366.154 132.848C366.666 131.824 367.37 131.056 368.266 130.544C369.162 130.016 370.21 129.752 371.41 129.752ZM371.41 131.984C370.61 131.984 369.954 132.248 369.442 132.776C368.946 133.288 368.65 134.056 368.554 135.08H374.146C374.146 134.472 374.042 133.936 373.834 133.472C373.642 133.008 373.346 132.648 372.946 132.392C372.546 132.12 372.034 131.984 371.41 131.984ZM386.94 129.752C387.132 129.752 387.356 129.76 387.612 129.776C387.868 129.792 388.084 129.824 388.26 129.872L387.996 132.68C387.852 132.648 387.66 132.624 387.42 132.608C387.196 132.576 386.996 132.56 386.82 132.56C386.34 132.56 385.876 132.64 385.428 132.8C384.996 132.944 384.604 133.168 384.252 133.472C383.916 133.76 383.644 134.136 383.436 134.6C383.244 135.064 383.148 135.616 383.148 136.256V143H380.124V129.992H382.452L382.884 132.248H383.028C383.284 131.784 383.604 131.368 383.988 131C384.372 130.616 384.812 130.312 385.308 130.088C385.82 129.864 386.364 129.752 386.94 129.752Z" fill="black"/>
<rect x="56" y="177" width="565" height="63" fill="#BAE8FC"/>
<path d="M295.377 200.864C296.881 200.864 298.121 201.048 299.097 201.416C300.073 201.784 300.801 202.344 301.281 203.096C301.761 203.832 302.001 204.768 302.001 205.904C302.001 206.736 301.841 207.448 301.521 208.04C301.217 208.632 300.817 209.128 300.321 209.528C299.825 209.912 299.289 210.224 298.713 210.464L303.633 218H300.177L296.073 211.232H293.577V218H290.505V200.864H295.377ZM295.185 203.432H293.577V208.712H295.281C296.129 208.712 296.817 208.608 297.345 208.4C297.873 208.192 298.257 207.888 298.497 207.488C298.753 207.088 298.881 206.592 298.881 206C298.881 205.376 298.745 204.88 298.473 204.512C298.201 204.128 297.793 203.856 297.249 203.696C296.721 203.52 296.033 203.432 295.185 203.432ZM310.965 204.752C312.133 204.752 313.133 204.992 313.965 205.472C314.813 205.936 315.469 206.608 315.933 207.488C316.397 208.352 316.629 209.408 316.629 210.656V212.192H308.037C308.069 213.376 308.397 214.296 309.021 214.952C309.645 215.592 310.509 215.912 311.613 215.912C312.461 215.912 313.213 215.832 313.869 215.672C314.541 215.496 315.229 215.248 315.933 214.928V217.352C315.293 217.656 314.629 217.88 313.941 218.024C313.253 218.168 312.429 218.24 311.469 218.24C310.205 218.24 309.077 218 308.085 217.52C307.109 217.024 306.341 216.28 305.781 215.288C305.237 214.296 304.965 213.064 304.965 211.592C304.965 210.104 305.213 208.856 305.709 207.848C306.221 206.824 306.925 206.056 307.821 205.544C308.717 205.016 309.765 204.752 310.965 204.752ZM310.965 206.984C310.165 206.984 309.509 207.248 308.997 207.776C308.501 208.288 308.205 209.056 308.109 210.08H313.701C313.701 209.472 313.597 208.936 313.389 208.472C313.197 208.008 312.901 207.648 312.501 207.392C312.101 207.12 311.589 206.984 310.965 206.984ZM328.534 214.232C328.534 215.096 328.326 215.832 327.91 216.44C327.494 217.032 326.878 217.48 326.062 217.784C325.262 218.088 324.278 218.24 323.11 218.24C322.198 218.24 321.414 218.176 320.758 218.048C320.102 217.92 319.478 217.72 318.886 217.448V214.88C319.526 215.184 320.238 215.44 321.022 215.648C321.806 215.856 322.534 215.96 323.206 215.96C324.038 215.96 324.638 215.832 325.006 215.576C325.374 215.32 325.558 214.976 325.558 214.544C325.558 214.288 325.486 214.056 325.342 213.848C325.198 213.64 324.918 213.424 324.502 213.2C324.086 212.96 323.454 212.664 322.606 212.312C321.774 211.976 321.078 211.64 320.518 211.304C319.974 210.968 319.558 210.568 319.27 210.104C318.998 209.624 318.862 209.024 318.862 208.304C318.862 207.136 319.326 206.256 320.254 205.664C321.182 205.056 322.406 204.752 323.926 204.752C324.726 204.752 325.478 204.832 326.182 204.992C326.902 205.136 327.622 205.376 328.342 205.712L327.382 207.944C326.982 207.768 326.582 207.616 326.182 207.488C325.798 207.344 325.406 207.232 325.006 207.152C324.622 207.072 324.23 207.032 323.83 207.032C323.174 207.032 322.678 207.136 322.342 207.344C322.006 207.536 321.838 207.808 321.838 208.16C321.838 208.432 321.918 208.672 322.078 208.88C322.254 209.072 322.55 209.272 322.966 209.48C323.398 209.672 324.006 209.928 324.79 210.248C325.574 210.552 326.238 210.872 326.782 211.208C327.342 211.528 327.774 211.928 328.078 212.408C328.382 212.888 328.534 213.496 328.534 214.232ZM343.06 211.472C343.06 212.56 342.916 213.52 342.628 214.352C342.34 215.184 341.924 215.896 341.38 216.488C340.852 217.064 340.196 217.504 339.412 217.808C338.644 218.096 337.788 218.24 336.844 218.24C335.948 218.24 335.124 218.096 334.372 217.808C333.62 217.504 332.964 217.064 332.404 216.488C331.86 215.896 331.436 215.184 331.132 214.352C330.828 213.52 330.676 212.56 330.676 211.472C330.676 210.032 330.924 208.816 331.42 207.824C331.916 206.816 332.628 206.056 333.556 205.544C334.5 205.016 335.612 204.752 336.892 204.752C338.108 204.752 339.172 205.016 340.084 205.544C341.012 206.056 341.74 206.816 342.268 207.824C342.796 208.816 343.06 210.032 343.06 211.472ZM333.772 211.472C333.772 212.384 333.876 213.168 334.084 213.824C334.308 214.464 334.644 214.952 335.092 215.288C335.556 215.624 336.148 215.792 336.868 215.792C337.604 215.792 338.196 215.624 338.644 215.288C339.108 214.952 339.444 214.464 339.652 213.824C339.86 213.168 339.964 212.384 339.964 211.472C339.964 210.544 339.852 209.768 339.628 209.144C339.42 208.504 339.084 208.024 338.62 207.704C338.172 207.368 337.588 207.2 336.868 207.2C335.78 207.2 334.988 207.568 334.492 208.304C334.012 209.04 333.772 210.096 333.772 211.472ZM349.21 218H346.186V199.76H349.21V218ZM356.077 218L351.133 204.992H354.325L356.917 212.504C357.029 212.808 357.133 213.144 357.229 213.512C357.325 213.864 357.405 214.216 357.469 214.568C357.549 214.904 357.597 215.2 357.613 215.456H357.709C357.741 215.184 357.797 214.88 357.877 214.544C357.957 214.192 358.045 213.84 358.141 213.488C358.253 213.136 358.357 212.808 358.453 212.504L361.045 204.992H364.237L359.293 218H356.077ZM371.41 204.752C372.578 204.752 373.578 204.992 374.41 205.472C375.258 205.936 375.914 206.608 376.378 207.488C376.842 208.352 377.074 209.408 377.074 210.656V212.192H368.482C368.514 213.376 368.842 214.296 369.466 214.952C370.09 215.592 370.954 215.912 372.058 215.912C372.906 215.912 373.658 215.832 374.314 215.672C374.986 215.496 375.674 215.248 376.378 214.928V217.352C375.738 217.656 375.074 217.88 374.386 218.024C373.698 218.168 372.874 218.24 371.914 218.24C370.65 218.24 369.522 218 368.53 217.52C367.554 217.024 366.786 216.28 366.226 215.288C365.682 214.296 365.41 213.064 365.41 211.592C365.41 210.104 365.658 208.856 366.154 207.848C366.666 206.824 367.37 206.056 368.266 205.544C369.162 205.016 370.21 204.752 371.41 204.752ZM371.41 206.984C370.61 206.984 369.954 207.248 369.442 207.776C368.946 208.288 368.65 209.056 368.554 210.08H374.146C374.146 209.472 374.042 208.936 373.834 208.472C373.642 208.008 373.346 207.648 372.946 207.392C372.546 207.12 372.034 206.984 371.41 206.984ZM386.94 204.752C387.132 204.752 387.356 204.76 387.612 204.776C387.868 204.792 388.084 204.824 388.26 204.872L387.996 207.68C387.852 207.648 387.66 207.624 387.42 207.608C387.196 207.576 386.996 207.56 386.82 207.56C386.34 207.56 385.876 207.64 385.428 207.8C384.996 207.944 384.604 208.168 384.252 208.472C383.916 208.76 383.644 209.136 383.436 209.6C383.244 210.064 383.148 210.616 383.148 211.256V218H380.124V204.992H382.452L382.884 207.248H383.028C383.284 206.784 383.604 206.368 383.988 206C384.372 205.616 384.812 205.312 385.308 205.088C385.82 204.864 386.364 204.752 386.94 204.752Z" fill="black"/>
<g opacity="0.4">
<rect x="56" y="252" width="565" height="63" fill="#BAE8FC"/>
<path d="M295.377 275.864C296.881 275.864 298.121 276.048 299.097 276.416C300.073 276.784 300.801 277.344 301.281 278.096C301.761 278.832 302.001 279.768 302.001 280.904C302.001 281.736 301.841 282.448 301.521 283.04C301.217 283.632 300.817 284.128 300.321 284.528C299.825 284.912 299.289 285.224 298.713 285.464L303.633 293H300.177L296.073 286.232H293.577V293H290.505V275.864H295.377ZM295.185 278.432H293.577V283.712H295.281C296.129 283.712 296.817 283.608 297.345 283.4C297.873 283.192 298.257 282.888 298.497 282.488C298.753 282.088 298.881 281.592 298.881 281C298.881 280.376 298.745 279.88 298.473 279.512C298.201 279.128 297.793 278.856 297.249 278.696C296.721 278.52 296.033 278.432 295.185 278.432ZM310.965 279.752C312.133 279.752 313.133 279.992 313.965 280.472C314.813 280.936 315.469 281.608 315.933 282.488C316.397 283.352 316.629 284.408 316.629 285.656V287.192H308.037C308.069 288.376 308.397 289.296 309.021 289.952C309.645 290.592 310.509 290.912 311.613 290.912C312.461 290.912 313.213 290.832 313.869 290.672C314.541 290.496 315.229 290.248 315.933 289.928V292.352C315.293 292.656 314.629 292.88 313.941 293.024C313.253 293.168 312.429 293.24 311.469 293.24C310.205 293.24 309.077 293 308.085 292.52C307.109 292.024 306.341 291.28 305.781 290.288C305.237 289.296 304.965 288.064 304.965 286.592C304.965 285.104 305.213 283.856 305.709 282.848C306.221 281.824 306.925 281.056 307.821 280.544C308.717 280.016 309.765 279.752 310.965 279.752ZM310.965 281.984C310.165 281.984 309.509 282.248 308.997 282.776C308.501 283.288 308.205 284.056 308.109 285.08H313.701C313.701 284.472 313.597 283.936 313.389 283.472C313.197 283.008 312.901 282.648 312.501 282.392C312.101 282.12 311.589 281.984 310.965 281.984ZM328.534 289.232C328.534 290.096 328.326 290.832 327.91 291.44C327.494 292.032 326.878 292.48 326.062 292.784C325.262 293.088 324.278 293.24 323.11 293.24C322.198 293.24 321.414 293.176 320.758 293.048C320.102 292.92 319.478 292.72 318.886 292.448V289.88C319.526 290.184 320.238 290.44 321.022 290.648C321.806 290.856 322.534 290.96 323.206 290.96C324.038 290.96 324.638 290.832 325.006 290.576C325.374 290.32 325.558 289.976 325.558 289.544C325.558 289.288 325.486 289.056 325.342 288.848C325.198 288.64 324.918 288.424 324.502 288.2C324.086 287.96 323.454 287.664 322.606 287.312C321.774 286.976 321.078 286.64 320.518 286.304C319.974 285.968 319.558 285.568 319.27 285.104C318.998 284.624 318.862 284.024 318.862 283.304C318.862 282.136 319.326 281.256 320.254 280.664C321.182 280.056 322.406 279.752 323.926 279.752C324.726 279.752 325.478 279.832 326.182 279.992C326.902 280.136 327.622 280.376 328.342 280.712L327.382 282.944C326.982 282.768 326.582 282.616 326.182 282.488C325.798 282.344 325.406 282.232 325.006 282.152C324.622 282.072 324.23 282.032 323.83 282.032C323.174 282.032 322.678 282.136 322.342 282.344C322.006 282.536 321.838 282.808 321.838 283.16C321.838 283.432 321.918 283.672 322.078 283.88C322.254 284.072 322.55 284.272 322.966 284.48C323.398 284.672 324.006 284.928 324.79 285.248C325.574 285.552 326.238 285.872 326.782 286.208C327.342 286.528 327.774 286.928 328.078 287.408C328.382 287.888 328.534 288.496 328.534 289.232ZM343.06 286.472C343.06 287.56 342.916 288.52 342.628 289.352C342.34 290.184 341.924 290.896 341.38 291.488C340.852 292.064 340.196 292.504 339.412 292.808C338.644 293.096 337.788 293.24 336.844 293.24C335.948 293.24 335.124 293.096 334.372 292.808C333.62 292.504 332.964 292.064 332.404 291.488C331.86 290.896 331.436 290.184 331.132 289.352C330.828 288.52 330.676 287.56 330.676 286.472C330.676 285.032 330.924 283.816 331.42 282.824C331.916 281.816 332.628 281.056 333.556 280.544C334.5 280.016 335.612 279.752 336.892 279.752C338.108 279.752 339.172 280.016 340.084 280.544C341.012 281.056 341.74 281.816 342.268 282.824C342.796 283.816 343.06 285.032 343.06 286.472ZM333.772 286.472C333.772 287.384 333.876 288.168 334.084 288.824C334.308 289.464 334.644 289.952 335.092 290.288C335.556 290.624 336.148 290.792 336.868 290.792C337.604 290.792 338.196 290.624 338.644 290.288C339.108 289.952 339.444 289.464 339.652 288.824C339.86 288.168 339.964 287.384 339.964 286.472C339.964 285.544 339.852 284.768 339.628 284.144C339.42 283.504 339.084 283.024 338.62 282.704C338.172 282.368 337.588 282.2 336.868 282.2C335.78 282.2 334.988 282.568 334.492 283.304C334.012 284.04 333.772 285.096 333.772 286.472ZM349.21 293H346.186V274.76H349.21V293ZM356.077 293L351.133 279.992H354.325L356.917 287.504C357.029 287.808 357.133 288.144 357.229 288.512C357.325 288.864 357.405 289.216 357.469 289.568C357.549 289.904 357.597 290.2 357.613 290.456H357.709C357.741 290.184 357.797 289.88 357.877 289.544C357.957 289.192 358.045 288.84 358.141 288.488C358.253 288.136 358.357 287.808 358.453 287.504L361.045 279.992H364.237L359.293 293H356.077ZM371.41 279.752C372.578 279.752 373.578 279.992 374.41 280.472C375.258 280.936 375.914 281.608 376.378 282.488C376.842 283.352 377.074 284.408 377.074 285.656V287.192H368.482C368.514 288.376 368.842 289.296 369.466 289.952C370.09 290.592 370.954 290.912 372.058 290.912C372.906 290.912 373.658 290.832 374.314 290.672C374.986 290.496 375.674 290.248 376.378 289.928V292.352C375.738 292.656 375.074 292.88 374.386 293.024C373.698 293.168 372.874 293.24 371.914 293.24C370.65 293.24 369.522 293 368.53 292.52C367.554 292.024 366.786 291.28 366.226 290.288C365.682 289.296 365.41 288.064 365.41 286.592C365.41 285.104 365.658 283.856 366.154 282.848C366.666 281.824 367.37 281.056 368.266 280.544C369.162 280.016 370.21 279.752 371.41 279.752ZM371.41 281.984C370.61 281.984 369.954 282.248 369.442 282.776C368.946 283.288 368.65 284.056 368.554 285.08H374.146C374.146 284.472 374.042 283.936 373.834 283.472C373.642 283.008 373.346 282.648 372.946 282.392C372.546 282.12 372.034 281.984 371.41 281.984ZM386.94 279.752C387.132 279.752 387.356 279.76 387.612 279.776C387.868 279.792 388.084 279.824 388.26 279.872L387.996 282.68C387.852 282.648 387.66 282.624 387.42 282.608C387.196 282.576 386.996 282.56 386.82 282.56C386.34 282.56 385.876 282.64 385.428 282.8C384.996 282.944 384.604 283.168 384.252 283.472C383.916 283.76 383.644 284.136 383.436 284.6C383.244 285.064 383.148 285.616 383.148 286.256V293H380.124V279.992H382.452L382.884 282.248H383.028C383.284 281.784 383.604 281.368 383.988 281C384.372 280.616 384.812 280.312 385.308 280.088C385.82 279.864 386.364 279.752 386.94 279.752Z" fill="black"/>
</g>
</svg>
