<svg width="344" height="199" viewBox="0 0 344 199" fill="none" xmlns="http://www.w3.org/2000/svg">
<rect y="22" width="344" height="156" fill="#E4C5EC"/>
<rect y="58" width="172" height="40" fill="#DCEEF9"/>
<path d="M40.9141 76.25L40.8047 76.0781C40.8776 75.7969 40.9635 75.4974 41.0625 75.1797C41.1667 74.862 41.2786 74.5417 41.3984 74.2188C41.5182 73.8958 41.6458 73.5755 41.7812 73.2578C41.9167 72.9349 42.0495 72.6276 42.1797 72.3359H43.25C43.1719 72.6536 43.0938 72.9844 43.0156 73.3281C42.9427 73.6719 42.8724 74.0156 42.8047 74.3594C42.737 74.6979 42.6745 75.0286 42.6172 75.3516C42.5599 75.6745 42.5104 75.974 42.4688 76.25H40.9141ZM37.9062 76.25L37.7969 76.0781C37.8698 75.7969 37.9557 75.4974 38.0547 75.1797C38.1589 74.862 38.2708 74.5417 38.3906 74.2188C38.5104 73.8958 38.638 73.5755 38.7734 73.2578C38.9089 72.9349 39.0417 72.6276 39.1719 72.3359H40.2422C40.1641 72.6536 40.0859 72.9844 40.0078 73.3281C39.9349 73.6719 39.8646 74.0156 39.7969 74.3594C39.7292 74.6979 39.6667 75.0286 39.6094 75.3516C39.5521 75.6745 39.5026 75.974 39.4609 76.25H37.9062ZM47.2422 84H45.8359V75.4219H47.2422V84ZM45.7266 73.1016C45.7266 72.7891 45.8047 72.5625 45.9609 72.4219C46.1224 72.2812 46.3203 72.2109 46.5547 72.2109C46.7734 72.2109 46.9635 72.2812 47.125 72.4219C47.2917 72.5625 47.375 72.7891 47.375 73.1016C47.375 73.4089 47.2917 73.6354 47.125 73.7812C46.9635 73.9271 46.7734 74 46.5547 74C46.3203 74 46.1224 73.9271 45.9609 73.7812C45.8047 73.6354 45.7266 73.4089 45.7266 73.1016ZM53 84.1562C51.8854 84.1562 51.0208 83.7708 50.4062 83C49.7917 82.2292 49.4844 81.138 49.4844 79.7266C49.4844 78.3255 49.7917 77.2318 50.4062 76.4453C51.026 75.6589 51.8958 75.2656 53.0156 75.2656C54.1667 75.2656 55.0521 75.6875 55.6719 76.5312H55.7734C55.7578 76.4271 55.737 76.2188 55.7109 75.9062C55.6849 75.5885 55.6719 75.375 55.6719 75.2656V71.8438H57.0781V84H55.9453L55.7344 82.8516H55.6719C55.0729 83.7214 54.1823 84.1562 53 84.1562ZM53.2266 82.9922C54.0807 82.9922 54.7031 82.7604 55.0938 82.2969C55.4896 81.8281 55.6875 81.0625 55.6875 80V79.7422C55.6875 78.5495 55.487 77.7005 55.0859 77.1953C54.6901 76.6849 54.0651 76.4297 53.2109 76.4297C52.487 76.4297 51.9271 76.7188 51.5312 77.2969C51.1354 77.8698 50.9375 78.6901 50.9375 79.7578C50.9375 80.8203 51.1328 81.625 51.5234 82.1719C51.9193 82.7188 52.487 82.9922 53.2266 82.9922ZM63.4531 84.1562C62.1667 84.1562 61.1562 83.7682 60.4219 82.9922C59.6927 82.2109 59.3281 81.138 59.3281 79.7734C59.3281 78.3984 59.6693 77.3047 60.3516 76.4922C61.0339 75.6745 61.9557 75.2656 63.1172 75.2656C64.1953 75.2656 65.0547 75.6146 65.6953 76.3125C66.3359 77.0052 66.6562 77.9453 66.6562 79.1328V79.9844H60.7812C60.8073 80.9583 61.0547 81.6979 61.5234 82.2031C61.9922 82.7083 62.6562 82.9609 63.5156 82.9609C63.974 82.9609 64.4089 82.9219 64.8203 82.8438C65.2318 82.7604 65.7135 82.6016 66.2656 82.3672V83.6016C65.7917 83.8047 65.3464 83.9479 64.9297 84.0312C64.513 84.1146 64.0208 84.1562 63.4531 84.1562ZM63.1016 76.4141C62.4297 76.4141 61.8984 76.6302 61.5078 77.0625C61.1172 77.4948 60.8854 78.0964 60.8125 78.8672H65.1797C65.1693 78.0651 64.9844 77.4557 64.625 77.0391C64.2656 76.6224 63.7578 76.4141 63.1016 76.4141ZM74.6797 84V78.5156C74.6797 77.8177 74.5234 77.2995 74.2109 76.9609C73.9036 76.6172 73.4193 76.4453 72.7578 76.4453C71.8776 76.4453 71.237 76.6901 70.8359 77.1797C70.4401 77.6641 70.2422 78.4557 70.2422 79.5547V84H68.8359V75.4219H69.9688L70.1797 76.5938H70.2578C70.5234 76.1719 70.8958 75.8464 71.375 75.6172C71.8542 75.3828 72.3828 75.2656 72.9609 75.2656C74.013 75.2656 74.7943 75.5208 75.3047 76.0312C75.8151 76.5417 76.0703 77.3359 76.0703 78.4141V84H74.6797ZM81.5938 83.0078C81.776 83.0078 81.9896 82.9896 82.2344 82.9531C82.4792 82.9167 82.6641 82.875 82.7891 82.8281V83.9062C82.6589 83.9635 82.4557 84.0182 82.1797 84.0703C81.9089 84.1276 81.6328 84.1562 81.3516 84.1562C79.6745 84.1562 78.8359 83.2734 78.8359 81.5078V76.5156H77.625V75.8438L78.8516 75.2812L79.4141 73.4531H80.25V75.4219H82.7266V76.5156H80.25V81.4688C80.25 81.9635 80.3672 82.3438 80.6016 82.6094C80.8411 82.875 81.1719 83.0078 81.5938 83.0078ZM85.9141 84H84.5078V75.4219H85.9141V84ZM84.3984 73.1016C84.3984 72.7891 84.4766 72.5625 84.6328 72.4219C84.7943 72.2812 84.9922 72.2109 85.2266 72.2109C85.4453 72.2109 85.6354 72.2812 85.7969 72.4219C85.9635 72.5625 86.0469 72.7891 86.0469 73.1016C86.0469 73.4089 85.9635 73.6354 85.7969 73.7812C85.6354 73.9271 85.4453 74 85.2266 74C84.9922 74 84.7943 73.9271 84.6328 73.7812C84.4766 73.6354 84.3984 73.4089 84.3984 73.1016ZM92.5859 76.5156H90.4219V84H89.0156V76.5156H87.5156V75.8594L89.0156 75.375V74.8828C89.0156 73.8411 89.2422 73.0599 89.6953 72.5391C90.1536 72.0182 90.8568 71.7578 91.8047 71.7578C92.3516 71.7578 92.9062 71.8542 93.4688 72.0469L93.0938 73.1484C92.6094 72.9922 92.1849 72.9141 91.8203 72.9141C91.3464 72.9141 90.9948 73.0703 90.7656 73.3828C90.5365 73.6953 90.4219 74.1901 90.4219 74.8672V75.4219H92.5859V76.5156ZM95.5547 84H94.1484V75.4219H95.5547V84ZM94.0391 73.1016C94.0391 72.7891 94.1172 72.5625 94.2734 72.4219C94.4349 72.2812 94.6328 72.2109 94.8672 72.2109C95.0859 72.2109 95.276 72.2812 95.4375 72.4219C95.6042 72.5625 95.6875 72.7891 95.6875 73.1016C95.6875 73.4089 95.6042 73.6354 95.4375 73.7812C95.276 73.9271 95.0859 74 94.8672 74C94.6328 74 94.4349 73.9271 94.2734 73.7812C94.1172 73.6354 94.0391 73.4089 94.0391 73.1016ZM101.922 84.1562C100.635 84.1562 99.625 83.7682 98.8906 82.9922C98.1615 82.2109 97.7969 81.138 97.7969 79.7734C97.7969 78.3984 98.138 77.3047 98.8203 76.4922C99.5026 75.6745 100.424 75.2656 101.586 75.2656C102.664 75.2656 103.523 75.6146 104.164 76.3125C104.805 77.0052 105.125 77.9453 105.125 79.1328V79.9844H99.25C99.276 80.9583 99.5234 81.6979 99.9922 82.2031C100.461 82.7083 101.125 82.9609 101.984 82.9609C102.443 82.9609 102.878 82.9219 103.289 82.8438C103.701 82.7604 104.182 82.6016 104.734 82.3672V83.6016C104.26 83.8047 103.815 83.9479 103.398 84.0312C102.982 84.1146 102.49 84.1562 101.922 84.1562ZM101.57 76.4141C100.898 76.4141 100.367 76.6302 99.9766 77.0625C99.5859 77.4948 99.3542 78.0964 99.2812 78.8672H103.648C103.638 78.0651 103.453 77.4557 103.094 77.0391C102.734 76.6224 102.227 76.4141 101.57 76.4141ZM111.305 75.2656C111.685 75.2656 112.021 75.2969 112.312 75.3594L112.141 76.6562C111.823 76.5833 111.513 76.5469 111.211 76.5469C110.758 76.5469 110.336 76.6719 109.945 76.9219C109.56 77.1719 109.258 77.5182 109.039 77.9609C108.82 78.3984 108.711 78.8854 108.711 79.4219V84H107.305V75.4219H108.461L108.617 76.9922H108.68C109.008 76.4245 109.396 75.9948 109.844 75.7031C110.292 75.4115 110.779 75.2656 111.305 75.2656ZM122.266 84H120.891V76.8672C120.891 76.6432 120.891 76.4036 120.891 76.1484C120.896 75.8932 120.901 75.6406 120.906 75.3906C120.917 75.1354 120.924 74.8932 120.93 74.6641C120.94 74.4297 120.948 74.224 120.953 74.0469C120.865 74.1406 120.786 74.2214 120.719 74.2891C120.651 74.3568 120.581 74.4219 120.508 74.4844C120.44 74.5469 120.367 74.6146 120.289 74.6875C120.211 74.7552 120.117 74.8359 120.008 74.9297L118.852 75.875L118.102 74.9141L121.094 72.5781H122.266V84ZM129.156 72.3359L129.266 72.5078C129.193 72.7943 129.104 73.0964 129 73.4141C128.901 73.7266 128.789 74.0469 128.664 74.375C128.544 74.6979 128.417 75.0182 128.281 75.3359C128.151 75.6536 128.021 75.9583 127.891 76.25H126.82C126.893 75.9375 126.966 75.6094 127.039 75.2656C127.117 74.9219 127.19 74.5781 127.258 74.2344C127.331 73.8906 127.396 73.5573 127.453 73.2344C127.51 72.9115 127.56 72.612 127.602 72.3359H129.156ZM132.164 72.3359L132.273 72.5078C132.201 72.7943 132.112 73.0964 132.008 73.4141C131.909 73.7266 131.797 74.0469 131.672 74.375C131.552 74.6979 131.424 75.0182 131.289 75.3359C131.159 75.6536 131.029 75.9583 130.898 76.25H129.828C129.901 75.9375 129.974 75.6094 130.047 75.2656C130.125 74.9219 130.198 74.5781 130.266 74.2344C130.339 73.8906 130.404 73.5573 130.461 73.2344C130.518 72.9115 130.568 72.612 130.609 72.3359H132.164Z" fill="black"/>
<rect y="98" width="172" height="40" fill="#CBEBFD"/>
<path d="M40.9141 116.25L40.8047 116.078C40.8776 115.797 40.9635 115.497 41.0625 115.18C41.1667 114.862 41.2786 114.542 41.3984 114.219C41.5182 113.896 41.6458 113.576 41.7812 113.258C41.9167 112.935 42.0495 112.628 42.1797 112.336H43.25C43.1719 112.654 43.0938 112.984 43.0156 113.328C42.9427 113.672 42.8724 114.016 42.8047 114.359C42.737 114.698 42.6745 115.029 42.6172 115.352C42.5599 115.674 42.5104 115.974 42.4688 116.25H40.9141ZM37.9062 116.25L37.7969 116.078C37.8698 115.797 37.9557 115.497 38.0547 115.18C38.1589 114.862 38.2708 114.542 38.3906 114.219C38.5104 113.896 38.638 113.576 38.7734 113.258C38.9089 112.935 39.0417 112.628 39.1719 112.336H40.2422C40.1641 112.654 40.0859 112.984 40.0078 113.328C39.9349 113.672 39.8646 114.016 39.7969 114.359C39.7292 114.698 39.6667 115.029 39.6094 115.352C39.5521 115.674 39.5026 115.974 39.4609 116.25H37.9062ZM47.2422 124H45.8359V115.422H47.2422V124ZM45.7266 113.102C45.7266 112.789 45.8047 112.562 45.9609 112.422C46.1224 112.281 46.3203 112.211 46.5547 112.211C46.7734 112.211 46.9635 112.281 47.125 112.422C47.2917 112.562 47.375 112.789 47.375 113.102C47.375 113.409 47.2917 113.635 47.125 113.781C46.9635 113.927 46.7734 114 46.5547 114C46.3203 114 46.1224 113.927 45.9609 113.781C45.8047 113.635 45.7266 113.409 45.7266 113.102ZM53 124.156C51.8854 124.156 51.0208 123.771 50.4062 123C49.7917 122.229 49.4844 121.138 49.4844 119.727C49.4844 118.326 49.7917 117.232 50.4062 116.445C51.026 115.659 51.8958 115.266 53.0156 115.266C54.1667 115.266 55.0521 115.688 55.6719 116.531H55.7734C55.7578 116.427 55.737 116.219 55.7109 115.906C55.6849 115.589 55.6719 115.375 55.6719 115.266V111.844H57.0781V124H55.9453L55.7344 122.852H55.6719C55.0729 123.721 54.1823 124.156 53 124.156ZM53.2266 122.992C54.0807 122.992 54.7031 122.76 55.0938 122.297C55.4896 121.828 55.6875 121.062 55.6875 120V119.742C55.6875 118.549 55.487 117.701 55.0859 117.195C54.6901 116.685 54.0651 116.43 53.2109 116.43C52.487 116.43 51.9271 116.719 51.5312 117.297C51.1354 117.87 50.9375 118.69 50.9375 119.758C50.9375 120.82 51.1328 121.625 51.5234 122.172C51.9193 122.719 52.487 122.992 53.2266 122.992ZM63.4531 124.156C62.1667 124.156 61.1562 123.768 60.4219 122.992C59.6927 122.211 59.3281 121.138 59.3281 119.773C59.3281 118.398 59.6693 117.305 60.3516 116.492C61.0339 115.674 61.9557 115.266 63.1172 115.266C64.1953 115.266 65.0547 115.615 65.6953 116.312C66.3359 117.005 66.6562 117.945 66.6562 119.133V119.984H60.7812C60.8073 120.958 61.0547 121.698 61.5234 122.203C61.9922 122.708 62.6562 122.961 63.5156 122.961C63.974 122.961 64.4089 122.922 64.8203 122.844C65.2318 122.76 65.7135 122.602 66.2656 122.367V123.602C65.7917 123.805 65.3464 123.948 64.9297 124.031C64.513 124.115 64.0208 124.156 63.4531 124.156ZM63.1016 116.414C62.4297 116.414 61.8984 116.63 61.5078 117.062C61.1172 117.495 60.8854 118.096 60.8125 118.867H65.1797C65.1693 118.065 64.9844 117.456 64.625 117.039C64.2656 116.622 63.7578 116.414 63.1016 116.414ZM74.6797 124V118.516C74.6797 117.818 74.5234 117.299 74.2109 116.961C73.9036 116.617 73.4193 116.445 72.7578 116.445C71.8776 116.445 71.237 116.69 70.8359 117.18C70.4401 117.664 70.2422 118.456 70.2422 119.555V124H68.8359V115.422H69.9688L70.1797 116.594H70.2578C70.5234 116.172 70.8958 115.846 71.375 115.617C71.8542 115.383 72.3828 115.266 72.9609 115.266C74.013 115.266 74.7943 115.521 75.3047 116.031C75.8151 116.542 76.0703 117.336 76.0703 118.414V124H74.6797ZM81.5938 123.008C81.776 123.008 81.9896 122.99 82.2344 122.953C82.4792 122.917 82.6641 122.875 82.7891 122.828V123.906C82.6589 123.964 82.4557 124.018 82.1797 124.07C81.9089 124.128 81.6328 124.156 81.3516 124.156C79.6745 124.156 78.8359 123.273 78.8359 121.508V116.516H77.625V115.844L78.8516 115.281L79.4141 113.453H80.25V115.422H82.7266V116.516H80.25V121.469C80.25 121.964 80.3672 122.344 80.6016 122.609C80.8411 122.875 81.1719 123.008 81.5938 123.008ZM85.9141 124H84.5078V115.422H85.9141V124ZM84.3984 113.102C84.3984 112.789 84.4766 112.562 84.6328 112.422C84.7943 112.281 84.9922 112.211 85.2266 112.211C85.4453 112.211 85.6354 112.281 85.7969 112.422C85.9635 112.562 86.0469 112.789 86.0469 113.102C86.0469 113.409 85.9635 113.635 85.7969 113.781C85.6354 113.927 85.4453 114 85.2266 114C84.9922 114 84.7943 113.927 84.6328 113.781C84.4766 113.635 84.3984 113.409 84.3984 113.102ZM92.5859 116.516H90.4219V124H89.0156V116.516H87.5156V115.859L89.0156 115.375V114.883C89.0156 113.841 89.2422 113.06 89.6953 112.539C90.1536 112.018 90.8568 111.758 91.8047 111.758C92.3516 111.758 92.9062 111.854 93.4688 112.047L93.0938 113.148C92.6094 112.992 92.1849 112.914 91.8203 112.914C91.3464 112.914 90.9948 113.07 90.7656 113.383C90.5365 113.695 90.4219 114.19 90.4219 114.867V115.422H92.5859V116.516ZM95.5547 124H94.1484V115.422H95.5547V124ZM94.0391 113.102C94.0391 112.789 94.1172 112.562 94.2734 112.422C94.4349 112.281 94.6328 112.211 94.8672 112.211C95.0859 112.211 95.276 112.281 95.4375 112.422C95.6042 112.562 95.6875 112.789 95.6875 113.102C95.6875 113.409 95.6042 113.635 95.4375 113.781C95.276 113.927 95.0859 114 94.8672 114C94.6328 114 94.4349 113.927 94.2734 113.781C94.1172 113.635 94.0391 113.409 94.0391 113.102ZM101.922 124.156C100.635 124.156 99.625 123.768 98.8906 122.992C98.1615 122.211 97.7969 121.138 97.7969 119.773C97.7969 118.398 98.138 117.305 98.8203 116.492C99.5026 115.674 100.424 115.266 101.586 115.266C102.664 115.266 103.523 115.615 104.164 116.312C104.805 117.005 105.125 117.945 105.125 119.133V119.984H99.25C99.276 120.958 99.5234 121.698 99.9922 122.203C100.461 122.708 101.125 122.961 101.984 122.961C102.443 122.961 102.878 122.922 103.289 122.844C103.701 122.76 104.182 122.602 104.734 122.367V123.602C104.26 123.805 103.815 123.948 103.398 124.031C102.982 124.115 102.49 124.156 101.922 124.156ZM101.57 116.414C100.898 116.414 100.367 116.63 99.9766 117.062C99.5859 117.495 99.3542 118.096 99.2812 118.867H103.648C103.638 118.065 103.453 117.456 103.094 117.039C102.734 116.622 102.227 116.414 101.57 116.414ZM111.305 115.266C111.685 115.266 112.021 115.297 112.312 115.359L112.141 116.656C111.823 116.583 111.513 116.547 111.211 116.547C110.758 116.547 110.336 116.672 109.945 116.922C109.56 117.172 109.258 117.518 109.039 117.961C108.82 118.398 108.711 118.885 108.711 119.422V124H107.305V115.422H108.461L108.617 116.992H108.68C109.008 116.424 109.396 115.995 109.844 115.703C110.292 115.411 110.779 115.266 111.305 115.266ZM124.586 124H117.461V122.781L120.195 119.805C120.586 119.383 120.935 118.997 121.242 118.648C121.549 118.299 121.81 117.958 122.023 117.625C122.242 117.292 122.409 116.958 122.523 116.625C122.638 116.286 122.695 115.919 122.695 115.523C122.695 115.216 122.651 114.945 122.562 114.711C122.474 114.477 122.346 114.279 122.18 114.117C122.018 113.951 121.826 113.826 121.602 113.742C121.378 113.659 121.128 113.617 120.852 113.617C120.357 113.617 119.909 113.719 119.508 113.922C119.112 114.12 118.734 114.375 118.375 114.688L117.578 113.758C117.786 113.57 118.01 113.396 118.25 113.234C118.49 113.068 118.747 112.924 119.023 112.805C119.299 112.685 119.591 112.591 119.898 112.523C120.206 112.451 120.529 112.414 120.867 112.414C121.367 112.414 121.818 112.484 122.219 112.625C122.625 112.766 122.969 112.969 123.25 113.234C123.531 113.495 123.747 113.815 123.898 114.195C124.055 114.57 124.133 114.995 124.133 115.469C124.133 115.911 124.062 116.333 123.922 116.734C123.786 117.135 123.596 117.531 123.352 117.922C123.112 118.307 122.823 118.695 122.484 119.086C122.151 119.477 121.789 119.883 121.398 120.305L119.203 122.641V122.703H124.586V124ZM129.156 112.336L129.266 112.508C129.193 112.794 129.104 113.096 129 113.414C128.901 113.727 128.789 114.047 128.664 114.375C128.544 114.698 128.417 115.018 128.281 115.336C128.151 115.654 128.021 115.958 127.891 116.25H126.82C126.893 115.938 126.966 115.609 127.039 115.266C127.117 114.922 127.19 114.578 127.258 114.234C127.331 113.891 127.396 113.557 127.453 113.234C127.51 112.911 127.56 112.612 127.602 112.336H129.156ZM132.164 112.336L132.273 112.508C132.201 112.794 132.112 113.096 132.008 113.414C131.909 113.727 131.797 114.047 131.672 114.375C131.552 114.698 131.424 115.018 131.289 115.336C131.159 115.654 131.029 115.958 130.898 116.25H129.828C129.901 115.938 129.974 115.609 130.047 115.266C130.125 114.922 130.198 114.578 130.266 114.234C130.339 113.891 130.404 113.557 130.461 113.234C130.518 112.911 130.568 112.612 130.609 112.336H132.164Z" fill="black"/>
<rect y="138" width="172" height="40" fill="#DCEEF9"/>
<path d="M40.9141 156.25L40.8047 156.078C40.8776 155.797 40.9635 155.497 41.0625 155.18C41.1667 154.862 41.2786 154.542 41.3984 154.219C41.5182 153.896 41.6458 153.576 41.7812 153.258C41.9167 152.935 42.0495 152.628 42.1797 152.336H43.25C43.1719 152.654 43.0938 152.984 43.0156 153.328C42.9427 153.672 42.8724 154.016 42.8047 154.359C42.737 154.698 42.6745 155.029 42.6172 155.352C42.5599 155.674 42.5104 155.974 42.4688 156.25H40.9141ZM37.9062 156.25L37.7969 156.078C37.8698 155.797 37.9557 155.497 38.0547 155.18C38.1589 154.862 38.2708 154.542 38.3906 154.219C38.5104 153.896 38.638 153.576 38.7734 153.258C38.9089 152.935 39.0417 152.628 39.1719 152.336H40.2422C40.1641 152.654 40.0859 152.984 40.0078 153.328C39.9349 153.672 39.8646 154.016 39.7969 154.359C39.7292 154.698 39.6667 155.029 39.6094 155.352C39.5521 155.674 39.5026 155.974 39.4609 156.25H37.9062ZM47.2422 164H45.8359V155.422H47.2422V164ZM45.7266 153.102C45.7266 152.789 45.8047 152.562 45.9609 152.422C46.1224 152.281 46.3203 152.211 46.5547 152.211C46.7734 152.211 46.9635 152.281 47.125 152.422C47.2917 152.562 47.375 152.789 47.375 153.102C47.375 153.409 47.2917 153.635 47.125 153.781C46.9635 153.927 46.7734 154 46.5547 154C46.3203 154 46.1224 153.927 45.9609 153.781C45.8047 153.635 45.7266 153.409 45.7266 153.102ZM53 164.156C51.8854 164.156 51.0208 163.771 50.4062 163C49.7917 162.229 49.4844 161.138 49.4844 159.727C49.4844 158.326 49.7917 157.232 50.4062 156.445C51.026 155.659 51.8958 155.266 53.0156 155.266C54.1667 155.266 55.0521 155.688 55.6719 156.531H55.7734C55.7578 156.427 55.737 156.219 55.7109 155.906C55.6849 155.589 55.6719 155.375 55.6719 155.266V151.844H57.0781V164H55.9453L55.7344 162.852H55.6719C55.0729 163.721 54.1823 164.156 53 164.156ZM53.2266 162.992C54.0807 162.992 54.7031 162.76 55.0938 162.297C55.4896 161.828 55.6875 161.062 55.6875 160V159.742C55.6875 158.549 55.487 157.701 55.0859 157.195C54.6901 156.685 54.0651 156.43 53.2109 156.43C52.487 156.43 51.9271 156.719 51.5312 157.297C51.1354 157.87 50.9375 158.69 50.9375 159.758C50.9375 160.82 51.1328 161.625 51.5234 162.172C51.9193 162.719 52.487 162.992 53.2266 162.992ZM63.4531 164.156C62.1667 164.156 61.1562 163.768 60.4219 162.992C59.6927 162.211 59.3281 161.138 59.3281 159.773C59.3281 158.398 59.6693 157.305 60.3516 156.492C61.0339 155.674 61.9557 155.266 63.1172 155.266C64.1953 155.266 65.0547 155.615 65.6953 156.312C66.3359 157.005 66.6562 157.945 66.6562 159.133V159.984H60.7812C60.8073 160.958 61.0547 161.698 61.5234 162.203C61.9922 162.708 62.6562 162.961 63.5156 162.961C63.974 162.961 64.4089 162.922 64.8203 162.844C65.2318 162.76 65.7135 162.602 66.2656 162.367V163.602C65.7917 163.805 65.3464 163.948 64.9297 164.031C64.513 164.115 64.0208 164.156 63.4531 164.156ZM63.1016 156.414C62.4297 156.414 61.8984 156.63 61.5078 157.062C61.1172 157.495 60.8854 158.096 60.8125 158.867H65.1797C65.1693 158.065 64.9844 157.456 64.625 157.039C64.2656 156.622 63.7578 156.414 63.1016 156.414ZM74.6797 164V158.516C74.6797 157.818 74.5234 157.299 74.2109 156.961C73.9036 156.617 73.4193 156.445 72.7578 156.445C71.8776 156.445 71.237 156.69 70.8359 157.18C70.4401 157.664 70.2422 158.456 70.2422 159.555V164H68.8359V155.422H69.9688L70.1797 156.594H70.2578C70.5234 156.172 70.8958 155.846 71.375 155.617C71.8542 155.383 72.3828 155.266 72.9609 155.266C74.013 155.266 74.7943 155.521 75.3047 156.031C75.8151 156.542 76.0703 157.336 76.0703 158.414V164H74.6797ZM81.5938 163.008C81.776 163.008 81.9896 162.99 82.2344 162.953C82.4792 162.917 82.6641 162.875 82.7891 162.828V163.906C82.6589 163.964 82.4557 164.018 82.1797 164.07C81.9089 164.128 81.6328 164.156 81.3516 164.156C79.6745 164.156 78.8359 163.273 78.8359 161.508V156.516H77.625V155.844L78.8516 155.281L79.4141 153.453H80.25V155.422H82.7266V156.516H80.25V161.469C80.25 161.964 80.3672 162.344 80.6016 162.609C80.8411 162.875 81.1719 163.008 81.5938 163.008ZM85.9141 164H84.5078V155.422H85.9141V164ZM84.3984 153.102C84.3984 152.789 84.4766 152.562 84.6328 152.422C84.7943 152.281 84.9922 152.211 85.2266 152.211C85.4453 152.211 85.6354 152.281 85.7969 152.422C85.9635 152.562 86.0469 152.789 86.0469 153.102C86.0469 153.409 85.9635 153.635 85.7969 153.781C85.6354 153.927 85.4453 154 85.2266 154C84.9922 154 84.7943 153.927 84.6328 153.781C84.4766 153.635 84.3984 153.409 84.3984 153.102ZM92.5859 156.516H90.4219V164H89.0156V156.516H87.5156V155.859L89.0156 155.375V154.883C89.0156 153.841 89.2422 153.06 89.6953 152.539C90.1536 152.018 90.8568 151.758 91.8047 151.758C92.3516 151.758 92.9062 151.854 93.4688 152.047L93.0938 153.148C92.6094 152.992 92.1849 152.914 91.8203 152.914C91.3464 152.914 90.9948 153.07 90.7656 153.383C90.5365 153.695 90.4219 154.19 90.4219 154.867V155.422H92.5859V156.516ZM95.5547 164H94.1484V155.422H95.5547V164ZM94.0391 153.102C94.0391 152.789 94.1172 152.562 94.2734 152.422C94.4349 152.281 94.6328 152.211 94.8672 152.211C95.0859 152.211 95.276 152.281 95.4375 152.422C95.6042 152.562 95.6875 152.789 95.6875 153.102C95.6875 153.409 95.6042 153.635 95.4375 153.781C95.276 153.927 95.0859 154 94.8672 154C94.6328 154 94.4349 153.927 94.2734 153.781C94.1172 153.635 94.0391 153.409 94.0391 153.102ZM101.922 164.156C100.635 164.156 99.625 163.768 98.8906 162.992C98.1615 162.211 97.7969 161.138 97.7969 159.773C97.7969 158.398 98.138 157.305 98.8203 156.492C99.5026 155.674 100.424 155.266 101.586 155.266C102.664 155.266 103.523 155.615 104.164 156.312C104.805 157.005 105.125 157.945 105.125 159.133V159.984H99.25C99.276 160.958 99.5234 161.698 99.9922 162.203C100.461 162.708 101.125 162.961 101.984 162.961C102.443 162.961 102.878 162.922 103.289 162.844C103.701 162.76 104.182 162.602 104.734 162.367V163.602C104.26 163.805 103.815 163.948 103.398 164.031C102.982 164.115 102.49 164.156 101.922 164.156ZM101.57 156.414C100.898 156.414 100.367 156.63 99.9766 157.062C99.5859 157.495 99.3542 158.096 99.2812 158.867H103.648C103.638 158.065 103.453 157.456 103.094 157.039C102.734 156.622 102.227 156.414 101.57 156.414ZM111.305 155.266C111.685 155.266 112.021 155.297 112.312 155.359L112.141 156.656C111.823 156.583 111.513 156.547 111.211 156.547C110.758 156.547 110.336 156.672 109.945 156.922C109.56 157.172 109.258 157.518 109.039 157.961C108.82 158.398 108.711 158.885 108.711 159.422V164H107.305V155.422H108.461L108.617 156.992H108.68C109.008 156.424 109.396 155.995 109.844 155.703C110.292 155.411 110.779 155.266 111.305 155.266ZM124.219 155.25C124.219 155.63 124.159 155.977 124.039 156.289C123.919 156.602 123.75 156.872 123.531 157.102C123.318 157.331 123.06 157.521 122.758 157.672C122.456 157.818 122.12 157.922 121.75 157.984V158.031C122.672 158.146 123.372 158.44 123.852 158.914C124.331 159.383 124.57 159.995 124.57 160.75C124.57 161.25 124.484 161.708 124.312 162.125C124.146 162.542 123.891 162.901 123.547 163.203C123.203 163.505 122.768 163.74 122.242 163.906C121.716 164.073 121.094 164.156 120.375 164.156C119.807 164.156 119.271 164.112 118.766 164.023C118.266 163.935 117.794 163.773 117.352 163.539V162.211C117.805 162.451 118.294 162.635 118.82 162.766C119.352 162.896 119.859 162.961 120.344 162.961C120.823 162.961 121.237 162.909 121.586 162.805C121.935 162.701 122.221 162.552 122.445 162.359C122.674 162.167 122.841 161.93 122.945 161.648C123.055 161.367 123.109 161.052 123.109 160.703C123.109 160.349 123.039 160.047 122.898 159.797C122.763 159.542 122.568 159.333 122.312 159.172C122.057 159.005 121.745 158.883 121.375 158.805C121.01 158.727 120.596 158.688 120.133 158.688H119.094V157.508H120.133C120.555 157.508 120.93 157.456 121.258 157.352C121.586 157.247 121.859 157.099 122.078 156.906C122.302 156.714 122.471 156.484 122.586 156.219C122.701 155.953 122.758 155.661 122.758 155.344C122.758 155.073 122.711 154.831 122.617 154.617C122.523 154.404 122.391 154.224 122.219 154.078C122.047 153.927 121.841 153.812 121.602 153.734C121.362 153.656 121.096 153.617 120.805 153.617C120.247 153.617 119.755 153.706 119.328 153.883C118.906 154.055 118.503 154.281 118.117 154.562L117.398 153.586C117.596 153.424 117.815 153.273 118.055 153.133C118.299 152.992 118.565 152.87 118.852 152.766C119.138 152.656 119.443 152.57 119.766 152.508C120.094 152.445 120.44 152.414 120.805 152.414C121.367 152.414 121.859 152.484 122.281 152.625C122.708 152.766 123.065 152.964 123.352 153.219C123.638 153.469 123.854 153.768 124 154.117C124.146 154.461 124.219 154.839 124.219 155.25ZM129.156 152.336L129.266 152.508C129.193 152.794 129.104 153.096 129 153.414C128.901 153.727 128.789 154.047 128.664 154.375C128.544 154.698 128.417 155.018 128.281 155.336C128.151 155.654 128.021 155.958 127.891 156.25H126.82C126.893 155.938 126.966 155.609 127.039 155.266C127.117 154.922 127.19 154.578 127.258 154.234C127.331 153.891 127.396 153.557 127.453 153.234C127.51 152.911 127.56 152.612 127.602 152.336H129.156ZM132.164 152.336L132.273 152.508C132.201 152.794 132.112 153.096 132.008 153.414C131.909 153.727 131.797 154.047 131.672 154.375C131.552 154.698 131.424 155.018 131.289 155.336C131.159 155.654 131.029 155.958 130.898 156.25H129.828C129.901 155.938 129.974 155.609 130.047 155.266C130.125 154.922 130.198 154.578 130.266 154.234C130.339 153.891 130.404 153.557 130.461 153.234C130.518 152.911 130.568 152.612 130.609 152.336H132.164Z" fill="black"/>
<rect x="172" y="58" width="172" height="40" fill="#FBEAFF"/>
<path d="M243.885 82.784C244.109 82.784 244.338 82.7627 244.573 82.72C244.808 82.6773 245.01 82.6293 245.181 82.576V83.856C245 83.9413 244.754 84.0107 244.445 84.064C244.136 84.128 243.826 84.16 243.517 84.16C243.048 84.16 242.616 84.08 242.221 83.92C241.837 83.76 241.528 83.4827 241.293 83.088C241.058 82.6933 240.941 82.144 240.941 81.44V76.672H239.741V75.904L241.005 75.264L241.597 73.44H242.637V75.376H245.101V76.672H242.637V81.408C242.637 81.8773 242.749 82.224 242.973 82.448C243.208 82.672 243.512 82.784 243.885 82.784ZM248.602 75.088C248.602 75.3547 248.591 75.6213 248.57 75.888C248.549 76.1547 248.527 76.3733 248.506 76.544H248.618C248.799 76.2453 249.023 76 249.29 75.808C249.567 75.616 249.871 75.472 250.202 75.376C250.543 75.28 250.89 75.232 251.242 75.232C251.925 75.232 252.495 75.344 252.954 75.568C253.423 75.7813 253.775 76.1227 254.01 76.592C254.255 77.0507 254.378 77.648 254.378 78.384V84H252.698V78.624C252.698 77.952 252.554 77.4507 252.266 77.12C251.989 76.7787 251.541 76.608 250.922 76.608C250.335 76.608 249.871 76.7253 249.53 76.96C249.199 77.1947 248.959 77.5413 248.81 78C248.671 78.448 248.602 79.0027 248.602 79.664V84H246.906V71.84H248.602V75.088ZM258.68 75.376V84H256.984V75.376H258.68ZM257.848 72.096C258.104 72.096 258.328 72.1707 258.52 72.32C258.712 72.4693 258.808 72.72 258.808 73.072C258.808 73.4133 258.712 73.664 258.52 73.824C258.328 73.9733 258.104 74.048 257.848 74.048C257.571 74.048 257.336 73.9733 257.144 73.824C256.963 73.664 256.872 73.4133 256.872 73.072C256.872 72.72 256.963 72.4693 257.144 72.32C257.336 72.1707 257.571 72.096 257.848 72.096ZM267.072 81.568C267.072 82.1333 266.933 82.608 266.656 82.992C266.378 83.376 265.978 83.6693 265.456 83.872C264.933 84.064 264.304 84.16 263.568 84.16C262.96 84.16 262.437 84.112 262 84.016C261.573 83.9307 261.178 83.8027 260.816 83.632V82.144C261.2 82.3253 261.642 82.4907 262.144 82.64C262.645 82.7787 263.136 82.848 263.616 82.848C264.256 82.848 264.714 82.7467 264.992 82.544C265.28 82.3413 265.424 82.0693 265.424 81.728C265.424 81.536 265.37 81.3653 265.264 81.216C265.157 81.056 264.954 80.896 264.656 80.736C264.368 80.5653 263.941 80.3733 263.376 80.16C262.832 79.936 262.368 79.7173 261.984 79.504C261.6 79.28 261.306 79.0187 261.104 78.72C260.901 78.4107 260.8 78.016 260.8 77.536C260.8 76.7893 261.098 76.2187 261.696 75.824C262.304 75.4187 263.104 75.216 264.096 75.216C264.618 75.216 265.109 75.2693 265.568 75.376C266.037 75.472 266.49 75.6213 266.928 75.824L266.368 77.12C266.122 77.0027 265.866 76.9067 265.6 76.832C265.344 76.7467 265.082 76.6773 264.816 76.624C264.56 76.5707 264.293 76.544 264.016 76.544C263.504 76.544 263.114 76.624 262.848 76.784C262.581 76.944 262.448 77.168 262.448 77.456C262.448 77.6587 262.506 77.8347 262.624 77.984C262.752 78.1333 262.97 78.2827 263.28 78.432C263.589 78.5813 264.01 78.7627 264.544 78.976C265.077 79.1787 265.53 79.3867 265.904 79.6C266.288 79.8133 266.576 80.0747 266.768 80.384C266.97 80.6933 267.072 81.088 267.072 81.568ZM272.982 71.84L272.662 74.848L275.686 74L275.926 75.616L273.062 75.856L274.918 78.32L273.43 79.12L272.102 76.432L270.918 79.12L269.382 78.32L271.206 75.856L268.374 75.616L268.63 74L271.606 74.848L271.27 71.84H272.982Z" fill="black"/>
<rect x="172" y="98" width="172" height="40" fill="#F8DCFF"/>
<path d="M243.885 122.784C244.109 122.784 244.338 122.763 244.573 122.72C244.808 122.677 245.01 122.629 245.181 122.576V123.856C245 123.941 244.754 124.011 244.445 124.064C244.136 124.128 243.826 124.16 243.517 124.16C243.048 124.16 242.616 124.08 242.221 123.92C241.837 123.76 241.528 123.483 241.293 123.088C241.058 122.693 240.941 122.144 240.941 121.44V116.672H239.741V115.904L241.005 115.264L241.597 113.44H242.637V115.376H245.101V116.672H242.637V121.408C242.637 121.877 242.749 122.224 242.973 122.448C243.208 122.672 243.512 122.784 243.885 122.784ZM248.602 115.088C248.602 115.355 248.591 115.621 248.57 115.888C248.549 116.155 248.527 116.373 248.506 116.544H248.618C248.799 116.245 249.023 116 249.29 115.808C249.567 115.616 249.871 115.472 250.202 115.376C250.543 115.28 250.89 115.232 251.242 115.232C251.925 115.232 252.495 115.344 252.954 115.568C253.423 115.781 253.775 116.123 254.01 116.592C254.255 117.051 254.378 117.648 254.378 118.384V124H252.698V118.624C252.698 117.952 252.554 117.451 252.266 117.12C251.989 116.779 251.541 116.608 250.922 116.608C250.335 116.608 249.871 116.725 249.53 116.96C249.199 117.195 248.959 117.541 248.81 118C248.671 118.448 248.602 119.003 248.602 119.664V124H246.906V111.84H248.602V115.088ZM258.68 115.376V124H256.984V115.376H258.68ZM257.848 112.096C258.104 112.096 258.328 112.171 258.52 112.32C258.712 112.469 258.808 112.72 258.808 113.072C258.808 113.413 258.712 113.664 258.52 113.824C258.328 113.973 258.104 114.048 257.848 114.048C257.571 114.048 257.336 113.973 257.144 113.824C256.963 113.664 256.872 113.413 256.872 113.072C256.872 112.72 256.963 112.469 257.144 112.32C257.336 112.171 257.571 112.096 257.848 112.096ZM267.072 121.568C267.072 122.133 266.933 122.608 266.656 122.992C266.378 123.376 265.978 123.669 265.456 123.872C264.933 124.064 264.304 124.16 263.568 124.16C262.96 124.16 262.437 124.112 262 124.016C261.573 123.931 261.178 123.803 260.816 123.632V122.144C261.2 122.325 261.642 122.491 262.144 122.64C262.645 122.779 263.136 122.848 263.616 122.848C264.256 122.848 264.714 122.747 264.992 122.544C265.28 122.341 265.424 122.069 265.424 121.728C265.424 121.536 265.37 121.365 265.264 121.216C265.157 121.056 264.954 120.896 264.656 120.736C264.368 120.565 263.941 120.373 263.376 120.16C262.832 119.936 262.368 119.717 261.984 119.504C261.6 119.28 261.306 119.019 261.104 118.72C260.901 118.411 260.8 118.016 260.8 117.536C260.8 116.789 261.098 116.219 261.696 115.824C262.304 115.419 263.104 115.216 264.096 115.216C264.618 115.216 265.109 115.269 265.568 115.376C266.037 115.472 266.49 115.621 266.928 115.824L266.368 117.12C266.122 117.003 265.866 116.907 265.6 116.832C265.344 116.747 265.082 116.677 264.816 116.624C264.56 116.571 264.293 116.544 264.016 116.544C263.504 116.544 263.114 116.624 262.848 116.784C262.581 116.944 262.448 117.168 262.448 117.456C262.448 117.659 262.506 117.835 262.624 117.984C262.752 118.133 262.97 118.283 263.28 118.432C263.589 118.581 264.01 118.763 264.544 118.976C265.077 119.179 265.53 119.387 265.904 119.6C266.288 119.813 266.576 120.075 266.768 120.384C266.97 120.693 267.072 121.088 267.072 121.568ZM272.982 111.84L272.662 114.848L275.686 114L275.926 115.616L273.062 115.856L274.918 118.32L273.43 119.12L272.102 116.432L270.918 119.12L269.382 118.32L271.206 115.856L268.374 115.616L268.63 114L271.606 114.848L271.27 111.84H272.982Z" fill="black"/>
<rect x="172" y="138" width="172" height="40" fill="#FBEAFF"/>
<path d="M243.885 162.784C244.109 162.784 244.338 162.763 244.573 162.72C244.808 162.677 245.01 162.629 245.181 162.576V163.856C245 163.941 244.754 164.011 244.445 164.064C244.136 164.128 243.826 164.16 243.517 164.16C243.048 164.16 242.616 164.08 242.221 163.92C241.837 163.76 241.528 163.483 241.293 163.088C241.058 162.693 240.941 162.144 240.941 161.44V156.672H239.741V155.904L241.005 155.264L241.597 153.44H242.637V155.376H245.101V156.672H242.637V161.408C242.637 161.877 242.749 162.224 242.973 162.448C243.208 162.672 243.512 162.784 243.885 162.784ZM248.602 155.088C248.602 155.355 248.591 155.621 248.57 155.888C248.549 156.155 248.527 156.373 248.506 156.544H248.618C248.799 156.245 249.023 156 249.29 155.808C249.567 155.616 249.871 155.472 250.202 155.376C250.543 155.28 250.89 155.232 251.242 155.232C251.925 155.232 252.495 155.344 252.954 155.568C253.423 155.781 253.775 156.123 254.01 156.592C254.255 157.051 254.378 157.648 254.378 158.384V164H252.698V158.624C252.698 157.952 252.554 157.451 252.266 157.12C251.989 156.779 251.541 156.608 250.922 156.608C250.335 156.608 249.871 156.725 249.53 156.96C249.199 157.195 248.959 157.541 248.81 158C248.671 158.448 248.602 159.003 248.602 159.664V164H246.906V151.84H248.602V155.088ZM258.68 155.376V164H256.984V155.376H258.68ZM257.848 152.096C258.104 152.096 258.328 152.171 258.52 152.32C258.712 152.469 258.808 152.72 258.808 153.072C258.808 153.413 258.712 153.664 258.52 153.824C258.328 153.973 258.104 154.048 257.848 154.048C257.571 154.048 257.336 153.973 257.144 153.824C256.963 153.664 256.872 153.413 256.872 153.072C256.872 152.72 256.963 152.469 257.144 152.32C257.336 152.171 257.571 152.096 257.848 152.096ZM267.072 161.568C267.072 162.133 266.933 162.608 266.656 162.992C266.378 163.376 265.978 163.669 265.456 163.872C264.933 164.064 264.304 164.16 263.568 164.16C262.96 164.16 262.437 164.112 262 164.016C261.573 163.931 261.178 163.803 260.816 163.632V162.144C261.2 162.325 261.642 162.491 262.144 162.64C262.645 162.779 263.136 162.848 263.616 162.848C264.256 162.848 264.714 162.747 264.992 162.544C265.28 162.341 265.424 162.069 265.424 161.728C265.424 161.536 265.37 161.365 265.264 161.216C265.157 161.056 264.954 160.896 264.656 160.736C264.368 160.565 263.941 160.373 263.376 160.16C262.832 159.936 262.368 159.717 261.984 159.504C261.6 159.28 261.306 159.019 261.104 158.72C260.901 158.411 260.8 158.016 260.8 157.536C260.8 156.789 261.098 156.219 261.696 155.824C262.304 155.419 263.104 155.216 264.096 155.216C264.618 155.216 265.109 155.269 265.568 155.376C266.037 155.472 266.49 155.621 266.928 155.824L266.368 157.12C266.122 157.003 265.866 156.907 265.6 156.832C265.344 156.747 265.082 156.677 264.816 156.624C264.56 156.571 264.293 156.544 264.016 156.544C263.504 156.544 263.114 156.624 262.848 156.784C262.581 156.944 262.448 157.168 262.448 157.456C262.448 157.659 262.506 157.835 262.624 157.984C262.752 158.133 262.97 158.283 263.28 158.432C263.589 158.581 264.01 158.763 264.544 158.976C265.077 159.179 265.53 159.387 265.904 159.6C266.288 159.813 266.576 160.075 266.768 160.384C266.97 160.693 267.072 161.088 267.072 161.568ZM272.982 151.84L272.662 154.848L275.686 154L275.926 155.616L273.062 155.856L274.918 158.32L273.43 159.12L272.102 156.432L270.918 159.12L269.382 158.32L271.206 155.856L268.374 155.616L268.63 154L271.606 154.848L271.27 151.84H272.982Z" fill="black"/>
<path d="M4.72 5.576C5.70133 5.576 6.50667 5.69867 7.136 5.944C7.76533 6.18933 8.23467 6.55733 8.544 7.048C8.85333 7.528 9.008 8.136 9.008 8.872C9.008 9.45867 8.896 9.95467 8.672 10.36C8.45867 10.7547 8.18133 11.08 7.84 11.336C7.49867 11.5813 7.14133 11.7787 6.768 11.928L9.968 17H7.984L5.232 12.376H3.248V17H1.52V5.576H4.72ZM4.608 7.048H3.248V10.936H4.688C5.27467 10.936 5.75467 10.8613 6.128 10.712C6.512 10.5627 6.78933 10.3387 6.96 10.04C7.14133 9.74133 7.232 9.37333 7.232 8.936C7.232 8.47733 7.136 8.11467 6.944 7.848C6.76267 7.57067 6.47467 7.368 6.08 7.24C5.696 7.112 5.20533 7.048 4.608 7.048ZM19.053 12.68C19.053 13.3947 18.957 14.0293 18.765 14.584C18.573 15.1387 18.301 15.608 17.949 15.992C17.597 16.376 17.1703 16.6693 16.669 16.872C16.1677 17.064 15.6023 17.16 14.973 17.16C14.397 17.16 13.8637 17.064 13.373 16.872C12.8823 16.6693 12.4557 16.376 12.093 15.992C11.741 15.608 11.4637 15.1387 11.261 14.584C11.0583 14.0293 10.957 13.3893 10.957 12.664C10.957 11.7147 11.117 10.9093 11.437 10.248C11.7677 9.58667 12.237 9.08533 12.845 8.744C13.4637 8.392 14.189 8.216 15.021 8.216C15.8103 8.216 16.5037 8.392 17.101 8.744C17.709 9.08533 18.1837 9.58667 18.525 10.248C18.877 10.9093 19.053 11.72 19.053 12.68ZM12.701 12.68C12.701 13.32 12.781 13.8747 12.941 14.344C13.101 14.8027 13.3517 15.1547 13.693 15.4C14.0343 15.6453 14.4717 15.768 15.005 15.768C15.5383 15.768 15.9757 15.6453 16.317 15.4C16.6583 15.1547 16.909 14.8027 17.069 14.344C17.229 13.8747 17.309 13.32 17.309 12.68C17.309 12.0187 17.2237 11.464 17.053 11.016C16.893 10.568 16.6423 10.2267 16.301 9.992C15.9703 9.74667 15.533 9.624 14.989 9.624C14.189 9.624 13.6077 9.89067 13.245 10.424C12.8823 10.9573 12.701 11.7093 12.701 12.68ZM28.627 8.376V17H27.267L27.027 15.864H26.947C26.7657 16.1627 26.531 16.408 26.243 16.6C25.955 16.792 25.6403 16.9307 25.299 17.016C24.9577 17.112 24.6057 17.16 24.243 17.16C23.571 17.16 23.0003 17.0533 22.531 16.84C22.0723 16.616 21.7203 16.2747 21.475 15.816C21.2403 15.3467 21.123 14.7493 21.123 14.024V8.376H22.835V13.768C22.835 14.44 22.9737 14.9413 23.251 15.272C23.539 15.6027 23.9817 15.768 24.579 15.768C25.1763 15.768 25.6457 15.6507 25.987 15.416C26.3283 15.1813 26.5683 14.84 26.707 14.392C26.8563 13.9333 26.931 13.384 26.931 12.744V8.376H28.627ZM34.3851 15.784C34.6091 15.784 34.8385 15.7627 35.0731 15.72C35.3078 15.6773 35.5105 15.6293 35.6811 15.576V16.856C35.4998 16.9413 35.2545 17.0107 34.9451 17.064C34.6358 17.128 34.3265 17.16 34.0171 17.16C33.5478 17.16 33.1158 17.08 32.7211 16.92C32.3371 16.76 32.0278 16.4827 31.7931 16.088C31.5585 15.6933 31.4411 15.144 31.4411 14.44V9.672H30.2411V8.904L31.5051 8.264L32.0971 6.44H33.1371V8.376H35.6011V9.672H33.1371V14.408C33.1371 14.8773 33.2491 15.224 33.4731 15.448C33.7078 15.672 34.0118 15.784 34.3851 15.784ZM40.7981 8.216C41.5555 8.216 42.2061 8.376 42.7501 8.696C43.2941 9.00533 43.7101 9.45333 43.9981 10.04C44.2968 10.6267 44.4461 11.32 44.4461 12.12V13.048H38.6541C38.6755 13.9333 38.9048 14.6107 39.3421 15.08C39.7901 15.5493 40.4141 15.784 41.2141 15.784C41.7688 15.784 42.2595 15.736 42.6861 15.64C43.1235 15.5333 43.5715 15.3787 44.0301 15.176V16.584C43.6035 16.776 43.1661 16.92 42.7181 17.016C42.2808 17.112 41.7581 17.16 41.1501 17.16C40.3181 17.16 39.5821 16.9947 38.9421 16.664C38.3021 16.3333 37.8008 15.8427 37.4381 15.192C37.0861 14.5307 36.9101 13.72 36.9101 12.76C36.9101 11.7893 37.0701 10.968 37.3901 10.296C37.7208 9.624 38.1741 9.112 38.7501 8.76C39.3368 8.39733 40.0195 8.216 40.7981 8.216ZM40.7981 9.528C40.1901 9.528 39.6995 9.72533 39.3261 10.12C38.9635 10.5147 38.7501 11.0747 38.6861 11.8H42.7501C42.7501 11.352 42.6808 10.9573 42.5421 10.616C42.4035 10.2747 42.1901 10.008 41.9021 9.816C41.6141 9.624 41.2461 9.528 40.7981 9.528ZM54.7506 17H53.0226V7.064H49.5986V5.576H58.1746V7.064H54.7506V17ZM61.797 8.216C62.885 8.216 63.6957 8.456 64.229 8.936C64.7623 9.40533 65.029 10.1467 65.029 11.16V17H63.829L63.493 15.8H63.429C63.1837 16.1093 62.9277 16.3653 62.661 16.568C62.405 16.7707 62.1063 16.92 61.765 17.016C61.4343 17.112 61.029 17.16 60.549 17.16C60.037 17.16 59.573 17.0693 59.157 16.888C58.7517 16.696 58.4317 16.408 58.197 16.024C57.9623 15.6293 57.845 15.1387 57.845 14.552C57.845 13.6773 58.1757 13.0107 58.837 12.552C59.509 12.0933 60.5277 11.8427 61.893 11.8L63.365 11.752V11.272C63.365 10.632 63.221 10.184 62.933 9.928C62.645 9.672 62.2397 9.544 61.717 9.544C61.269 9.544 60.8423 9.608 60.437 9.736C60.0317 9.864 59.6477 10.0187 59.285 10.2L58.741 8.968C59.1463 8.75467 59.6103 8.57867 60.133 8.44C60.6663 8.29067 61.221 8.216 61.797 8.216ZM62.197 12.888C61.2157 12.9307 60.533 13.096 60.149 13.384C59.7757 13.6613 59.589 14.056 59.589 14.568C59.589 15.016 59.7223 15.3413 59.989 15.544C60.2663 15.7467 60.613 15.848 61.029 15.848C61.701 15.848 62.2557 15.6613 62.693 15.288C63.1303 14.9147 63.349 14.3547 63.349 13.608V12.856L62.197 12.888ZM69.3365 7.768C69.3365 8.12 69.3258 8.456 69.3045 8.776C69.2938 9.08533 69.2778 9.33067 69.2565 9.512H69.3365C69.5818 9.14933 69.9125 8.84533 70.3285 8.6C70.7445 8.35467 71.2832 8.232 71.9445 8.232C72.9792 8.232 73.8112 8.60533 74.4405 9.352C75.0805 10.0987 75.4005 11.208 75.4005 12.68C75.4005 13.672 75.2565 14.4987 74.9685 15.16C74.6805 15.8213 74.2752 16.3227 73.7525 16.664C73.2298 16.9947 72.6218 17.16 71.9285 17.16C71.2565 17.16 70.7178 17.0427 70.3125 16.808C69.9072 16.5627 69.5818 16.2747 69.3365 15.944H69.2085L68.8885 17H67.6405V4.84H69.3365V7.768ZM71.5445 9.608C70.9898 9.608 70.5525 9.71467 70.2325 9.928C69.9125 10.1413 69.6832 10.4667 69.5445 10.904C69.4058 11.3413 69.3365 11.896 69.3365 12.568V12.696C69.3365 13.688 69.4965 14.4507 69.8165 14.984C70.1365 15.5067 70.7232 15.768 71.5765 15.768C72.2592 15.768 72.7765 15.5013 73.1285 14.968C73.4805 14.4347 73.6565 13.6667 73.6565 12.664C73.6565 11.6507 73.4805 10.888 73.1285 10.376C72.7765 9.864 72.2485 9.608 71.5445 9.608ZM79.2584 17H77.5624V4.84H79.2584V17ZM85.3138 8.216C86.0711 8.216 86.7218 8.376 87.2658 8.696C87.8098 9.00533 88.2258 9.45333 88.5138 10.04C88.8124 10.6267 88.9618 11.32 88.9618 12.12V13.048H83.1698C83.1911 13.9333 83.4204 14.6107 83.8578 15.08C84.3058 15.5493 84.9298 15.784 85.7298 15.784C86.2844 15.784 86.7751 15.736 87.2018 15.64C87.6391 15.5333 88.0871 15.3787 88.5458 15.176V16.584C88.1191 16.776 87.6818 16.92 87.2338 17.016C86.7964 17.112 86.2738 17.16 85.6658 17.16C84.8338 17.16 84.0978 16.9947 83.4578 16.664C82.8178 16.3333 82.3164 15.8427 81.9538 15.192C81.6018 14.5307 81.4258 13.72 81.4258 12.76C81.4258 11.7893 81.5858 10.968 81.9058 10.296C82.2364 9.624 82.6898 9.112 83.2658 8.76C83.8524 8.39733 84.5351 8.216 85.3138 8.216ZM85.3138 9.528C84.7058 9.528 84.2151 9.72533 83.8418 10.12C83.4791 10.5147 83.2658 11.0747 83.2018 11.8H87.2658C87.2658 11.352 87.1964 10.9573 87.0578 10.616C86.9191 10.2747 86.7058 10.008 86.4178 9.816C86.1298 9.624 85.7618 9.528 85.3138 9.528Z" fill="black"/>
<rect y="22" width="172" height="36" fill="#94CBEB"/>
<path d="M82.1094 46H79.3594L76.3672 41.1875L75.3438 41.9219V46H72.9219V34.5781H75.3438V39.8047L76.2969 38.4609L79.3906 34.5781H82.0781L78.0938 39.6328L82.1094 46ZM86.9766 38.7969C86.4714 38.7969 86.0755 38.9583 85.7891 39.2812C85.5026 39.599 85.3385 40.0521 85.2969 40.6406H88.6406C88.6302 40.0521 88.4766 39.599 88.1797 39.2812C87.8828 38.9583 87.4818 38.7969 86.9766 38.7969ZM87.3125 46.1562C85.9062 46.1562 84.8073 45.7682 84.0156 44.9922C83.224 44.2161 82.8281 43.1172 82.8281 41.6953C82.8281 40.2318 83.1927 39.1016 83.9219 38.3047C84.6562 37.5026 85.6693 37.1016 86.9609 37.1016C88.1953 37.1016 89.1562 37.4531 89.8438 38.1562C90.5312 38.8594 90.875 39.8307 90.875 41.0703V42.2266H85.2422C85.2682 42.9036 85.4688 43.4323 85.8438 43.8125C86.2188 44.1927 86.7448 44.3828 87.4219 44.3828C87.9479 44.3828 88.4453 44.3281 88.9141 44.2188C89.3828 44.1094 89.8724 43.9349 90.3828 43.6953V45.5391C89.9661 45.7474 89.5208 45.901 89.0469 46C88.5729 46.1042 87.9948 46.1562 87.3125 46.1562ZM91.4062 37.2656H94.0156L95.6641 42.1797C95.8047 42.6068 95.901 43.112 95.9531 43.6953H96C96.0573 43.1589 96.1693 42.6536 96.3359 42.1797L97.9531 37.2656H100.508L96.8125 47.1172C96.474 48.0286 95.9896 48.7109 95.3594 49.1641C94.7344 49.6172 94.0026 49.8438 93.1641 49.8438C92.7526 49.8438 92.349 49.7995 91.9531 49.7109V47.8203C92.2396 47.888 92.5521 47.9219 92.8906 47.9219C93.3125 47.9219 93.6797 47.7917 93.9922 47.5312C94.3099 47.276 94.5573 46.888 94.7344 46.3672L94.875 45.9375L91.4062 37.2656Z" fill="black"/>
<rect x="172" y="22" width="172" height="36" fill="#E4C5EC"/>
<path d="M244.062 34.5781H246.508L242.625 46H239.984L236.109 34.5781H238.555L240.703 41.375C240.823 41.776 240.945 42.2448 241.07 42.7812C241.201 43.3125 241.281 43.6823 241.312 43.8906C241.37 43.4115 241.565 42.5729 241.898 41.375L244.062 34.5781ZM253.156 46L252.695 44.8125H252.633C252.232 45.3177 251.818 45.6693 251.391 45.8672C250.969 46.0599 250.417 46.1562 249.734 46.1562C248.896 46.1562 248.234 45.9167 247.75 45.4375C247.271 44.9583 247.031 44.276 247.031 43.3906C247.031 42.4635 247.354 41.7812 248 41.3438C248.651 40.901 249.63 40.6562 250.938 40.6094L252.453 40.5625V40.1797C252.453 39.2943 252 38.8516 251.094 38.8516C250.396 38.8516 249.576 39.0625 248.633 39.4844L247.844 37.875C248.849 37.349 249.964 37.0859 251.188 37.0859C252.359 37.0859 253.258 37.3411 253.883 37.8516C254.508 38.362 254.82 39.138 254.82 40.1797V46H253.156ZM252.453 41.9531L251.531 41.9844C250.839 42.0052 250.323 42.1302 249.984 42.3594C249.646 42.5885 249.477 42.9375 249.477 43.4062C249.477 44.0781 249.862 44.4141 250.633 44.4141C251.185 44.4141 251.625 44.2552 251.953 43.9375C252.286 43.6198 252.453 43.1979 252.453 42.6719V41.9531ZM259.664 46H257.281V33.8438H259.664V46ZM268.359 46L268.039 44.8828H267.914C267.659 45.2891 267.297 45.6042 266.828 45.8281C266.359 46.0469 265.826 46.1562 265.227 46.1562C264.201 46.1562 263.427 45.8828 262.906 45.3359C262.385 44.7839 262.125 43.9922 262.125 42.9609V37.2656H264.508V42.3672C264.508 42.9974 264.62 43.4714 264.844 43.7891C265.068 44.1016 265.424 44.2578 265.914 44.2578C266.581 44.2578 267.062 44.0365 267.359 43.5938C267.656 43.1458 267.805 42.4062 267.805 41.375V37.2656H270.188V46H268.359ZM276.305 38.7969C275.799 38.7969 275.404 38.9583 275.117 39.2812C274.831 39.599 274.667 40.0521 274.625 40.6406H277.969C277.958 40.0521 277.805 39.599 277.508 39.2812C277.211 38.9583 276.81 38.7969 276.305 38.7969ZM276.641 46.1562C275.234 46.1562 274.135 45.7682 273.344 44.9922C272.552 44.2161 272.156 43.1172 272.156 41.6953C272.156 40.2318 272.521 39.1016 273.25 38.3047C273.984 37.5026 274.997 37.1016 276.289 37.1016C277.523 37.1016 278.484 37.4531 279.172 38.1562C279.859 38.8594 280.203 39.8307 280.203 41.0703V42.2266H274.57C274.596 42.9036 274.797 43.4323 275.172 43.8125C275.547 44.1927 276.073 44.3828 276.75 44.3828C277.276 44.3828 277.773 44.3281 278.242 44.2188C278.711 44.1094 279.201 43.9349 279.711 43.6953V45.5391C279.294 45.7474 278.849 45.901 278.375 46C277.901 46.1042 277.323 46.1562 276.641 46.1562Z" fill="black"/>
<path d="M131.631 187.064L131.379 189.367L133.705 188.717L133.857 189.848L131.643 190.012L133.078 191.922L132.035 192.484L131.004 190.387L130.078 192.484L129 191.922L130.418 190.012L128.221 189.848L128.391 188.717L130.682 189.367L130.43 187.064H131.631ZM138.68 190.059C138.734 189.844 138.799 189.619 138.873 189.385C138.951 189.146 139.035 188.906 139.125 188.664C139.219 188.418 139.314 188.176 139.412 187.938C139.514 187.699 139.613 187.471 139.711 187.252H141C140.941 187.486 140.883 187.732 140.824 187.99C140.77 188.248 140.715 188.506 140.66 188.764C140.609 189.021 140.562 189.271 140.52 189.514C140.477 189.756 140.439 189.98 140.408 190.188H138.768L138.68 190.059ZM145.477 194.693C145.789 194.693 146.164 194.625 146.602 194.488V195.818C146.156 196.018 145.609 196.117 144.961 196.117C144.246 196.117 143.725 195.938 143.396 195.578C143.072 195.215 142.91 194.672 142.91 193.949V190.791H142.055V190.035L143.039 189.438L143.555 188.055H144.697V189.449H146.531V190.791H144.697V193.949C144.697 194.203 144.768 194.391 144.908 194.512C145.053 194.633 145.242 194.693 145.477 194.693ZM153.979 196H152.191V192.174C152.191 191.229 151.84 190.756 151.137 190.756C150.637 190.756 150.275 190.926 150.053 191.266C149.83 191.605 149.719 192.156 149.719 192.918V196H147.932V186.883H149.719V188.74C149.719 188.885 149.705 189.225 149.678 189.76L149.637 190.287H149.73C150.129 189.646 150.762 189.326 151.629 189.326C152.398 189.326 152.982 189.533 153.381 189.947C153.779 190.361 153.979 190.955 153.979 191.729V196ZM155.742 187.756C155.742 187.174 156.066 186.883 156.715 186.883C157.363 186.883 157.688 187.174 157.688 187.756C157.688 188.033 157.605 188.25 157.441 188.406C157.281 188.559 157.039 188.635 156.715 188.635C156.066 188.635 155.742 188.342 155.742 187.756ZM157.605 196H155.818V189.449H157.605V196ZM164.057 194.055C164.057 194.727 163.822 195.238 163.354 195.59C162.889 195.941 162.191 196.117 161.262 196.117C160.785 196.117 160.379 196.084 160.043 196.018C159.707 195.955 159.393 195.861 159.1 195.736V194.26C159.432 194.416 159.805 194.547 160.219 194.652C160.637 194.758 161.004 194.811 161.32 194.811C161.969 194.811 162.293 194.623 162.293 194.248C162.293 194.107 162.25 193.994 162.164 193.908C162.078 193.818 161.93 193.719 161.719 193.609C161.508 193.496 161.227 193.365 160.875 193.217C160.371 193.006 160 192.811 159.762 192.631C159.527 192.451 159.355 192.246 159.246 192.016C159.141 191.781 159.088 191.494 159.088 191.154C159.088 190.572 159.312 190.123 159.762 189.807C160.215 189.486 160.855 189.326 161.684 189.326C162.473 189.326 163.24 189.498 163.986 189.842L163.447 191.131C163.119 190.99 162.812 190.875 162.527 190.785C162.242 190.695 161.951 190.65 161.654 190.65C161.127 190.65 160.863 190.793 160.863 191.078C160.863 191.238 160.947 191.377 161.115 191.494C161.287 191.611 161.66 191.785 162.234 192.016C162.746 192.223 163.121 192.416 163.359 192.596C163.598 192.775 163.773 192.982 163.887 193.217C164 193.451 164.057 193.73 164.057 194.055ZM167.889 187.381C167.834 187.596 167.768 187.822 167.689 188.061C167.615 188.295 167.531 188.535 167.438 188.781C167.348 189.023 167.252 189.264 167.15 189.502C167.053 189.74 166.955 189.969 166.857 190.188H165.574C165.629 189.953 165.684 189.707 165.738 189.449C165.797 189.191 165.852 188.934 165.902 188.676C165.957 188.418 166.006 188.168 166.049 187.926C166.092 187.684 166.129 187.459 166.16 187.252H167.801L167.889 187.381ZM175.67 189.449C175.955 189.449 176.207 189.473 176.426 189.52L176.297 190.492C176.059 190.438 175.826 190.41 175.6 190.41C175.26 190.41 174.943 190.504 174.65 190.691C174.361 190.879 174.135 191.139 173.971 191.471C173.807 191.799 173.725 192.164 173.725 192.566V196H172.67V189.566H173.537L173.654 190.744H173.701C173.947 190.318 174.238 189.996 174.574 189.777C174.91 189.559 175.275 189.449 175.67 189.449ZM180.246 196.117C179.281 196.117 178.523 195.826 177.973 195.244C177.426 194.658 177.152 193.854 177.152 192.83C177.152 191.799 177.408 190.979 177.92 190.369C178.432 189.756 179.123 189.449 179.994 189.449C180.803 189.449 181.447 189.711 181.928 190.234C182.408 190.754 182.648 191.459 182.648 192.35V192.988H178.242C178.262 193.719 178.447 194.273 178.799 194.652C179.15 195.031 179.648 195.221 180.293 195.221C180.637 195.221 180.963 195.191 181.271 195.133C181.58 195.07 181.941 194.951 182.355 194.775V195.701C182 195.854 181.666 195.961 181.354 196.023C181.041 196.086 180.672 196.117 180.246 196.117ZM179.982 190.311C179.479 190.311 179.08 190.473 178.787 190.797C178.494 191.121 178.32 191.572 178.266 192.15H181.541C181.533 191.549 181.395 191.092 181.125 190.779C180.855 190.467 180.475 190.311 179.982 190.311ZM187.248 190.387H185.625V196H184.57V190.387H183.445V189.895L184.57 189.531V189.162C184.57 188.381 184.74 187.795 185.08 187.404C185.424 187.014 185.951 186.818 186.662 186.818C187.072 186.818 187.488 186.891 187.91 187.035L187.629 187.861C187.266 187.744 186.947 187.686 186.674 187.686C186.318 187.686 186.055 187.803 185.883 188.037C185.711 188.271 185.625 188.643 185.625 189.15V189.566H187.248V190.387ZM191.156 196.117C190.191 196.117 189.434 195.826 188.883 195.244C188.336 194.658 188.062 193.854 188.062 192.83C188.062 191.799 188.318 190.979 188.83 190.369C189.342 189.756 190.033 189.449 190.904 189.449C191.713 189.449 192.357 189.711 192.838 190.234C193.318 190.754 193.559 191.459 193.559 192.35V192.988H189.152C189.172 193.719 189.357 194.273 189.709 194.652C190.061 195.031 190.559 195.221 191.203 195.221C191.547 195.221 191.873 195.191 192.182 195.133C192.49 195.07 192.852 194.951 193.266 194.775V195.701C192.91 195.854 192.576 195.961 192.264 196.023C191.951 196.086 191.582 196.117 191.156 196.117ZM190.893 190.311C190.389 190.311 189.99 190.473 189.697 190.797C189.404 191.121 189.23 191.572 189.176 192.15H192.451C192.443 191.549 192.305 191.092 192.035 190.779C191.766 190.467 191.385 190.311 190.893 190.311ZM198.193 189.449C198.479 189.449 198.73 189.473 198.949 189.52L198.82 190.492C198.582 190.438 198.35 190.41 198.123 190.41C197.783 190.41 197.467 190.504 197.174 190.691C196.885 190.879 196.658 191.139 196.494 191.471C196.33 191.799 196.248 192.164 196.248 192.566V196H195.193V189.566H196.061L196.178 190.744H196.225C196.471 190.318 196.762 189.996 197.098 189.777C197.434 189.559 197.799 189.449 198.193 189.449ZM204.34 194.225C204.34 194.826 204.115 195.293 203.666 195.625C203.217 195.953 202.586 196.117 201.773 196.117C200.926 196.117 200.252 195.982 199.752 195.713V194.752C200.459 195.096 201.141 195.268 201.797 195.268C202.328 195.268 202.715 195.182 202.957 195.01C203.199 194.838 203.32 194.607 203.32 194.318C203.32 194.064 203.203 193.85 202.969 193.674C202.738 193.498 202.326 193.297 201.732 193.07C201.127 192.836 200.701 192.637 200.455 192.473C200.209 192.305 200.027 192.117 199.91 191.91C199.797 191.703 199.74 191.451 199.74 191.154C199.74 190.627 199.955 190.211 200.385 189.906C200.814 189.602 201.404 189.449 202.154 189.449C202.885 189.449 203.568 189.594 204.205 189.883L203.848 190.721C203.195 190.447 202.607 190.311 202.084 190.311C201.646 190.311 201.314 190.381 201.088 190.521C200.861 190.658 200.748 190.848 200.748 191.09C200.748 191.324 200.846 191.52 201.041 191.676C201.236 191.828 201.691 192.041 202.406 192.314C202.941 192.514 203.336 192.699 203.59 192.871C203.848 193.043 204.037 193.236 204.158 193.451C204.279 193.666 204.34 193.924 204.34 194.225ZM211.172 195.256C211.309 195.256 211.469 195.242 211.652 195.215C211.836 195.188 211.975 195.156 212.068 195.121V195.93C211.971 195.973 211.818 196.014 211.611 196.053C211.408 196.096 211.201 196.117 210.99 196.117C209.732 196.117 209.104 195.455 209.104 194.131V190.387H208.195V189.883L209.115 189.461L209.537 188.09H210.164V189.566H212.021V190.387H210.164V194.102C210.164 194.473 210.252 194.758 210.428 194.957C210.607 195.156 210.855 195.256 211.172 195.256ZM218.947 192.771C218.947 193.822 218.682 194.643 218.15 195.232C217.619 195.822 216.885 196.117 215.947 196.117C215.365 196.117 214.85 195.982 214.4 195.713C213.951 195.439 213.605 195.049 213.363 194.541C213.121 194.033 213 193.443 213 192.771C213 191.725 213.262 190.91 213.785 190.328C214.309 189.742 215.043 189.449 215.988 189.449C216.895 189.449 217.613 189.748 218.145 190.346C218.68 190.939 218.947 191.748 218.947 192.771ZM214.09 192.771C214.09 193.58 214.248 194.195 214.564 194.617C214.885 195.035 215.355 195.244 215.977 195.244C216.59 195.244 217.057 195.035 217.377 194.617C217.697 194.195 217.857 193.58 217.857 192.771C217.857 191.963 217.695 191.355 217.371 190.949C217.051 190.539 216.58 190.334 215.959 190.334C214.713 190.334 214.09 191.146 214.09 192.771ZM225.891 195.256C226.027 195.256 226.188 195.242 226.371 195.215C226.555 195.188 226.693 195.156 226.787 195.121V195.93C226.689 195.973 226.537 196.014 226.33 196.053C226.127 196.096 225.92 196.117 225.709 196.117C224.451 196.117 223.822 195.455 223.822 194.131V190.387H222.914V189.883L223.834 189.461L224.256 188.09H224.883V189.566H226.74V190.387H224.883V194.102C224.883 194.473 224.971 194.758 225.146 194.957C225.326 195.156 225.574 195.256 225.891 195.256ZM232.459 196V191.887C232.459 191.363 232.342 190.975 232.107 190.721C231.877 190.463 231.514 190.334 231.018 190.334C230.365 190.334 229.887 190.516 229.582 190.879C229.281 191.242 229.131 191.842 229.131 192.678V196H228.076V186.883H229.131V189.555C229.131 189.906 229.111 190.207 229.072 190.457H229.143C229.334 190.145 229.605 189.9 229.957 189.725C230.309 189.549 230.705 189.461 231.146 189.461C231.928 189.461 232.516 189.648 232.91 190.023C233.305 190.395 233.502 190.99 233.502 191.811V196H232.459ZM238.23 196.117C237.266 196.117 236.508 195.826 235.957 195.244C235.41 194.658 235.137 193.854 235.137 192.83C235.137 191.799 235.393 190.979 235.904 190.369C236.416 189.756 237.107 189.449 237.979 189.449C238.787 189.449 239.432 189.711 239.912 190.234C240.393 190.754 240.633 191.459 240.633 192.35V192.988H236.227C236.246 193.719 236.432 194.273 236.783 194.652C237.135 195.031 237.633 195.221 238.277 195.221C238.621 195.221 238.947 195.191 239.256 195.133C239.564 195.07 239.926 194.951 240.34 194.775V195.701C239.984 195.854 239.65 195.961 239.338 196.023C239.025 196.086 238.656 196.117 238.23 196.117ZM237.967 190.311C237.463 190.311 237.064 190.473 236.771 190.797C236.479 191.121 236.305 191.572 236.25 192.15H239.525C239.518 191.549 239.379 191.092 239.109 190.779C238.84 190.467 238.459 190.311 237.967 190.311ZM247.963 196.117C247.037 196.117 246.316 195.834 245.801 195.268C245.285 194.697 245.027 193.881 245.027 192.818C245.027 191.74 245.287 190.91 245.807 190.328C246.33 189.742 247.074 189.449 248.039 189.449C248.352 189.449 248.66 189.482 248.965 189.549C249.273 189.611 249.527 189.693 249.727 189.795L249.404 190.674C248.861 190.471 248.398 190.369 248.016 190.369C247.367 190.369 246.889 190.574 246.58 190.984C246.271 191.391 246.117 191.998 246.117 192.807C246.117 193.584 246.271 194.18 246.58 194.594C246.889 195.004 247.346 195.209 247.951 195.209C248.518 195.209 249.074 195.084 249.621 194.834V195.771C249.176 196.002 248.623 196.117 247.963 196.117ZM252.146 189.566V193.709C252.146 194.229 252.262 194.615 252.492 194.869C252.727 195.119 253.088 195.244 253.576 195.244C254.236 195.244 254.717 195.061 255.018 194.693C255.318 194.326 255.469 193.734 255.469 192.918V189.566H256.529V196H255.662L255.51 195.15H255.457C255.266 195.459 254.994 195.697 254.643 195.865C254.291 196.033 253.883 196.117 253.418 196.117C252.645 196.117 252.061 195.932 251.666 195.561C251.275 195.189 251.08 194.596 251.08 193.779V189.566H252.146ZM261.568 189.449C261.854 189.449 262.105 189.473 262.324 189.52L262.195 190.492C261.957 190.438 261.725 190.41 261.498 190.41C261.158 190.41 260.842 190.504 260.549 190.691C260.26 190.879 260.033 191.139 259.869 191.471C259.705 191.799 259.623 192.164 259.623 192.566V196H258.568V189.566H259.436L259.553 190.744H259.6C259.846 190.318 260.137 189.996 260.473 189.777C260.809 189.559 261.174 189.449 261.568 189.449ZM266.525 189.449C266.811 189.449 267.062 189.473 267.281 189.52L267.152 190.492C266.914 190.438 266.682 190.41 266.455 190.41C266.115 190.41 265.799 190.504 265.506 190.691C265.217 190.879 264.99 191.139 264.826 191.471C264.662 191.799 264.58 192.164 264.58 192.566V196H263.525V189.566H264.393L264.51 190.744H264.557C264.803 190.318 265.094 189.996 265.43 189.777C265.766 189.559 266.131 189.449 266.525 189.449ZM271.102 196.117C270.137 196.117 269.379 195.826 268.828 195.244C268.281 194.658 268.008 193.854 268.008 192.83C268.008 191.799 268.264 190.979 268.775 190.369C269.287 189.756 269.979 189.449 270.85 189.449C271.658 189.449 272.303 189.711 272.783 190.234C273.264 190.754 273.504 191.459 273.504 192.35V192.988H269.098C269.117 193.719 269.303 194.273 269.654 194.652C270.006 195.031 270.504 195.221 271.148 195.221C271.492 195.221 271.818 195.191 272.127 195.133C272.436 195.07 272.797 194.951 273.211 194.775V195.701C272.855 195.854 272.521 195.961 272.209 196.023C271.896 196.086 271.527 196.117 271.102 196.117ZM270.838 190.311C270.334 190.311 269.936 190.473 269.643 190.797C269.35 191.121 269.176 191.572 269.121 192.15H272.396C272.389 191.549 272.25 191.092 271.98 190.779C271.711 190.467 271.33 190.311 270.838 190.311ZM279.521 196V191.887C279.521 191.363 279.404 190.975 279.17 190.721C278.939 190.463 278.576 190.334 278.08 190.334C277.42 190.334 276.939 190.518 276.639 190.885C276.342 191.248 276.193 191.842 276.193 192.666V196H275.139V189.566H275.988L276.146 190.445H276.205C276.404 190.129 276.684 189.885 277.043 189.713C277.402 189.537 277.799 189.449 278.232 189.449C279.021 189.449 279.607 189.641 279.99 190.023C280.373 190.406 280.564 191.002 280.564 191.811V196H279.521ZM284.707 195.256C284.844 195.256 285.004 195.242 285.188 195.215C285.371 195.188 285.51 195.156 285.604 195.121V195.93C285.506 195.973 285.354 196.014 285.146 196.053C284.943 196.096 284.736 196.117 284.525 196.117C283.268 196.117 282.639 195.455 282.639 194.131V190.387H281.73V189.883L282.65 189.461L283.072 188.09H283.699V189.566H285.557V190.387H283.699V194.102C283.699 194.473 283.787 194.758 283.963 194.957C284.143 195.156 284.391 195.256 284.707 195.256ZM291.885 191.236H292.471C293.045 191.236 293.469 191.141 293.742 190.949C294.016 190.758 294.152 190.457 294.152 190.047C294.152 189.641 294.012 189.352 293.73 189.18C293.453 189.008 293.021 188.922 292.436 188.922H291.885V191.236ZM291.885 192.713V196H290.068V187.434H292.564C293.729 187.434 294.59 187.646 295.148 188.072C295.707 188.494 295.986 189.137 295.986 190C295.986 190.504 295.848 190.953 295.57 191.348C295.293 191.738 294.9 192.045 294.393 192.268L296.912 196H294.896L292.852 192.713H291.885ZM300.562 190.598C300.184 190.598 299.887 190.719 299.672 190.961C299.457 191.199 299.334 191.539 299.303 191.98H301.811C301.803 191.539 301.688 191.199 301.465 190.961C301.242 190.719 300.941 190.598 300.562 190.598ZM300.814 196.117C299.76 196.117 298.936 195.826 298.342 195.244C297.748 194.662 297.451 193.838 297.451 192.771C297.451 191.674 297.725 190.826 298.271 190.229C298.822 189.627 299.582 189.326 300.551 189.326C301.477 189.326 302.197 189.59 302.713 190.117C303.229 190.645 303.486 191.373 303.486 192.303V193.17H299.262C299.281 193.678 299.432 194.074 299.713 194.359C299.994 194.645 300.389 194.787 300.896 194.787C301.291 194.787 301.664 194.746 302.016 194.664C302.367 194.582 302.734 194.451 303.117 194.271V195.654C302.805 195.811 302.471 195.926 302.115 196C301.76 196.078 301.326 196.117 300.814 196.117ZM309.51 194.055C309.51 194.727 309.275 195.238 308.807 195.59C308.342 195.941 307.645 196.117 306.715 196.117C306.238 196.117 305.832 196.084 305.496 196.018C305.16 195.955 304.846 195.861 304.553 195.736V194.26C304.885 194.416 305.258 194.547 305.672 194.652C306.09 194.758 306.457 194.811 306.773 194.811C307.422 194.811 307.746 194.623 307.746 194.248C307.746 194.107 307.703 193.994 307.617 193.908C307.531 193.818 307.383 193.719 307.172 193.609C306.961 193.496 306.68 193.365 306.328 193.217C305.824 193.006 305.453 192.811 305.215 192.631C304.98 192.451 304.809 192.246 304.699 192.016C304.594 191.781 304.541 191.494 304.541 191.154C304.541 190.572 304.766 190.123 305.215 189.807C305.668 189.486 306.309 189.326 307.137 189.326C307.926 189.326 308.693 189.498 309.439 189.842L308.9 191.131C308.572 190.99 308.266 190.875 307.98 190.785C307.695 190.695 307.404 190.65 307.107 190.65C306.58 190.65 306.316 190.793 306.316 191.078C306.316 191.238 306.4 191.377 306.568 191.494C306.74 191.611 307.113 191.785 307.688 192.016C308.199 192.223 308.574 192.416 308.812 192.596C309.051 192.775 309.227 192.982 309.34 193.217C309.453 193.451 309.51 193.73 309.51 194.055ZM312.328 192.713C312.328 193.361 312.434 193.852 312.645 194.184C312.859 194.516 313.207 194.682 313.688 194.682C314.164 194.682 314.506 194.518 314.713 194.189C314.924 193.857 315.029 193.365 315.029 192.713C315.029 192.064 314.924 191.578 314.713 191.254C314.502 190.93 314.156 190.768 313.676 190.768C313.199 190.768 312.855 190.93 312.645 191.254C312.434 191.574 312.328 192.061 312.328 192.713ZM316.857 192.713C316.857 193.779 316.576 194.613 316.014 195.215C315.451 195.816 314.668 196.117 313.664 196.117C313.035 196.117 312.48 195.98 312 195.707C311.52 195.43 311.15 195.033 310.893 194.518C310.635 194.002 310.506 193.4 310.506 192.713C310.506 191.643 310.785 190.811 311.344 190.217C311.902 189.623 312.688 189.326 313.699 189.326C314.328 189.326 314.883 189.463 315.363 189.736C315.844 190.01 316.213 190.402 316.471 190.914C316.729 191.426 316.857 192.025 316.857 192.713ZM320.121 196H318.334V186.883H320.121V196ZM323.561 196L321.064 189.449H322.934L324.199 193.182C324.328 193.588 324.412 194.035 324.451 194.523H324.498C324.521 194.082 324.609 193.635 324.762 193.182L326.021 189.449H327.891L325.395 196H323.561ZM331.547 190.598C331.168 190.598 330.871 190.719 330.656 190.961C330.441 191.199 330.318 191.539 330.287 191.98H332.795C332.787 191.539 332.672 191.199 332.449 190.961C332.227 190.719 331.926 190.598 331.547 190.598ZM331.799 196.117C330.744 196.117 329.92 195.826 329.326 195.244C328.732 194.662 328.436 193.838 328.436 192.771C328.436 191.674 328.709 190.826 329.256 190.229C329.807 189.627 330.566 189.326 331.535 189.326C332.461 189.326 333.182 189.59 333.697 190.117C334.213 190.645 334.471 191.373 334.471 192.303V193.17H330.246C330.266 193.678 330.416 194.074 330.697 194.359C330.979 194.645 331.373 194.787 331.881 194.787C332.275 194.787 332.648 194.746 333 194.664C333.352 194.582 333.719 194.451 334.102 194.271V195.654C333.789 195.811 333.455 195.926 333.1 196C332.744 196.078 332.311 196.117 331.799 196.117ZM339.58 189.326C339.822 189.326 340.023 189.344 340.184 189.379L340.049 191.055C339.904 191.016 339.729 190.996 339.521 190.996C338.951 190.996 338.506 191.143 338.186 191.436C337.869 191.729 337.711 192.139 337.711 192.666V196H335.924V189.449H337.277L337.541 190.551H337.629C337.832 190.184 338.105 189.889 338.449 189.666C338.797 189.439 339.174 189.326 339.58 189.326ZM341.297 195.35C341.297 195.201 341.316 195.076 341.355 194.975C341.395 194.869 341.447 194.785 341.514 194.723C341.58 194.656 341.658 194.609 341.748 194.582C341.838 194.551 341.936 194.535 342.041 194.535C342.143 194.535 342.238 194.551 342.328 194.582C342.422 194.609 342.502 194.656 342.568 194.723C342.635 194.785 342.688 194.869 342.727 194.975C342.766 195.076 342.785 195.201 342.785 195.35C342.785 195.494 342.766 195.619 342.727 195.725C342.688 195.826 342.635 195.91 342.568 195.977C342.502 196.043 342.422 196.092 342.328 196.123C342.238 196.154 342.143 196.17 342.041 196.17C341.936 196.17 341.838 196.154 341.748 196.123C341.658 196.092 341.58 196.043 341.514 195.977C341.447 195.91 341.395 195.826 341.355 195.725C341.316 195.619 341.297 195.494 341.297 195.35Z" fill="black"/>
</svg>
